%FSTAX23Y23*%
%MOIN*%
%SFA1B1*%

%IPPOS*%
%ADD10C,0.059055*%
%ADD11R,0.059055X0.059055*%
%ADD12R,0.078740X0.078740*%
%ADD13C,0.078740*%
%ADD14C,0.118110*%
%ADD15C,0.137795*%
%ADD16C,0.027559*%
%ADD17C,0.010000*%
%LNpcb1_copper_signal_bot-1*%
%LPD*%
G36*
X0256Y03546D02*
Y00402D01*
X02557Y00399*
X00393Y00403*
Y0354*
X02557Y03549*
X0256Y03546*
G37*
%LNpcb1_copper_signal_bot-2*%
%LPC*%
G36*
X01491Y03333D02*
X01481D01*
X01478Y03332*
X01471*
X01468Y03332*
X01465*
X01462Y03331*
X01461*
X01451Y03329*
X01451Y03329*
X01448Y03328*
X01448Y03328*
X01445Y03328*
X01445Y03328*
X01443Y03327*
X01442Y03327*
X01439Y03327*
X01439Y03326*
X01437Y03326*
X01436Y03326*
X01435Y03325*
X01435Y03325*
X01432Y03325*
X01432Y03324*
X0143Y03324*
X01429Y03324*
X01428Y03323*
X01427Y03323*
X01427Y03323*
X01426Y03322*
X01425Y03322*
X01424Y03322*
X01423Y03321*
X01422Y03321*
X01421Y03321*
X0142Y0332*
X01419Y0332*
X01419Y0332*
X01418Y03319*
X01417Y03319*
X01416Y03319*
X01416Y03318*
X01414Y03318*
X01414Y03318*
X01413Y03318*
X01412Y03317*
X01412Y03317*
X01411Y03317*
X0141Y03316*
X01409Y03316*
X01409Y03316*
X01408Y03315*
X01407Y03315*
X01407Y03314*
X01406Y03314*
X01405Y03314*
X01405Y03314*
X01404Y03313*
X01404Y03313*
X01403Y03313*
X01402Y03312*
X01401Y03312*
X01401Y03312*
X01399Y03311*
X01399Y03311*
X01398Y0331*
X01398Y0331*
X01397Y03309*
X01396Y03309*
X01395Y03308*
X01395Y03308*
X01394Y03307*
X01393Y03307*
X01391Y03306*
X01391Y03306*
X01389Y03305*
X01389Y03305*
X01388Y03304*
X01388Y03304*
X01386Y03302*
X01386Y03302*
X01378Y03297*
X01378Y03297*
X01373Y03294*
X01373Y03293*
X01371Y03292*
X01371Y03292*
X0137Y03291*
X0137Y03291*
X01369Y03291*
X01369Y0329*
X01367Y03289*
X01367Y03288*
X01366Y03288*
X01366Y03288*
X01366Y03287*
X01365Y03287*
X01365Y03287*
X01365Y03286*
X01362Y03285*
X01362Y03284*
X01362Y03284*
X01362Y03284*
X01361Y03284*
X01361Y03283*
X01361Y03283*
X0136Y03283*
X0136Y03282*
X0136Y03282*
X01359Y03282*
X01359Y03281*
X01359Y03281*
X01358Y03281*
X01358Y0328*
X01358Y0328*
X01357Y0328*
X01357Y03279*
X01357Y03279*
X01356Y03279*
X01356Y03278*
X01356Y03278*
X01355Y03278*
X01355Y03277*
X01355Y03277*
X01355Y03277*
X01354Y03277*
X01354Y03276*
X01354Y03276*
X01353Y03276*
X01353Y03275*
X01353Y03275*
X01352Y03275*
X01352Y03274*
X01352Y03274*
X01351Y03274*
X01351Y03273*
X01351Y03273*
X0135Y03273*
X01349Y0327*
X01348Y0327*
X01348Y0327*
X01348Y0327*
X01348Y03269*
X01347Y03269*
X01347Y03269*
X01346Y03268*
X01345Y03266*
X01345Y03266*
X01344Y03265*
X01344Y03265*
X01344Y03265*
X01343Y03264*
X01342Y03262*
X01341Y03262*
X01341Y03261*
X01341Y03261*
X01336Y03253*
X01336Y03253*
X01334Y03251*
X01334Y03251*
X01333Y0325*
X01333Y0325*
X01332Y03248*
X01332Y03248*
X0133Y03246*
X0133Y03245*
X0133Y03244*
X0133Y03244*
X01328Y03243*
X01328Y03243*
X01327Y03241*
X01327Y03241*
X01326Y03239*
X01326Y03238*
X01325Y03237*
X01325Y03237*
X01325Y03236*
X01325Y03236*
X01324Y03235*
X01324Y03235*
X01323Y03233*
X01323Y03232*
X01321Y0323*
X01321Y0323*
X01321Y03229*
X01321Y03229*
X0132Y03228*
X0132Y03227*
X0132Y03227*
X01319Y03225*
X01319Y03225*
X01319Y03224*
X01318Y03223*
X01318Y03222*
X01318Y03221*
X01318Y03221*
X01317Y0322*
X01317Y0322*
X01316Y03219*
X01316Y03218*
X01316Y03218*
X01315Y03216*
X01315Y03216*
X01315Y03214*
X01314Y03214*
X01314Y03213*
X01314Y03213*
X01314Y03211*
X01313Y03211*
X01313Y03208*
X01313Y03208*
X01312Y03207*
X01312Y03206*
X01312Y03205*
X01311Y03204*
X01311Y03203*
X01311Y03202*
X0131Y032*
X0131Y032*
X01309Y03197*
X01309Y03197*
X01309Y03195*
X01309Y03195*
X01308Y03191*
X01308Y03191*
X01307Y03188*
X01307Y03188*
X01307Y03185*
X01307Y03185*
X01305Y03176*
Y03174*
X01304Y03171*
Y03168*
X01304Y03164*
Y03137*
X01304Y03134*
Y0313*
X01305Y03127*
Y03125*
X01306Y03122*
Y03121*
X01307Y03112*
X01308Y03112*
X01308Y0311*
X01308Y03109*
X01309Y03107*
X01309Y03107*
X01309Y03104*
X01309Y03104*
X0131Y03101*
X0131Y03101*
X01311Y03099*
X01311Y03098*
X01311Y03097*
X01311Y03097*
X01312Y03094*
X01312Y03094*
X01313Y03092*
X01313Y03092*
X01313Y03091*
X01314Y0309*
X01314Y03089*
X01314Y03088*
X01314Y03087*
X01315Y03086*
X01315Y03085*
X01315Y03085*
X01316Y03083*
X01316Y03083*
X01316Y03082*
X01317Y03082*
X01317Y0308*
X01318Y03079*
X01318Y03079*
X01318Y03078*
X01318Y03078*
X01319Y03077*
X01319Y03076*
X01319Y03075*
X0132Y03075*
X0132Y03074*
X0132Y03073*
X01321Y03072*
X01321Y03072*
X01321Y03071*
X01321Y03071*
X01322Y0307*
X01322Y03069*
X01323Y03069*
X01323Y03068*
X01323Y03067*
X01323Y03067*
X01325Y03065*
X01325Y03065*
X01325Y03064*
X01325Y03064*
X01326Y03063*
X01326Y03062*
X01326Y03062*
X01327Y03061*
X01328Y03059*
X01328Y03059*
X01329Y03057*
X01329Y03057*
X0133Y03056*
X0133Y03056*
X01331Y03054*
X01331Y03054*
X01332Y03052*
X01332Y03052*
X01338Y03044*
X01338Y03044*
X01341Y0304*
X01341Y0304*
X01341Y03039*
X01342Y03039*
X01343Y03037*
X01344Y03036*
X01345Y03034*
X01346Y03034*
X01346Y03034*
X01346Y03033*
X01346Y03033*
X01347Y03033*
X01348Y0303*
X01349Y0303*
X01349Y0303*
X01349Y03029*
X0135Y03029*
X0135Y03029*
X0135Y03028*
X01351Y03028*
X01351Y03028*
X01351Y03027*
X01352Y03027*
X01352Y03027*
X01352Y03026*
X01353Y03026*
X01353Y03026*
X01353Y03026*
X01354Y03025*
X01354Y03025*
X01354Y03025*
X01355Y03024*
X01355Y03024*
X01355Y03024*
X01357Y03021*
X01359Y0302*
X01359Y03019*
X0136Y03019*
X0136Y03019*
X0136Y03019*
X01361Y03018*
X01361Y03018*
X01361Y03018*
X01362Y03017*
X01362Y03017*
X01362Y03017*
X01362Y03016*
X01363Y03016*
X01363Y03016*
X01363Y03015*
X01364Y03015*
X01365Y03014*
X01365Y03014*
X01367Y03012*
X01368Y03012*
X01368Y03012*
X01368Y03011*
X01369Y03011*
X01369Y0301*
X01371Y03009*
X01371Y03009*
X01372Y03008*
X01372Y03008*
X01372Y03008*
X01373Y03007*
X01381Y03002*
X01381Y03002*
X01384Y03*
X01384Y03*
X01386Y02998*
X01386Y02998*
X01388Y02997*
X01388Y02997*
X0139Y02996*
X0139Y02996*
X01392Y02994*
X01392Y02994*
X01393Y02994*
X01393Y02994*
X01395Y02992*
X01396Y02992*
X01396Y02992*
X01396Y02992*
X01398Y02991*
X01399Y0299*
X014Y0299*
X014Y0299*
X01401Y02989*
X01401Y02989*
X01402Y02989*
X01403Y02989*
X01404Y02988*
X01404Y02988*
X01405Y02987*
X01405Y02987*
X01407Y02986*
X01408Y02986*
X01409Y02985*
X01418Y02984*
X0142*
X01429Y02985*
X01437Y02991*
X01442Y02998*
X01442Y02999*
X01442Y02999*
X01445Y03*
X01448Y02999*
X01448Y02999*
X01448Y02998*
X01448Y02997*
X01449Y02996*
X01449Y02995*
X01449Y02994*
X0145Y02993*
X0145Y02992*
X0145Y02992*
X01451Y0299*
X01451Y02989*
X01451Y02988*
X01452Y02988*
X01452Y02986*
X01452Y02986*
X01452Y02984*
X01453Y02984*
X01453Y02983*
X01454Y02982*
X01454Y02982*
X01454Y02981*
X01454Y0298*
X01455Y02979*
X01455Y02979*
X01455Y02978*
X01456Y02977*
X01456Y02976*
X01456Y02975*
X01457Y02975*
X01457Y02974*
X01457Y02973*
X01458Y02973*
X01458Y02972*
X01458Y02972*
X01459Y02971*
X01459Y0297*
X01459Y0297*
X0146Y02968*
X0146Y02968*
X0146Y02967*
X01461Y02965*
X01461Y02965*
X01462Y02964*
X01462Y02964*
X01463Y02963*
X01463Y02963*
X01463Y02962*
X01463Y02961*
X01464Y02961*
X01464Y0296*
X01465Y02959*
X01465Y02959*
X01465Y02958*
X01465Y02953*
X0146Y02945*
X01459Y02944*
X01459Y02943*
X01458Y0294*
X01457Y02939*
X01453Y02939*
X01448Y02945*
X0144Y02951*
X0144Y02951*
X01439Y02951*
X0143Y02953*
X01426*
X01416Y02951*
X01416Y02951*
X01409Y02956*
X01408Y02956*
X01407Y02956*
X01407Y02957*
X01406Y02957*
X01405Y02957*
X01404Y02958*
X01395Y0296*
X01387*
X01377Y02958*
X01376Y02957*
X01376Y02957*
X01375Y02957*
X01375Y02956*
X01367Y02951*
X01362Y02943*
X01361Y02938*
X01358Y02938*
X01349*
X0134Y02937*
X0134Y02936*
X01339Y02936*
X01333Y02937*
X01331*
X01322Y02935*
X01314Y0293*
X01314Y0293*
X01313Y0293*
X01313Y02929*
X01313Y02929*
X01307Y02921*
X01306Y02912*
Y02864*
X01307Y02855*
X01313Y02847*
X01313Y02847*
X01313Y02846*
X01314Y02846*
X01314Y02846*
X01322Y0284*
X01331Y02839*
X01333*
X01339Y0284*
X01339Y0284*
X01348Y02838*
X01349*
X01353Y02837*
X01354*
X01357Y02838*
X01358*
X01368Y0284*
X01368Y0284*
X0137Y0284*
X0137Y02841*
X01371Y02841*
X01372Y02842*
X01373Y02842*
X01374Y02842*
X01374Y02842*
X01376Y02844*
X01376Y02844*
X01381Y02847*
X01382Y02847*
X01382Y02847*
X01382Y02846*
X0139Y02841*
X01391Y02841*
X01391Y0284*
X01401Y02839*
X01402*
X01411Y0284*
X01412Y02841*
X01412Y02841*
X01415Y02843*
X01417Y02841*
X01417Y02841*
X01418Y0284*
X01427Y02839*
X01429*
X01438Y0284*
X01439Y02841*
X01439Y0284*
X01449Y02839*
X0145*
X01459Y0284*
X0146Y02841*
X0146Y02841*
X01467Y02845*
X01473Y02841*
X01474Y02841*
X01474Y0284*
X01484Y02839*
X01485*
X01494Y0284*
X01495Y02841*
X01495Y02841*
X01499Y02843*
X01499Y02843*
X01499Y02843*
X015Y02842*
X015Y02842*
X01501Y02842*
X01502Y02842*
X01503Y02841*
X01504Y02841*
X01504Y0284*
X01508Y0284*
X01508Y0284*
X01517Y02838*
X01518*
X01521Y02837*
X01524*
X01527Y02838*
X0153*
X01539Y0284*
X01539Y0284*
X01541Y0284*
X01542Y02841*
X01543Y02841*
X01544Y02842*
X01545Y02842*
X01545Y02842*
X01546Y02842*
X01549Y0284*
X01558Y02839*
X01607*
X01614Y0284*
X01622Y02839*
X01659*
X01669Y0284*
X01671Y02842*
X01671Y02842*
X01678Y02847*
X01684Y02855*
X01685Y02864*
Y02931*
X01684Y0294*
X01678Y02948*
X01671Y02953*
X01671Y02953*
X01669Y02955*
X01659Y02956*
X01622*
X01613Y02955*
X01604Y02956*
X01558*
X01549Y02955*
X01548Y02954*
X01547Y02954*
X01545Y02952*
X01544Y02953*
X01544Y02953*
X01543Y02953*
X01542Y02953*
X01541Y02954*
X0154Y02954*
X0154Y02955*
X01537Y02955*
X01537Y02955*
X01528Y02957*
X01523*
X01522Y0296*
X01522Y02961*
X01521Y02962*
X01521Y02962*
X01521Y02965*
X01521Y02965*
X01521Y02966*
Y02968*
X0152Y02971*
Y02978*
X01519Y02982*
X0152Y02985*
Y02994*
X01521Y02997*
Y03001*
X01521Y03003*
X01526*
X01527Y02999*
X01527Y02998*
X01527Y02998*
X01528Y02997*
X01528Y02997*
X01533Y02989*
X01541Y02984*
X0155Y02982*
X01551*
X01561Y02984*
X01561Y02984*
X01562Y02984*
X01563Y02985*
X01563Y02985*
X01564Y02985*
X01564Y02985*
X01565Y02986*
X01566Y02986*
X01567Y02987*
X01567Y02987*
X01568Y02987*
X01568Y02987*
X01569Y02988*
X0157Y02988*
X0157Y02989*
X01571Y02989*
X01572Y02989*
X01572Y02989*
X01573Y0299*
X01573Y0299*
X01574Y0299*
X01575Y02991*
X01577Y02992*
X01577Y02992*
X01577Y02992*
X01578Y02992*
X0158Y02994*
X0158Y02994*
X01582Y02995*
X01582Y02995*
X01584Y02996*
X01584Y02996*
X01584Y02997*
X01585Y02997*
X01587Y02998*
X01587Y02998*
X01595Y03003*
X01595Y03004*
X01599Y03007*
X01599Y03007*
X016Y03007*
X016Y03008*
X01602Y03009*
X01603Y0301*
X01603Y0301*
X01603Y0301*
X01606Y03012*
X01606Y03012*
X01606Y03012*
X01606Y03013*
X01607Y03013*
X01607Y03013*
X01607Y03014*
X01608Y03014*
X0161Y03016*
X0161Y03016*
X01611Y03016*
X01611Y03017*
X01611Y03017*
X01612Y03017*
X01612Y03018*
X01612Y03018*
X01613Y03018*
X01613Y03019*
X01613Y03019*
X01613Y03019*
X01614Y03019*
X01614Y0302*
X01614Y0302*
X01615Y0302*
X01615Y03021*
X01615Y03021*
X01616Y03021*
X01616Y03022*
X01616Y03022*
X01617Y03022*
X01617Y03023*
X01617Y03023*
X01618Y03023*
X01618Y03024*
X01618Y03024*
X01619Y03024*
X01619Y03025*
X01619Y03025*
X0162Y03025*
X0162Y03026*
X0162Y03026*
X0162Y03026*
X01621Y03026*
X01621Y03027*
X01622Y03027*
X01622Y03027*
X01622Y03028*
X01622Y03028*
X01623Y03028*
X01623Y03029*
X01623Y03029*
X01624Y03029*
X01624Y0303*
X01626Y03032*
X01626Y03032*
X01626Y03033*
X01627Y03033*
X01627Y03033*
X01627Y03034*
X01629Y03036*
X01629Y03036*
X01629Y03036*
X0163Y03037*
X0163Y03037*
X0163Y03037*
X01633Y03042*
X01634Y03042*
X01639Y0305*
X01639Y0305*
X0164Y03052*
X0164Y03052*
X01641Y03053*
X01641Y03053*
X01643Y03055*
X01643Y03055*
X01644Y03057*
X01644Y03057*
X01645Y03059*
X01645Y0306*
X01646Y0306*
X01646Y03061*
X01647Y03062*
X01647Y03062*
X01647Y03063*
X01647Y03063*
X01648Y03065*
X01649Y03065*
X01649Y03066*
X01649Y03067*
X0165Y03068*
X0165Y03068*
X01651Y03069*
X01651Y03071*
X01652Y03071*
X01652Y03072*
X01652Y03073*
X01652Y03073*
X01653Y03074*
X01653Y03074*
X01654Y03075*
X01654Y03076*
X01654Y03076*
X01654Y03077*
X01655Y03078*
X01655Y03079*
X01655Y0308*
X01656Y0308*
X01656Y03081*
X01656Y03081*
X01657Y03082*
X01657Y03084*
X01657Y03084*
X01657Y03085*
X01658Y03085*
X01658Y03087*
X01659Y03087*
X01659Y03089*
X01659Y03089*
X0166Y03091*
X0166Y03091*
X0166Y03093*
X01661Y03093*
X01661Y03094*
X01661Y03095*
X01662Y03096*
X01662Y03097*
X01662Y03099*
X01663Y03099*
X01663Y03102*
X01663Y03102*
X01663Y03103*
X01664Y03104*
X01664Y03107*
X01664Y03107*
X01665Y0311*
X01665Y0311*
X01666Y03114*
X01666Y03114*
X01668Y03123*
Y03123*
X01668Y03127*
Y03127*
X01669Y0313*
Y03134*
X01669Y03137*
Y03164*
X01669Y03167*
Y03171*
X01668Y03174*
Y03175*
X01667Y03181*
Y03182*
X01665Y03191*
X01665Y03191*
X01664Y03194*
X01664Y03194*
X01664Y03197*
X01663Y03198*
X01663Y03199*
X01663Y03199*
X01663Y03202*
X01662Y03202*
X01662Y03204*
X01662Y03205*
X01661Y03206*
X01661Y03207*
X01661Y03208*
X0166Y03209*
X0166Y0321*
X01659Y03211*
X01659Y03211*
X01659Y03212*
X01659Y03214*
X01658Y03215*
X01658Y03215*
X01658Y03216*
X01657Y03217*
X01657Y03218*
X01657Y03218*
X01656Y03219*
X01656Y0322*
X01656Y03221*
X01655Y03221*
X01655Y03222*
X01655Y03223*
X01654Y03224*
X01654Y03225*
X01654Y03225*
X01654Y03226*
X01653Y03227*
X01653Y03227*
X01652Y03228*
X01652Y03228*
X01652Y03229*
X01652Y0323*
X01651Y03231*
X01651Y03231*
X0165Y03232*
X0165Y03232*
X0165Y03233*
X0165Y03234*
X01649Y03234*
X01649Y03235*
X01648Y03237*
X01648Y03237*
X01647Y03238*
X01647Y03238*
X01647Y03239*
X01647Y03239*
X01646Y0324*
X01646Y03241*
X01645Y03243*
X01645Y03243*
X01643Y03244*
X01643Y03244*
X01643Y03245*
X01643Y03246*
X01637Y03254*
X01637Y03254*
X01633Y0326*
X01633Y0326*
X01631Y03263*
X01631Y03263*
X01629Y03265*
X01629Y03265*
X01629Y03266*
X01628Y03266*
X01627Y03268*
X01626Y03269*
X01626Y03269*
X01626Y03269*
X01625Y0327*
X01625Y0327*
X01625Y0327*
X01624Y0327*
X01624Y03271*
X01624Y03271*
X01622Y03273*
X01622Y03274*
X01622Y03274*
X01621Y03274*
X01621Y03275*
X0162Y03275*
X0162Y03275*
X0162Y03276*
X0162Y03276*
X01619Y03276*
X01619Y03277*
X01619Y03277*
X01618Y03277*
X01618Y03277*
X01618Y03278*
X01617Y03278*
X01617Y03278*
X01617Y03279*
X01616Y03279*
X01616Y03279*
X01616Y0328*
X01615Y0328*
X01615Y0328*
X01615Y03281*
X01614Y03281*
X01614Y03281*
X01614Y03282*
X01613Y03282*
X01613Y03282*
X01613Y03283*
X01613Y03283*
X01612Y03283*
X01612Y03284*
X01612Y03284*
X01611Y03284*
X01611Y03284*
X01611Y03285*
X01608Y03286*
X01608Y03287*
X01608Y03287*
X01607Y03287*
X01607Y03288*
X01607Y03288*
X01606Y03288*
X01606Y03289*
X01604Y0329*
X01604Y03291*
X01603Y03291*
X01603Y03291*
X01603Y03292*
X01602Y03292*
X01598Y03295*
X01598Y03295*
X01596Y03297*
X01595Y03297*
X01587Y03302*
X01587Y03302*
X01586Y03304*
X01586Y03304*
X01584Y03305*
X01584Y03305*
X01582Y03306*
X01581Y03306*
X0158Y03307*
X0158Y03307*
X01579Y03308*
X01578Y03308*
X01577Y03309*
X01577Y03309*
X01575Y0331*
X01575Y0331*
X01574Y03311*
X01574Y03311*
X01573Y03311*
X01573Y03311*
X01571Y03312*
X0157Y03313*
X0157Y03313*
X01569Y03313*
X01568Y03314*
X01568Y03314*
X01567Y03314*
X01567Y03314*
X01566Y03315*
X01564Y03315*
X01564Y03316*
X01563Y03316*
X01563Y03316*
X01562Y03316*
X01561Y03317*
X01561Y03317*
X0156Y03318*
X0156Y03318*
X01559Y03318*
X01557Y03318*
X01557Y03319*
X01556Y03319*
X01556Y03319*
X01554Y0332*
X01554Y0332*
X01552Y0332*
X01552Y03321*
X01551Y03321*
X0155Y03321*
X01549Y03322*
X01548Y03322*
X01547Y03322*
X01547Y03323*
X01545Y03323*
X01545Y03323*
X01543Y03324*
X01543Y03324*
X0154Y03324*
X0154Y03325*
X01539Y03325*
X01538Y03325*
X01537Y03326*
X01536Y03326*
X01534Y03326*
X01534Y03327*
X01531Y03327*
X01531Y03327*
X01528Y03328*
X01528Y03328*
X01525Y03328*
X01525Y03328*
X01516Y0333*
X01515*
X01512Y03331*
X01511*
X01507Y03332*
X01505*
X01502Y03332*
X01495*
X01491Y03333*
G37*
G36*
X02009Y02636D02*
X01993D01*
X01977Y02633*
X01962Y02627*
X01948Y02618*
X01937Y02606*
X01928Y02593*
X01921Y02578*
X01918Y02562*
Y02546*
X01921Y0253*
X01928Y02515*
X01937Y02501*
X01948Y02489*
X01962Y0248*
X01977Y02474*
X01993Y02471*
X02009*
X02025Y02474*
X0204Y0248*
X02054Y02489*
X02065Y02501*
X02074Y02515*
X0208Y0253*
X02084Y02546*
Y02562*
X0208Y02578*
X02074Y02593*
X02065Y02606*
X02054Y02618*
X0204Y02627*
X02025Y02633*
X02009Y02636*
G37*
G36*
X02026Y02303D02*
X02013D01*
X02001Y02301*
X0199Y02296*
X01979Y02289*
X01971Y0228*
X01964Y0227*
X01959Y02259*
X01957Y02247*
Y02234*
X01959Y02222*
X01964Y0221*
X01971Y022*
X01979Y02191*
X0199Y02185*
X02001Y0218*
X02013Y02177*
X02026*
X02038Y0218*
X02049Y02185*
X0206Y02191*
X02068Y022*
X02075Y0221*
X0208Y02222*
X02082Y02234*
Y02247*
X0208Y02259*
X02075Y0227*
X02068Y0228*
X0206Y02289*
X02049Y02296*
X02038Y02301*
X02026Y02303*
G37*
G36*
X01044Y02636D02*
X01028D01*
X01012Y02633*
X00997Y02627*
X00983Y02618*
X00972Y02606*
X00963Y02593*
X00957Y02578*
X00953Y02562*
Y02546*
X00957Y0253*
X00963Y02515*
X00972Y02501*
X00983Y02489*
X00997Y0248*
X01012Y02474*
X01016Y02473*
X01015Y02468*
X00597*
X00587Y02467*
X00578Y02463*
X0057Y02457*
X00542Y02429*
X00536Y02421*
X00532Y02412*
X00531Y02402*
Y01756*
X00532Y01746*
X00536Y01737*
X00542Y01729*
X00762Y01509*
Y01302*
X00702*
X00697Y01307*
X00685Y01314*
X00671Y01318*
X00658*
X00644Y01314*
X00632Y01307*
X00622Y01297*
X00615Y01285*
X00611Y01271*
Y01258*
X00615Y01244*
X00622Y01232*
X00632Y01222*
X0064Y01217*
Y01212*
X00632Y01207*
X00627Y01202*
X00571*
X00561Y01201*
X00552Y01197*
X00544Y01191*
X00528Y01175*
X00522Y01167*
X00518Y01158*
X00517Y01148*
Y00746*
X00518Y00736*
X00522Y00727*
X00528Y00719*
X00544Y00703*
X00552Y00697*
X00561Y00693*
X00571Y00692*
X00597*
Y0056*
X00598Y0055*
X00602Y00541*
X00608Y00533*
X00673Y00468*
X00681Y00462*
X0069Y00458*
X007Y00457*
X02283*
X02293Y00458*
X02302Y00462*
X0231Y00468*
X02326Y00484*
X02332Y00492*
X02336Y00501*
X02337Y00511*
Y00586*
X02353*
Y00693*
X02262*
Y01122*
X02282Y01142*
X02288Y0115*
X02292Y01159*
X02293Y01169*
Y01677*
X02362*
X02374Y0167*
X02388Y01666*
X02401*
X02415Y0167*
X02427Y01677*
X02437Y01687*
X02444Y01699*
X02448Y01713*
Y01726*
X02444Y0174*
X02437Y01752*
X02427Y01762*
X02419Y01767*
Y01772*
X02427Y01777*
X02437Y01787*
X02444Y01799*
X02448Y01813*
Y01826*
X02444Y0184*
X02437Y01852*
X02427Y01862*
X02419Y01867*
Y01872*
X02427Y01877*
X02437Y01887*
X02444Y01899*
X02448Y01913*
Y01926*
X02444Y0194*
X02437Y01952*
X02427Y01962*
X02415Y01969*
X02401Y01973*
X02388*
X02374Y01969*
X02362Y01962*
X02352Y01952*
X02165*
X02155Y01951*
X02146Y01947*
X02138Y01941*
X02122Y01925*
X02116Y01917*
X02112Y01908*
X02111Y01898*
Y01678*
X0207*
X02068Y0168*
X02062Y01687*
X0206Y0169*
X02062Y01694*
X02068Y017*
X02075Y0171*
X0208Y01722*
X02082Y01734*
Y01747*
X0208Y01759*
X02075Y0177*
X02068Y0178*
X02062Y01787*
X0206Y0179*
X02062Y01794*
X02068Y018*
X02075Y0181*
X0208Y01822*
X02082Y01834*
Y01847*
X0208Y01859*
X02075Y0187*
X02068Y0188*
X02062Y01887*
X0206Y0189*
X02062Y01894*
X02068Y019*
X02075Y0191*
X0208Y01922*
X02082Y01934*
Y01947*
X0208Y01959*
X02075Y0197*
X02068Y0198*
X02062Y01987*
X0206Y0199*
X02062Y01994*
X02068Y02*
X02075Y0201*
X0208Y02022*
X02082Y02034*
Y02047*
X0208Y02059*
X02075Y0207*
X02068Y0208*
X0206Y02089*
X02049Y02096*
X02038Y02101*
X02026Y02103*
X02013*
X02001Y02101*
X0199Y02096*
X01979Y02089*
X01971Y0208*
X01964Y0207*
X01962Y02066*
X01833*
Y02413*
X01832Y02423*
X01828Y02432*
X01822Y0244*
X01805Y02457*
X01797Y02463*
X01788Y02467*
X01778Y02468*
X01057*
X01056Y02473*
X0106Y02474*
X01075Y0248*
X01089Y02489*
X011Y02501*
X01109Y02515*
X01116Y0253*
X01119Y02546*
Y02562*
X01116Y02578*
X01109Y02593*
X011Y02606*
X01089Y02618*
X01075Y02627*
X0106Y02633*
X01044Y02636*
G37*
%LNpcb1_copper_signal_bot-3*%
%LPD*%
G36*
X01496Y0328D02*
X01499D01*
X01501Y03276*
X01501Y03275*
X01498Y03271*
X01498Y03267*
X01498Y03267*
X01496Y03258*
Y03256*
X01495Y03253*
Y03252*
X01495Y03249*
Y03247*
X01495Y03247*
X01495Y03247*
X01493Y03241*
X01488Y0324*
X01485Y03245*
X01484Y03245*
X01484Y03245*
X01484Y03245*
X01483Y03246*
X01483Y03246*
X01483Y03247*
X01482Y03247*
X01482Y03247*
X01482Y03247*
X01482Y03248*
X01481Y03248*
X01481Y03248*
X01473Y03254*
X01473Y03254*
X01471Y03255*
X0147Y03255*
X01469Y03256*
X01467Y03256*
X01467Y03256*
X01457Y03258*
X01455*
X01446Y03256*
X01446Y03256*
X01443Y03256*
X01442Y03255*
X01441Y03255*
X0144Y03254*
X0144Y03254*
X01432Y03249*
X01432Y03249*
X0143Y03247*
X01429Y03247*
X01429Y03247*
X01429Y03246*
X01428Y03246*
X01423Y03238*
X01423Y03238*
X01422Y03237*
X01422Y03237*
X01421Y03235*
X01421Y03234*
X01421Y03234*
X0142Y03233*
X0142Y03232*
X01419Y0323*
X01419Y0323*
X01418Y03223*
X01416Y03223*
X01408Y03218*
X01403Y0321*
X01403Y03209*
X01403Y03208*
X01403Y03208*
X01402Y03207*
X01402Y03205*
X01401Y03205*
X01401Y03203*
X01401Y03203*
X014Y03202*
X014Y03201*
X014Y032*
X01399Y03199*
X01399Y03198*
X01399Y03197*
X01399Y03196*
X01398Y03195*
X01398Y03193*
X01398Y03193*
X01397Y0319*
X01397Y0319*
X01395Y03181*
Y0318*
X01394Y03174*
Y03173*
X01393Y0317*
Y03166*
X01392Y03163*
Y03147*
X01393Y03144*
Y0314*
X01394Y03137*
Y03136*
X01394Y03132*
Y03132*
X01396Y03122*
X01396Y03122*
X01397Y03119*
X01397Y03119*
X01398Y03117*
X01398Y03116*
X01398Y03114*
X01398Y03114*
X01399Y03112*
X01399Y03111*
X01399Y0311*
X014Y03109*
X014Y03108*
X014Y03107*
X01401Y03106*
X01401Y03105*
X01401Y03104*
X01402Y03103*
X01402Y03102*
X01402Y03101*
X01403Y031*
X01403Y03099*
X01403Y03099*
X01404Y03098*
X01404Y03097*
X01404Y03096*
X01405Y03096*
X01405Y03095*
X01405Y03094*
X01406Y03093*
X01406Y03092*
X01406Y03092*
X01406Y03091*
X01407Y0309*
X01407Y0309*
X01407Y03089*
X01408Y03088*
X01408Y03087*
X01408Y03087*
X01409Y03086*
X01409Y03085*
X0141Y03085*
X0141Y03084*
X0141Y03083*
X0141Y03083*
X01411Y03082*
X01411Y03082*
X01412Y0308*
X01412Y0308*
X01413Y03079*
X01413Y03078*
X01414Y03076*
X01414Y03076*
X01419Y03069*
X0142Y03068*
X0142Y03068*
X0142Y03068*
X01421Y03067*
X01421Y03067*
X01421Y03067*
X01429Y03062*
X01438Y0306*
X01439*
Y03045*
X0144Y03042*
Y03037*
X0144Y03034*
Y03033*
X01441Y03031*
X01436Y03029*
X0143Y03033*
X01429Y03033*
X01427Y03034*
X01427Y03035*
X01426Y03035*
X01425Y03035*
X01425Y03036*
X01424Y03036*
X01423Y03036*
X01423Y03036*
X01422Y03037*
X01421Y03037*
X01421Y03038*
X0142Y03038*
X01419Y03038*
X01419Y03038*
X01417Y0304*
X01417Y0304*
X01416Y03041*
X01415Y03041*
X01414Y03041*
X01414Y03041*
X0141Y03044*
X0141Y03045*
X01408Y03046*
X01407Y03046*
X01405Y03048*
X01405Y03048*
X01404Y03049*
X01404Y03049*
X01402Y03051*
X01402Y03051*
X01401Y03051*
X01401Y03052*
X01401Y03052*
X014Y03052*
X014Y03052*
X014Y03053*
X01399Y03053*
X01399Y03054*
X01397Y03055*
X01397Y03055*
X01396Y03056*
X01396Y03056*
X01396Y03056*
X01395Y03057*
X01395Y03057*
X01395Y03057*
X01394Y03058*
X01394Y03058*
X01394Y03058*
X01393Y03059*
X01393Y03059*
X01393Y03059*
X01392Y0306*
X01391Y03062*
X01389Y03063*
X01388Y03065*
X01387Y03065*
X01387Y03066*
X01387Y03066*
X01386Y03066*
X01386Y03067*
X01386Y03067*
X01385Y03067*
X01384Y03069*
X01383Y0307*
X01382Y03072*
X01381Y03072*
X01381Y03073*
X01381Y03073*
X01379Y03075*
X01379Y03075*
X01377Y03078*
X01377Y03078*
X01376Y0308*
X01376Y0308*
X01375Y03081*
X01375Y03081*
X01374Y03082*
X01374Y03083*
X01374Y03084*
X01374Y03084*
X01372Y03086*
X01372Y03086*
X01372Y03087*
X01372Y03087*
X01371Y03088*
X01371Y03089*
X01371Y03089*
X0137Y0309*
X0137Y03091*
X0137Y03091*
X01369Y03092*
X01369Y03092*
X01369Y03093*
X01369Y03094*
X01368Y03094*
X01368Y03095*
X01367Y03096*
X01367Y03096*
X01367Y03097*
X01367Y03097*
X01366Y03098*
X01366Y03099*
X01365Y031*
X01365Y03101*
X01365Y03101*
X01365Y03103*
X01364Y03103*
X01364Y03104*
X01363Y03105*
X01363Y03105*
X01363Y03106*
X01363Y03107*
X01362Y03108*
X01362Y03109*
X01362Y0311*
X01361Y03111*
X01361Y03111*
X01361Y03113*
X0136Y03113*
X0136Y03115*
X0136Y03115*
X0136Y03117*
X01359Y03117*
X01359Y03119*
X01359Y03119*
X01358Y03122*
X01358Y03122*
X01358Y03124*
X01358Y03124*
X01357Y03128*
Y03129*
X01356Y03132*
Y03134*
X01356Y03137*
Y03142*
X01355Y03145*
Y03156*
X01356Y03159*
Y03164*
X01356Y03167*
Y03168*
X01357Y03171*
Y03173*
X01358Y03176*
Y03176*
X01358Y03176*
X01358Y03178*
X01358Y03179*
X01359Y03181*
X01359Y03181*
X01359Y03184*
X0136Y03184*
X0136Y03186*
X0136Y03186*
X0136Y03187*
X01361Y03188*
X01361Y03189*
X01361Y0319*
X01362Y03191*
X01362Y03192*
X01363Y03194*
X01363Y03194*
X01363Y03195*
X01363Y03195*
X01364Y03197*
X01364Y03197*
X01364Y03198*
X01365Y03199*
X01365Y032*
X01365Y032*
X01365Y03201*
X01366Y03202*
X01366Y03202*
X01367Y03203*
X01367Y03204*
X01367Y03205*
X01367Y03205*
X01368Y03206*
X01368Y03207*
X01369Y03207*
X01369Y03208*
X01369Y03209*
X01369Y03209*
X0137Y0321*
X0137Y03211*
X0137Y03211*
X01371Y03212*
X01371Y03213*
X01371Y03213*
X01372Y03215*
X01372Y03215*
X01373Y03216*
X01373Y03216*
X01374Y03217*
X01374Y03218*
X01374Y03218*
X01374Y03218*
X01376Y0322*
X01376Y0322*
X01377Y03222*
X01377Y03223*
X01377Y03223*
X01377Y03223*
X01378Y03224*
X01378Y03224*
X0138Y03226*
X0138Y03227*
X01381Y03229*
X01382Y03229*
X01383Y03231*
X01384Y03232*
X01384Y03232*
X01384Y03232*
X01385Y03233*
X01385Y03233*
X01387Y03235*
X01387Y03235*
X01387Y03236*
X01388Y03236*
X01388Y03236*
X01388Y03237*
X01388Y03237*
X01389Y03237*
X01389Y03238*
X01389Y03238*
X0139Y03239*
X01391Y03239*
X01391Y0324*
X01391Y0324*
X01392Y03241*
X01393Y03241*
X01393Y03242*
X01393Y03242*
X01395Y03244*
X01397Y03245*
X01397Y03245*
X01397Y03246*
X01397Y03246*
X01398Y03246*
X01398Y03247*
X01398Y03247*
X01399Y03247*
X01399Y03248*
X01399Y03248*
X014Y03248*
X014Y03249*
X014Y03249*
X01401Y03249*
X01403Y03251*
X01403Y03251*
X01404Y03251*
X01404Y03252*
X01406Y03253*
X01406Y03254*
X01407Y03254*
X01407Y03254*
X01409Y03256*
X0141Y03256*
X01414Y03259*
X01414Y03259*
X01416Y0326*
X01416Y0326*
X01417Y03262*
X01417Y03262*
X01418Y03262*
X01419Y03262*
X0142Y03263*
X0142Y03263*
X01421Y03263*
X01421Y03263*
X01422Y03264*
X01423Y03264*
X01424Y03265*
X01425Y03265*
X01425Y03266*
X01426Y03266*
X01426Y03266*
X01428Y03267*
X01429Y03267*
X01429Y03267*
X0143Y03268*
X0143Y03268*
X01432Y03269*
X01433Y03269*
X01434Y0327*
X01434Y0327*
X01435Y0327*
X01436Y03271*
X01437Y03271*
X01437Y03271*
X01438Y03272*
X01439Y03272*
X0144Y03272*
X0144Y03272*
X01441Y03273*
X01442Y03273*
X01443Y03273*
X01444Y03274*
X01445Y03274*
X01446Y03274*
X01447Y03275*
X01448Y03275*
X01449Y03275*
X0145Y03276*
X0145Y03276*
X01453Y03276*
X01453Y03277*
X01455Y03277*
X01455Y03277*
X01457Y03278*
X01457Y03278*
X0146Y03278*
X0146Y03278*
X0146*
X01463Y03279*
X01465*
X01468Y0328*
X01469*
X01472Y0328*
X01476*
X01479Y03281*
X01493*
X01496Y0328*
G37*
G36*
X01457Y03233D02*
X0146D01*
Y03233*
X01462*
Y03232*
X01463*
Y03231*
X01464*
Y03231*
X01465*
Y0323*
X01465*
Y03229*
X01466*
Y03229*
X01466*
Y03228*
X01467*
Y03228*
X01468*
Y03226*
X01468*
Y03225*
X01469*
Y03224*
X0147*
Y03222*
X0147*
Y03212*
X0147*
Y0321*
X01469*
Y03208*
X01468*
Y03207*
X01468*
Y03206*
X01467*
Y03205*
X01466*
Y03205*
X01466*
Y03203*
X01465*
Y03203*
X01464*
Y03202*
X01463*
Y03201*
X01462*
Y03201*
X01461*
Y032*
X01459*
Y03199*
X01454*
Y032*
X01452*
Y03201*
X0145*
Y03201*
X01449*
Y03202*
X01448*
Y03203*
X01447*
Y03203*
X01447*
Y03204*
X01446*
Y03205*
X01445*
Y03206*
X01445*
Y03206*
X01444*
Y03208*
X01443*
Y03208*
X01443*
Y0321*
X01442*
Y03213*
X01441*
Y03221*
X01442*
Y03223*
X01443*
Y03224*
X01443*
Y03226*
X01444*
Y03226*
X01445*
Y03228*
X01445*
Y03229*
X01446*
Y03229*
X01447*
Y0323*
X01448*
Y03231*
X01449*
Y03231*
X01449*
Y03232*
X0145*
Y03233*
X01452*
Y03233*
X01455*
Y03234*
X01457*
Y03233*
G37*
G36*
X01426Y03194D02*
X01427D01*
Y03189*
X01427*
Y03185*
X01428*
Y03182*
X01429*
Y03179*
X01429*
Y03176*
X0143*
Y03175*
X01431*
Y03173*
X01431*
Y03171*
X01432*
Y03169*
X01433*
Y03167*
X01433*
Y03166*
X01434*
Y03165*
X01434*
Y03164*
X01435*
Y03162*
X01436*
Y03161*
X01436*
Y0316*
X01437*
Y03159*
X01438*
Y03158*
X01438*
Y03157*
X01439*
Y03155*
X0144*
Y03155*
X0144*
Y03153*
X01441*
Y03152*
X01442*
Y03151*
X01443*
Y0315*
X01443*
Y03149*
X01444*
Y03148*
X01445*
Y03148*
X01445*
Y03147*
X01446*
Y03146*
X01447*
Y03145*
X01447*
Y03144*
X01448*
Y03144*
X01449*
Y03143*
X01449*
Y03143*
X0145*
Y03142*
X0145*
Y03141*
X01451*
Y0314*
X01452*
Y03139*
X01452*
Y03139*
X01453*
Y03138*
X01454*
Y03137*
X01454*
Y03136*
X01456*
Y03134*
X01455*
Y03133*
X01454*
Y03132*
X01454*
Y0313*
X01453*
Y03129*
X01452*
Y03127*
X01452*
Y03126*
X01451*
Y03124*
X0145*
Y03123*
X0145*
Y03121*
X01449*
Y0312*
X01449*
Y03118*
X01448*
Y03116*
X01447*
Y03114*
X01447*
Y03113*
X01446*
Y03111*
X01445*
Y03108*
X01445*
Y03106*
X01444*
Y03105*
X01443*
Y03102*
X01443*
Y031*
X01442*
Y03098*
X01441*
Y03095*
X01441*
Y03092*
X0144*
Y03089*
X0144*
Y03084*
X01438*
Y03084*
X01438*
Y03085*
X01437*
Y03086*
X01436*
Y03087*
X01436*
Y03088*
X01435*
Y03089*
X01434*
Y0309*
X01434*
Y03091*
X01433*
Y03092*
X01433*
Y03093*
X01432*
Y03095*
X01431*
Y03096*
X01431*
Y03097*
X0143*
Y03099*
X01429*
Y031*
X01429*
Y03102*
X01428*
Y03103*
X01427*
Y03105*
X01427*
Y03106*
X01426*
Y03108*
X01426*
Y03109*
X01425*
Y03111*
X01424*
Y03113*
X01424*
Y03115*
X01423*
Y03117*
X01422*
Y03119*
X01422*
Y03121*
X01421*
Y03123*
X0142*
Y03126*
X0142*
Y03129*
X01419*
Y03132*
X01418*
Y03136*
X01418*
Y0314*
X01417*
Y03147*
X01417*
Y03163*
X01417*
Y0317*
X01418*
Y03174*
X01418*
Y03177*
X01419*
Y03181*
X0142*
Y03183*
X0142*
Y03184*
Y03185*
Y03186*
X01421*
Y03188*
X01422*
Y0319*
X01422*
Y03192*
X01423*
Y03194*
X01424*
Y03196*
X01424*
Y03198*
X01425*
Y03199*
X01426*
Y03201*
X01426*
Y03194*
G37*
G36*
X01555Y03262D02*
X01555Y03261D01*
X01556Y03261*
X01556Y03261*
X01558Y0326*
X01559Y0326*
X01559Y03259*
X01559Y03259*
X01561Y03258*
X01561Y03258*
X01564Y03256*
X01564Y03256*
X01564Y03256*
X01564Y03255*
X01567Y03253*
X01568Y03253*
X0157Y03251*
X0157Y03251*
X01571Y03251*
X01571Y0325*
X01571Y0325*
X01571Y0325*
X01574Y03248*
X01574Y03248*
X01574Y03247*
X01575Y03247*
X01575Y03247*
X01575Y03246*
X01576Y03246*
X01576Y03246*
X01576Y03245*
X01577Y03245*
X01577Y03245*
X01577Y03244*
X01578Y03244*
X01578Y03244*
X01578Y03244*
X01578Y03243*
X01579Y03243*
X01579Y03243*
X0158Y03242*
X0158Y03242*
X0158Y03242*
X0158Y03241*
X01581Y03241*
X01581Y03241*
X01581Y0324*
X01582Y0324*
X01582Y0324*
X01582Y03239*
X01583Y03239*
X01583Y03239*
X01583Y03238*
X01584Y03238*
X01584Y03238*
X01584Y03237*
X01585Y03237*
X01585Y03237*
X01585Y03236*
X01587Y03234*
X01587Y03234*
X01587Y03234*
X01588Y03233*
X01588Y03233*
X01588Y03233*
X0159Y0323*
X0159Y0323*
X01592Y03228*
X01592Y03228*
X01593Y03227*
X01593Y03227*
X01593Y03227*
X01594Y03226*
X01594Y03226*
X01594Y03226*
X01596Y03222*
X01596Y03222*
X01598Y0322*
X01598Y0322*
X01598Y03219*
X01598Y03219*
X01599Y03218*
X01599Y03218*
X016Y03216*
X016Y03216*
X01601Y03215*
X01601Y03215*
X01601Y03214*
X01601Y03213*
X01603Y03211*
X01603Y03211*
X01603Y03211*
X01603Y03209*
X01604Y03208*
X01605Y03207*
X01605Y03206*
X01605Y03206*
X01606Y03205*
X01606Y03204*
X01606Y03203*
X01607Y03203*
X01607Y03202*
X01607Y03202*
X01608Y03201*
X01608Y032*
X01608Y03199*
X01608Y03199*
X01609Y03198*
X01609Y03197*
X0161Y03196*
X0161Y03195*
X0161Y03195*
X0161Y03193*
X01611Y03193*
X01611Y03192*
X01611Y03191*
X01612Y0319*
X01612Y03189*
X01612Y03188*
X01612Y03187*
X01613Y03185*
X01613Y03184*
X01614Y03184*
X01614Y03184*
X01614Y03181*
X01614Y03181*
X01615Y03179*
X01615Y03179*
X01615Y03176*
X01616Y03175*
X01616Y03173*
X01616Y03173*
X01616Y03173*
Y03171*
X01617Y03168*
Y03165*
X01617Y03162*
Y03154*
X01618Y03151*
Y0315*
X01617Y03147*
Y03139*
X01617Y03136*
Y03133*
X01616Y0313*
Y03129*
X01616Y03128*
X01616Y03128*
X01616Y03126*
X01615Y03126*
X01615Y03122*
X01615Y03122*
X01614Y0312*
X01614Y0312*
X01614Y03118*
X01614Y03118*
X01613Y03116*
X01613Y03115*
X01613Y03114*
X01612Y03113*
X01612Y03112*
X01612Y03112*
X01611Y0311*
X01611Y0311*
X01611Y03108*
X0161Y03108*
X0161Y03106*
X0161Y03106*
X01609Y03104*
X01609Y03104*
X01609Y03103*
X01608Y03103*
X01608Y03102*
X01608Y03101*
X01608Y03101*
X01607Y031*
X01607Y03099*
X01607Y03098*
X01606Y03098*
X01606Y03097*
X01606Y03096*
X01605Y03096*
X01605Y03094*
X01605Y03094*
X01604Y03093*
X01604Y03092*
X01604Y03092*
X01603Y03091*
X01603Y03091*
X01603Y0309*
X01603Y03089*
X01602Y03089*
X01602Y03089*
X01601Y03087*
X01601Y03086*
X016Y03085*
X016Y03085*
X01599Y03084*
X01599Y03084*
X01599Y03083*
X01599Y03083*
X01598Y03081*
X01597Y0308*
X01597Y0308*
X01597Y0308*
X01596Y03078*
X01596Y03078*
X01595Y03077*
X01595Y03077*
X01594Y03075*
X01593Y03075*
X01593Y03074*
X01593Y03074*
X01591Y03072*
X01591Y03071*
X01589Y03069*
X01589Y03069*
X01588Y03068*
X01588Y03068*
X01588Y03068*
X01587Y03068*
X01586Y03065*
X01586Y03065*
X01585Y03065*
X01585Y03064*
X01585Y03064*
X01584Y03064*
X01584Y03063*
X01584Y03063*
X01583Y03063*
X01583Y03062*
X01583Y03062*
X01582Y03062*
X01582Y03061*
X01582Y03061*
X0158Y03059*
X01578Y03058*
X01578Y03057*
X01577Y03057*
X01577Y03056*
X01576Y03055*
X01576Y03055*
X01575Y03055*
X01575Y03054*
X01575Y03054*
X01574Y03054*
X01574Y03054*
X01574Y03053*
X01571Y03052*
X01571Y03051*
X0157Y0305*
X0157Y0305*
X0157Y0305*
X01569Y03049*
X01569Y03049*
X01569Y03049*
X01566Y03047*
X01566Y03047*
X01566Y03046*
X01565Y03046*
X01563Y03045*
X01563Y03044*
X01563Y03044*
X01563Y03044*
X01561Y03043*
X01561Y03043*
X01559Y03041*
X01559Y03041*
X01558Y03041*
X01558Y03041*
X01556Y0304*
X01556Y0304*
X01555Y03039*
X01554Y03039*
X01552Y03038*
X01552Y03038*
X01552Y03037*
X01551Y03037*
X0155Y03036*
X0155Y03036*
X01549Y03036*
X01549Y03036*
X01548Y03035*
X01547Y03035*
X01546Y03035*
X01546Y03034*
X01545Y03034*
X01545Y03034*
X01544Y03033*
X01543Y03033*
X01543Y03033*
X01542Y03033*
X01541Y03032*
X01541Y03032*
X0154Y03031*
X0154Y03031*
X01532Y03026*
X01531Y03024*
X01524Y03024*
X01524Y03025*
X01526Y03034*
Y03035*
X01526Y03035*
X01526Y03035*
X01526Y03037*
X01526Y03037*
X01527Y03041*
X01527Y03041*
X01528Y03044*
X01528Y03044*
X01528Y03047*
X01528Y03047*
X01529Y03049*
X01529Y0305*
X01529Y03052*
X0153Y03052*
X0153Y03054*
X0153Y03055*
X01531Y03058*
X01531Y03058*
X01531Y0306*
X01531Y0306*
X01532Y03063*
X01532Y03063*
X01532Y03064*
X01533Y03065*
X01533Y03068*
X01533Y03068*
X01534Y0307*
X01534Y03071*
X01535Y03073*
X01535Y03073*
X01535Y03075*
X01535Y03075*
X01536Y03077*
X01536Y03078*
X01536Y0308*
X01537Y0308*
X01537Y03083*
X01537Y03083*
X01538Y03085*
X01538Y03085*
X01538Y03088*
X01539Y03088*
X01539Y0309*
X01539Y03091*
X0154Y03093*
X0154Y03093*
X0154Y03095*
X0154Y03096*
X01541Y03097*
X01541Y03098*
X01542Y031*
X01542Y031*
X01542Y03101*
X01542Y03102*
X01543Y03104*
X01543Y03105*
X01543Y03107*
X01544Y03107*
X01544Y03109*
X01544Y0311*
X01545Y03112*
X01545Y03112*
X01545Y03114*
X01546Y03114*
X01546Y03117*
X01546Y03117*
X01546Y03119*
X01547Y03119*
X01547Y03122*
X01547Y03122*
X01548Y03124*
X01548Y03124*
X01549Y03127*
X01549Y03127*
X01549Y03129*
X01549Y0313*
X0155Y03133*
X0155Y03133*
X0155Y03135*
X01551Y03135*
X01551Y03138*
X01551Y03138*
X01553Y03147*
Y03148*
X01554Y03151*
Y03152*
X01554Y03155*
Y03157*
X01555Y0316*
Y03164*
X01556Y03167*
Y03175*
X01556Y03178*
Y03192*
X01556Y03195*
Y03203*
X01555Y03206*
Y0321*
X01554Y03213*
Y03216*
X01554Y03219*
Y03221*
X01553Y03224*
Y03226*
X01552Y03229*
Y03229*
X01552Y03233*
Y03233*
X01551Y03237*
Y03237*
X01549Y03246*
X01549Y03246*
X01549Y0325*
X01549Y0325*
X01548Y03252*
X01548Y03252*
X01547Y03255*
X01547Y03255*
X01547Y03259*
X01548Y03261*
X01549Y03262*
X01551Y03262*
X01553Y03263*
X01555Y03262*
G37*
G36*
X01491Y03308D02*
X01502D01*
Y03307*
X01507*
Y03307*
X01512*
Y03306*
X01516*
Y03306*
X01519*
Y03305*
X01521*
Y03304*
X01525*
Y03304*
X01527*
Y03303*
X01529*
Y03302*
X01531*
Y03302*
X01534*
Y03301*
X01535*
Y033*
X01537*
Y033*
X01539*
Y03299*
X01541*
Y03299*
X01542*
Y03298*
X01544*
Y03297*
X01546*
Y03297*
X01548*
Y03296*
X0155*
Y03295*
X01551*
Y03295*
X01552*
Y03294*
X01553*
Y03293*
X01555*
Y03293*
X01557*
Y03292*
X01558*
Y03291*
X01559*
Y03291*
X0156*
Y0329*
X01562*
Y0329*
X01562*
Y03289*
X01564*
Y03288*
X01565*
Y03288*
X01566*
Y03287*
X01567*
Y03286*
X01568*
Y03286*
X01569*
Y03285*
X0157*
Y03284*
X01571*
Y03284*
X01573*
Y03283*
X01573*
Y03283*
X01574*
Y03282*
X01575*
Y03281*
X01576*
Y03281*
X01577*
Y0328*
X01578*
Y03279*
X01579*
Y03279*
X0158*
Y03278*
X01581*
Y03277*
X01581*
Y03277*
X01582*
Y03276*
X01583*
Y03276*
X01584*
Y03275*
X01585*
Y03274*
X01586*
Y03274*
X01587*
Y03273*
X01587*
Y03272*
X01588*
Y03272*
X01589*
Y03271*
X0159*
Y0327*
X0159*
Y0327*
X01591*
Y03269*
X01592*
Y03268*
X01592*
Y03268*
X01594*
Y03267*
X01594*
Y03267*
X01595*
Y03266*
X01596*
Y03265*
X01596*
Y03265*
X01597*
Y03264*
X01597*
Y03263*
X01598*
Y03263*
X01599*
Y03262*
X01599*
Y03261*
X016*
Y03261*
X01601*
Y0326*
X01601*
Y0326*
X01602*
Y03259*
X01603*
Y03258*
X01603*
Y03258*
X01604*
Y03257*
X01604*
Y03256*
X01605*
Y03255*
X01606*
Y03254*
X01606*
Y03254*
X01607*
Y03253*
X01608*
Y03253*
X01608*
Y03252*
X01609*
Y03251*
X0161*
Y0325*
X0161*
Y03249*
X01611*
Y03249*
X01612*
Y03248*
X01612*
Y03247*
X01613*
Y03246*
X01613*
Y03245*
X01614*
Y03244*
X01615*
Y03244*
X01615*
Y03243*
X01616*
Y03242*
X01617*
Y03241*
X01617*
Y0324*
X01618*
Y03239*
X01619*
Y03238*
X01619*
Y03237*
X0162*
Y03237*
X0162*
Y03235*
X01621*
Y03234*
X01622*
Y03233*
X01622*
Y03232*
X01623*
Y03231*
X01624*
Y0323*
X01624*
Y03229*
X01625*
Y03228*
X01626*
Y03226*
X01626*
Y03226*
X01627*
Y03224*
X01627*
Y03223*
X01628*
Y03222*
X01629*
Y03221*
X01629*
Y03219*
X0163*
Y03218*
X01631*
Y03217*
X01631*
Y03215*
X01632*
Y03214*
X01633*
Y03212*
X01633*
Y03211*
X01634*
Y03209*
X01635*
Y03208*
X01635*
Y03206*
X01636*
Y03205*
X01636*
Y03202*
X01637*
Y03201*
X01638*
Y03199*
X01638*
Y03197*
X01639*
Y03195*
X0164*
Y03192*
X0164*
Y0319*
X01641*
Y03188*
X01642*
Y03185*
X01642*
Y03182*
X01643*
Y03178*
X01643*
Y03175*
X01644*
Y03171*
X01645*
Y03164*
X01645*
Y03137*
X01645*
Y0313*
X01644*
Y03127*
X01643*
Y03123*
X01643*
Y0312*
X01642*
Y03116*
X01642*
Y03113*
X01641*
Y03111*
X0164*
Y03109*
X0164*
Y03106*
X01639*
Y03104*
X01638*
Y03102*
X01638*
Y031*
X01637*
Y03098*
X01636*
Y03097*
X01636*
Y03095*
X01635*
Y03093*
X01635*
Y03091*
X01634*
Y0309*
X01633*
Y03089*
X01633*
Y03087*
X01632*
Y03086*
X01631*
Y03084*
X01631*
Y03083*
X0163*
Y03082*
X01629*
Y03081*
X01629*
Y03079*
X01628*
Y03078*
X01627*
Y03077*
X01627*
Y03075*
X01626*
Y03074*
X01626*
Y03074*
X01625*
Y03072*
X01624*
Y03071*
X01624*
Y0307*
X01623*
Y03068*
X01622*
Y03068*
X01622*
Y03067*
X01621*
Y03066*
X0162*
Y03065*
X0162*
Y03064*
X01619*
Y03063*
X01619*
Y03062*
X01618*
Y03061*
X01617*
Y0306*
X01617*
Y03059*
X01616*
Y03058*
X01615*
Y03058*
X01615*
Y03057*
X01614*
Y03056*
X01613*
Y03054*
X01613*
Y03054*
X01612*
Y03053*
X01612*
Y03052*
X01611*
Y03052*
X0161*
Y03051*
X0161*
Y0305*
X01609*
Y03049*
X01608*
Y03049*
X01608*
Y03048*
X01607*
Y03047*
X01606*
Y03046*
X01606*
Y03045*
X01605*
Y03045*
X01604*
Y03044*
X01604*
Y03044*
X01603*
Y03043*
X01603*
Y03042*
X01602*
Y03042*
X01601*
Y03041*
X01601*
Y0304*
X016*
Y0304*
X01599*
Y03039*
X01599*
Y03038*
X01598*
Y03038*
X01597*
Y03037*
X01597*
Y03036*
X01596*
Y03036*
X01596*
Y03035*
X01595*
Y03035*
X01594*
Y03034*
X01594*
Y03033*
X01593*
Y03033*
X01592*
Y03032*
X01591*
Y03031*
X0159*
Y03031*
X0159*
Y0303*
X01589*
Y03029*
X01588*
Y03029*
X01587*
Y03028*
X01587*
Y03028*
X01586*
Y03027*
X01585*
Y03026*
X01584*
Y03026*
X01583*
Y03025*
X01583*
Y03024*
X01582*
Y03024*
X01581*
Y03023*
X0158*
Y03022*
X01579*
Y03022*
X01578*
Y03021*
X01578*
Y0302*
X01576*
Y0302*
X01576*
Y03019*
X01574*
Y03019*
X01573*
Y03018*
X01573*
Y03017*
X01571*
Y03017*
X01571*
Y03016*
X01569*
Y03015*
X01569*
Y03015*
X01567*
Y03014*
X01566*
Y03013*
X01565*
Y03013*
X01564*
Y03012*
X01563*
Y03012*
X01562*
Y03011*
X0156*
Y0301*
X01559*
Y0301*
X01558*
Y03009*
X01557*
Y03008*
X01555*
Y03008*
X01554*
Y03007*
X01553*
Y03006*
X01551*
Y03006*
X0155*
Y03007*
X0155*
Y03008*
X01549*
Y03009*
X0155*
Y0301*
X01551*
Y0301*
X01553*
Y03011*
X01554*
Y03012*
X01555*
Y03012*
X01557*
Y03013*
X01558*
Y03013*
X01559*
Y03014*
X0156*
Y03015*
X01562*
Y03015*
X01563*
Y03016*
X01564*
Y03017*
X01565*
Y03017*
X01566*
Y03018*
X01567*
Y03019*
X01568*
Y03019*
X01569*
Y0302*
X0157*
Y0302*
X01571*
Y03021*
X01572*
Y03022*
X01573*
Y03022*
X01574*
Y03023*
X01575*
Y03024*
X01576*
Y03024*
X01577*
Y03025*
X01578*
Y03026*
X01579*
Y03026*
X0158*
Y03027*
X0158*
Y03028*
X01581*
Y03028*
X01582*
Y03029*
X01583*
Y03029*
X01583*
Y0303*
X01585*
Y03031*
X01585*
Y03031*
X01586*
Y03032*
X01587*
Y03033*
X01587*
Y03033*
X01588*
Y03035*
X0159*
Y03035*
X0159*
Y03036*
X01591*
Y03036*
X01592*
Y03037*
X01592*
Y03038*
X01593*
Y03038*
X01594*
Y0304*
X01596*
Y03041*
X01597*
Y03042*
X01597*
Y03042*
X01598*
Y03043*
X01599*
Y03044*
X01599*
Y03045*
X016*
Y03045*
X01601*
Y03046*
X01601*
Y03047*
X01602*
Y03047*
X01603*
Y03048*
X01603*
Y03049*
X01604*
Y03049*
X01604*
Y03051*
X01605*
Y03051*
X01606*
Y03052*
X01606*
Y03052*
X01607*
Y03053*
X01608*
Y03054*
X01608*
Y03055*
X01609*
Y03056*
X0161*
Y03057*
X0161*
Y03058*
X01611*
Y03058*
X01612*
Y03059*
X01612*
Y0306*
X01613*
Y03061*
X01613*
Y03061*
X01614*
Y03063*
X01615*
Y03063*
X01615*
Y03065*
X01616*
Y03065*
X01617*
Y03067*
X01617*
Y03067*
X01618*
Y03068*
X01619*
Y03069*
X01619*
Y0307*
X0162*
Y03072*
X0162*
Y03072*
X01621*
Y03074*
X01622*
Y03075*
X01622*
Y03076*
X01623*
Y03077*
X01624*
Y03078*
X01624*
Y03079*
X01625*
Y03081*
X01626*
Y03082*
X01626*
Y03083*
X01627*
Y03084*
X01627*
Y03086*
X01628*
Y03088*
X01629*
Y03089*
X01629*
Y03091*
X0163*
Y03092*
X01631*
Y03093*
X01631*
Y03095*
X01632*
Y03097*
X01633*
Y03098*
X01633*
Y031*
X01634*
Y03102*
X01635*
Y03104*
X01635*
Y03106*
X01636*
Y03109*
X01636*
Y03111*
X01637*
Y03113*
X01638*
Y03116*
X01638*
Y03119*
X01639*
Y03122*
X0164*
Y03125*
X0164*
Y0313*
X01641*
Y03136*
X01642*
Y03147*
X01642*
Y03154*
X01642*
Y03165*
X01641*
Y03171*
X0164*
Y03176*
X0164*
Y03179*
X01639*
Y03182*
X01638*
Y03185*
X01638*
Y03188*
X01637*
Y03191*
X01636*
Y03193*
X01636*
Y03194*
X01635*
Y03197*
X01635*
Y03199*
X01634*
Y03201*
X01633*
Y03203*
X01633*
Y03205*
X01632*
Y03206*
X01631*
Y03208*
X01631*
Y03209*
X0163*
Y03211*
X01629*
Y03212*
X01629*
Y03214*
X01628*
Y03215*
X01627*
Y03216*
X01627*
Y03218*
X01626*
Y03219*
X01626*
Y03221*
X01625*
Y03222*
X01624*
Y03222*
X01624*
Y03224*
X01623*
Y03225*
X01622*
Y03226*
X01622*
Y03227*
X01621*
Y03228*
X0162*
Y03229*
X0162*
Y03231*
X01619*
Y03231*
X01619*
Y03233*
X01618*
Y03234*
X01617*
Y03235*
X01617*
Y03235*
X01616*
Y03237*
X01615*
Y03238*
X01615*
Y03238*
X01614*
Y03239*
X01613*
Y0324*
X01613*
Y03241*
X01612*
Y03242*
X01612*
Y03243*
X01611*
Y03244*
X0161*
Y03244*
X0161*
Y03245*
X01609*
Y03246*
X01608*
Y03247*
X01608*
Y03247*
X01607*
Y03249*
X01606*
Y03249*
X01606*
Y0325*
X01605*
Y03251*
X01604*
Y03251*
X01604*
Y03253*
X01603*
Y03253*
X01603*
Y03254*
X01602*
Y03254*
X01601*
Y03255*
X01601*
Y03256*
X016*
Y03256*
X01599*
Y03257*
X01599*
Y03258*
X01598*
Y03258*
X01597*
Y03259*
X01597*
Y0326*
X01596*
Y0326*
X01596*
Y03261*
X01595*
Y03261*
X01594*
Y03262*
X01594*
Y03263*
X01593*
Y03263*
X01592*
Y03264*
X01592*
Y03265*
X01591*
Y03265*
X0159*
Y03266*
X0159*
Y03267*
X01588*
Y03267*
X01588*
Y03268*
X01587*
Y03268*
X01587*
Y03269*
X01586*
Y0327*
X01585*
Y03271*
X01583*
Y03272*
X01583*
Y03272*
X01581*
Y03273*
X01581*
Y03274*
X0158*
Y03274*
X0158*
Y03275*
X01578*
Y03276*
X01578*
Y03276*
X01576*
Y03277*
X01576*
Y03277*
X01574*
Y03278*
X01574*
Y03279*
X01573*
Y03279*
X01572*
Y0328*
X01571*
Y03281*
X0157*
Y03281*
X01569*
Y03282*
X01567*
Y03283*
X01567*
Y03283*
X01565*
Y03284*
X01564*
Y03284*
X01564*
Y03285*
X01562*
Y03286*
X01561*
Y03286*
X0156*
Y03287*
X01559*
Y03288*
X01558*
Y03288*
X01557*
Y03289*
X01555*
Y0329*
X01554*
Y0329*
X01552*
Y03291*
X01551*
Y03291*
X0155*
Y03292*
X01548*
Y03293*
X01546*
Y03293*
X01545*
Y03294*
X01543*
Y03295*
X01542*
Y03295*
X0154*
Y03296*
X01538*
Y03297*
X01536*
Y03297*
X01534*
Y03298*
X01532*
Y03299*
X0153*
Y03299*
X01528*
Y033*
X01525*
Y033*
X01522*
Y03301*
X01519*
Y03302*
X01516*
Y03302*
X01513*
Y03303*
X01509*
Y03304*
X01504*
Y03304*
X01496*
Y03305*
X01476*
Y03304*
X01469*
Y03304*
X01465*
Y03303*
X0146*
Y03302*
X01456*
Y03302*
X01453*
Y03301*
X0145*
Y033*
X01448*
Y033*
X01445*
Y03299*
X01443*
Y03299*
X01441*
Y03298*
X01439*
Y03297*
X01437*
Y03297*
X01435*
Y03296*
X01433*
Y03295*
X01431*
Y03295*
X0143*
Y03294*
X01428*
Y03293*
X01427*
Y03293*
X01425*
Y03292*
X01424*
Y03291*
X01422*
Y03291*
X01421*
Y0329*
X0142*
Y0329*
X01418*
Y03289*
X01417*
Y03288*
X01415*
Y03288*
X01414*
Y03287*
X01413*
Y03286*
X01412*
Y03286*
X01411*
Y03285*
X0141*
Y03284*
X01408*
Y03284*
X01407*
Y03283*
X01406*
Y03283*
X01405*
Y03282*
X01404*
Y03281*
X01403*
Y03281*
X01402*
Y0328*
X01401*
Y03279*
X014*
Y03279*
X01399*
Y03278*
X01398*
Y03277*
X01397*
Y03277*
X01397*
Y03276*
X01395*
Y03276*
X01395*
Y03275*
X01394*
Y03274*
X01393*
Y03274*
X01392*
Y03273*
X01391*
Y03272*
X0139*
Y03272*
X0139*
Y03271*
X01389*
Y0327*
X01388*
Y0327*
X01387*
Y03269*
X01387*
Y03268*
X01386*
Y03268*
X01385*
Y03267*
X01384*
Y03267*
X01383*
Y03266*
X01383*
Y03265*
X01382*
Y03265*
X01381*
Y03264*
X01381*
Y03263*
X0138*
Y03263*
X01379*
Y03262*
X01378*
Y03261*
X01378*
Y03261*
X01377*
Y0326*
X01376*
Y03259*
X01376*
Y03258*
X01374*
Y03257*
X01374*
Y03256*
X01372*
Y03255*
X01372*
Y03254*
X01371*
Y03254*
X01371*
Y03253*
X0137*
Y03253*
X01369*
Y03252*
X01369*
Y03251*
X01368*
Y0325*
X01367*
Y03249*
X01367*
Y03249*
X01366*
Y03248*
X01365*
Y03247*
X01365*
Y03246*
X01364*
Y03245*
X01364*
Y03245*
X01363*
Y03244*
X01362*
Y03243*
X01362*
Y03242*
X01361*
Y03241*
X0136*
Y0324*
X0136*
Y0324*
X01359*
Y03238*
X01358*
Y03238*
X01358*
Y03237*
X01357*
Y03236*
X01356*
Y03235*
X01356*
Y03234*
X01355*
Y03233*
X01355*
Y03231*
X01354*
Y03231*
X01353*
Y03229*
X01353*
Y03229*
X01352*
Y03228*
X01351*
Y03226*
X01351*
Y03225*
X0135*
Y03224*
X01349*
Y03223*
X01349*
Y03222*
X01348*
Y03221*
X01348*
Y03219*
X01347*
Y03218*
X01346*
Y03217*
X01346*
Y03215*
X01345*
Y03214*
X01344*
Y03212*
X01344*
Y03211*
X01343*
Y0321*
X01342*
Y03208*
X01342*
Y03206*
X01341*
Y03205*
X01341*
Y03203*
X0134*
Y03201*
X01339*
Y03199*
X01339*
Y03197*
X01338*
Y03196*
X01337*
Y03193*
X01337*
Y03191*
X01336*
Y03188*
X01335*
Y03185*
X01335*
Y03183*
X01334*
Y0318*
X01333*
Y03176*
X01333*
Y03171*
X01332*
Y03167*
X01332*
Y03159*
X01331*
Y03142*
X01332*
Y03134*
X01332*
Y03129*
X01333*
Y03125*
X01333*
Y03121*
X01334*
Y03118*
X01335*
Y03115*
X01335*
Y03113*
X01336*
Y0311*
X01337*
Y03107*
X01337*
Y03105*
X01338*
Y03104*
X01339*
Y03102*
X01339*
Y031*
X0134*
Y03098*
X01341*
Y03096*
X01341*
Y03095*
X01342*
Y03093*
X01342*
Y03091*
X01343*
Y0309*
X01344*
Y03088*
X01344*
Y03087*
X01345*
Y03086*
X01346*
Y03084*
X01346*
Y03083*
X01347*
Y03082*
X01348*
Y03081*
X01348*
Y03079*
X01349*
Y03078*
X01349*
Y03077*
X0135*
Y03075*
X01351*
Y03075*
X01351*
Y03074*
X01352*
Y03072*
X01353*
Y03071*
X01353*
Y0307*
X01354*
Y03069*
X01355*
Y03068*
X01355*
Y03067*
X01356*
Y03066*
X01356*
Y03065*
X01357*
Y03064*
X01358*
Y03063*
X01358*
Y03062*
X01359*
Y03061*
X0136*
Y03061*
X0136*
Y03059*
X01361*
Y03059*
X01362*
Y03058*
X01362*
Y03057*
X01363*
Y03056*
X01364*
Y03056*
X01364*
Y03055*
X01365*
Y03054*
X01365*
Y03053*
X01366*
Y03052*
X01367*
Y03051*
X01367*
Y03051*
X01368*
Y0305*
X01369*
Y03049*
X01369*
Y03049*
X0137*
Y03048*
X01371*
Y03047*
X01371*
Y03046*
X01372*
Y03045*
X01372*
Y03045*
X01374*
Y03044*
X01374*
Y03043*
X01375*
Y03042*
X01376*
Y03042*
X01376*
Y03041*
X01377*
Y0304*
X01378*
Y0304*
X01378*
Y03039*
X01379*
Y03038*
X01379*
Y03038*
X0138*
Y03037*
X01381*
Y03036*
X01382*
Y03036*
X01383*
Y03035*
X01383*
Y03035*
X01384*
Y03034*
X01385*
Y03033*
X01385*
Y03033*
X01386*
Y03032*
X01387*
Y03031*
X01388*
Y03031*
X01388*
Y0303*
X01389*
Y03029*
X0139*
Y03029*
X01391*
Y03028*
X01392*
Y03028*
X01393*
Y03027*
X01394*
Y03026*
X01394*
Y03026*
X01395*
Y03025*
X01396*
Y03024*
X01397*
Y03024*
X01398*
Y03023*
X01399*
Y03022*
X014*
Y03022*
X01401*
Y03021*
X01402*
Y0302*
X01403*
Y0302*
X01404*
Y03019*
X01405*
Y03019*
X01406*
Y03018*
X01407*
Y03017*
X01408*
Y03017*
X01409*
Y03016*
X0141*
Y03015*
X01411*
Y03015*
X01413*
Y03014*
X01414*
Y03013*
X01415*
Y03013*
X01417*
Y03012*
X01418*
Y03012*
X01418*
Y03011*
X0142*
Y03009*
X0142*
Y03008*
X01418*
Y03008*
X01416*
Y03009*
X01415*
Y0301*
X01414*
Y0301*
X01413*
Y03011*
X01411*
Y03012*
X0141*
Y03012*
X01409*
Y03013*
X01408*
Y03013*
X01407*
Y03014*
X01406*
Y03015*
X01404*
Y03015*
X01404*
Y03016*
X01403*
Y03017*
X01401*
Y03017*
X01401*
Y03018*
X01399*
Y03019*
X01399*
Y03019*
X01397*
Y0302*
X01397*
Y0302*
X01395*
Y03021*
X01395*
Y03022*
X01394*
Y03022*
X01393*
Y03023*
X01392*
Y03024*
X01391*
Y03024*
X0139*
Y03025*
X01389*
Y03026*
X01388*
Y03026*
X01388*
Y03027*
X01387*
Y03028*
X01386*
Y03028*
X01385*
Y03029*
X01385*
Y03029*
X01384*
Y0303*
X01383*
Y03031*
X01382*
Y03032*
X01381*
Y03033*
X0138*
Y03033*
X01379*
Y03034*
X01379*
Y03035*
X01378*
Y03035*
X01378*
Y03036*
X01377*
Y03036*
X01376*
Y03037*
X01376*
Y03038*
X01375*
Y03038*
X01374*
Y0304*
X01373*
Y0304*
X01372*
Y03041*
X01372*
Y03042*
X01371*
Y03042*
X01371*
Y03043*
X0137*
Y03044*
X01369*
Y03044*
X01369*
Y03045*
X01368*
Y03045*
X01367*
Y03046*
X01367*
Y03047*
X01366*
Y03047*
X01365*
Y03049*
X01365*
Y03049*
X01364*
Y0305*
X01364*
Y03051*
X01363*
Y03051*
X01362*
Y03052*
X01362*
Y03053*
X01361*
Y03054*
X0136*
Y03055*
X0136*
Y03056*
X01359*
Y03056*
X01358*
Y03057*
X01358*
Y03058*
X01357*
Y03059*
X01356*
Y0306*
X01356*
Y03061*
X01355*
Y03061*
X01355*
Y03063*
X01354*
Y03063*
X01353*
Y03065*
X01353*
Y03065*
X01352*
Y03067*
X01351*
Y03068*
X01351*
Y03068*
X0135*
Y0307*
X01349*
Y0307*
X01349*
Y03072*
X01348*
Y03073*
X01348*
Y03074*
X01347*
Y03075*
X01346*
Y03076*
X01346*
Y03077*
X01345*
Y03079*
X01344*
Y0308*
X01344*
Y03081*
X01343*
Y03082*
X01342*
Y03084*
X01342*
Y03085*
X01341*
Y03087*
X01341*
Y03088*
X0134*
Y0309*
X01339*
Y03091*
X01339*
Y03093*
X01338*
Y03095*
X01337*
Y03096*
X01337*
Y03098*
X01336*
Y031*
X01335*
Y03102*
X01335*
Y03104*
X01334*
Y03106*
X01333*
Y03108*
X01333*
Y03111*
X01332*
Y03113*
X01332*
Y03116*
X01331*
Y03119*
X0133*
Y03121*
X0133*
Y03125*
X01329*
Y0313*
X01328*
Y03137*
X01328*
Y03164*
X01328*
Y03171*
X01329*
Y03176*
X0133*
Y03179*
X0133*
Y03182*
X01331*
Y03185*
X01332*
Y03188*
X01332*
Y03191*
X01333*
Y03193*
X01333*
Y03195*
X01334*
Y03197*
X01335*
Y03199*
X01335*
Y03201*
X01336*
Y03203*
X01337*
Y03205*
X01337*
Y03206*
X01338*
Y03208*
X01339*
Y0321*
X01339*
Y03211*
X0134*
Y03212*
X01341*
Y03214*
X01341*
Y03215*
X01342*
Y03217*
X01342*
Y03219*
X01343*
Y0322*
X01344*
Y03221*
X01344*
Y03222*
X01345*
Y03224*
X01346*
Y03224*
X01346*
Y03226*
X01347*
Y03227*
X01348*
Y03228*
X01348*
Y03229*
X01349*
Y0323*
X01349*
Y03231*
X0135*
Y03232*
X01351*
Y03233*
X01351*
Y03234*
X01352*
Y03235*
X01353*
Y03237*
X01353*
Y03237*
X01354*
Y03238*
X01355*
Y03239*
X01355*
Y0324*
X01356*
Y03241*
X01356*
Y03242*
X01357*
Y03243*
X01358*
Y03244*
X01358*
Y03245*
X01359*
Y03245*
X0136*
Y03246*
X0136*
Y03247*
X01361*
Y03248*
X01362*
Y03249*
X01362*
Y03249*
X01363*
Y0325*
X01364*
Y03251*
X01364*
Y03252*
X01365*
Y03253*
X01365*
Y03253*
X01366*
Y03254*
X01367*
Y03254*
X01367*
Y03256*
X01368*
Y03256*
X01369*
Y03257*
X01369*
Y03258*
X0137*
Y03258*
X01371*
Y03259*
X01371*
Y0326*
X01372*
Y0326*
X01372*
Y03261*
X01373*
Y03261*
X01374*
Y03262*
X01374*
Y03263*
X01375*
Y03263*
X01376*
Y03264*
X01376*
Y03265*
X01377*
Y03265*
X01378*
Y03266*
X01378*
Y03267*
X01379*
Y03267*
X01379*
Y03268*
X01381*
Y03268*
X01381*
Y03269*
X01382*
Y0327*
X01383*
Y0327*
X01383*
Y03271*
X01384*
Y03272*
X01385*
Y03272*
X01386*
Y03273*
X01387*
Y03274*
X01387*
Y03274*
X01388*
Y03275*
X01389*
Y03276*
X0139*
Y03276*
X0139*
Y03277*
X01392*
Y03277*
X01392*
Y03278*
X01394*
Y03279*
X01394*
Y03279*
X01395*
Y0328*
X01396*
Y03281*
X01397*
Y03281*
X01398*
Y03282*
X01399*
Y03283*
X014*
Y03283*
X01401*
Y03284*
X01402*
Y03284*
X01403*
Y03285*
X01404*
Y03286*
X01405*
Y03286*
X01406*
Y03287*
X01407*
Y03288*
X01408*
Y03288*
X0141*
Y03289*
X0141*
Y0329*
X01411*
Y0329*
X01413*
Y03291*
X01414*
Y03291*
X01415*
Y03292*
X01417*
Y03293*
X01418*
Y03293*
X01419*
Y03294*
X01421*
Y03295*
X01422*
Y03295*
X01424*
Y03296*
X01426*
Y03297*
X01427*
Y03297*
X01429*
Y03298*
X0143*
Y03299*
X01432*
Y03299*
X01434*
Y033*
X01436*
Y033*
X01437*
Y03301*
X01439*
Y03302*
X01441*
Y03302*
X01444*
Y03303*
X01446*
Y03304*
X01449*
Y03304*
X01452*
Y03305*
X01454*
Y03306*
X01457*
Y03306*
X01461*
Y03307*
X01465*
Y03307*
X01471*
Y03308*
X01481*
Y03309*
X01491*
Y03308*
G37*
G36*
X01521Y0326D02*
X01522D01*
Y03257*
X01523*
Y03254*
X01523*
Y03252*
X01524*
Y03249*
X01525*
Y03246*
X01525*
Y03243*
X01526*
Y0324*
X01526*
Y03237*
X01527*
Y03233*
X01528*
Y03229*
X01528*
Y03226*
X01529*
Y03221*
X0153*
Y03216*
X0153*
Y0321*
X01531*
Y03203*
X01532*
Y03192*
X01532*
Y03178*
X01532*
Y03167*
X01531*
Y0316*
X0153*
Y03155*
X0153*
Y03151*
X01529*
Y03147*
X01528*
Y03144*
X01528*
Y03142*
X01527*
Y03139*
X01526*
Y03136*
X01526*
Y03134*
X01525*
Y03131*
X01525*
Y03129*
X01524*
Y03127*
X01523*
Y03123*
X01523*
Y03121*
X01522*
Y03119*
X01521*
Y03116*
X01521*
Y03114*
X0152*
Y03111*
X01519*
Y03109*
X01519*
Y03107*
X01518*
Y03105*
X01518*
Y03102*
X01517*
Y031*
X01516*
Y03097*
X01516*
Y03095*
X01515*
Y03092*
X01514*
Y0309*
X01514*
Y03087*
X01513*
Y03084*
X01512*
Y03082*
X01512*
Y0308*
X01511*
Y03077*
X01511*
Y03074*
X0151*
Y03072*
X01509*
Y0307*
X01509*
Y03067*
X01508*
Y03064*
X01507*
Y03061*
X01507*
Y03059*
X01506*
Y03056*
X01505*
Y03053*
X01505*
Y0305*
X01504*
Y03047*
X01503*
Y03044*
X01503*
Y03041*
X01502*
Y03038*
X01502*
Y03034*
X01501*
Y03031*
X015*
Y03028*
X015*
Y03024*
X01499*
Y03019*
X01498*
Y03014*
X01498*
Y0301*
X01497*
Y03005*
X01496*
Y02997*
X01496*
Y02985*
X01495*
Y02978*
X01496*
Y02968*
X01496*
Y02962*
X01497*
Y02962*
Y02958*
X01498*
Y02956*
X01498*
Y02953*
X01499*
Y02951*
X015*
Y0295*
X01499*
Y0295*
X01498*
Y02951*
X01498*
Y02952*
X01497*
Y02953*
X01496*
Y02954*
X01496*
Y02955*
X01495*
Y02956*
X01495*
Y02957*
X01494*
Y02958*
X01493*
Y02959*
X01493*
Y0296*
X01492*
Y02961*
X01491*
Y02962*
X01491*
Y02963*
X0149*
Y02964*
X01489*
Y02965*
X01489*
Y02966*
X01488*
Y02967*
X01488*
Y02968*
X01487*
Y02969*
X01486*
Y02971*
X01486*
Y02972*
X01485*
Y02973*
X01484*
Y02974*
X01484*
Y02976*
X01483*
Y02976*
X01482*
Y02978*
X01482*
Y0298*
X01481*
Y02981*
X0148*
Y02982*
X0148*
Y02983*
X01479*
Y02985*
X01479*
Y02986*
X01478*
Y02988*
X01477*
Y02989*
X01477*
Y02991*
X01476*
Y02992*
X01475*
Y02994*
X01475*
Y02996*
X01474*
Y02997*
X01473*
Y02999*
X01473*
Y03001*
X01472*
Y03003*
X01472*
Y03005*
X01471*
Y03007*
X0147*
Y03009*
X0147*
Y03012*
X01469*
Y03014*
X01468*
Y03017*
X01468*
Y03019*
X01467*
Y03022*
X01466*
Y03025*
X01466*
Y03029*
X01465*
Y03033*
X01465*
Y03037*
X01464*
Y03045*
X01463*
Y03065*
X01464*
Y03072*
X01465*
Y03077*
X01465*
Y03081*
X01466*
Y03084*
X01466*
Y03087*
X01467*
Y0309*
X01468*
Y03093*
X01468*
Y03096*
X01469*
Y03098*
X0147*
Y03101*
X0147*
Y03104*
X01471*
Y03105*
X01472*
Y03107*
X01472*
Y0311*
X01473*
Y03112*
X01473*
Y03114*
X01474*
Y03116*
X01475*
Y03118*
X01475*
Y0312*
X01476*
Y03122*
X01477*
Y03124*
X01477*
Y03125*
X01478*
Y03127*
X01479*
Y03129*
X01479*
Y0313*
X0148*
Y03132*
X0148*
Y03134*
X01481*
Y03136*
X01482*
Y03137*
X01482*
Y03139*
X01483*
Y0314*
X01484*
Y03141*
X01484*
Y03143*
X01485*
Y03144*
X01486*
Y03146*
X01486*
Y03147*
X01487*
Y03149*
X01488*
Y0315*
X01488*
Y03152*
X01489*
Y03153*
X01489*
Y03155*
X0149*
Y03156*
X01491*
Y03157*
X01491*
Y03159*
X01492*
Y0316*
X01493*
Y03162*
X01493*
Y03163*
X01494*
Y03165*
X01495*
Y03166*
X01495*
Y03168*
X01496*
Y03169*
X01496*
Y03171*
X01497*
Y03173*
X01498*
Y03174*
X01498*
Y03175*
X01499*
Y03177*
X015*
Y03178*
X015*
Y0318*
X01501*
Y03182*
X01502*
Y03183*
X01502*
Y03185*
X01503*
Y03187*
X01503*
Y03188*
X01504*
Y0319*
X01505*
Y03192*
X01505*
Y03194*
X01506*
Y03196*
X01507*
Y03198*
X01507*
Y03199*
X01508*
Y03201*
X01509*
Y03203*
X01509*
Y03205*
X0151*
Y03208*
X01511*
Y0321*
X01511*
Y03212*
X01512*
Y03215*
X01512*
Y03217*
X01513*
Y0322*
X01514*
Y03222*
X01514*
Y03225*
X01515*
Y03228*
X01516*
Y03231*
X01516*
Y03234*
X01517*
Y03238*
X01518*
Y03241*
X01518*
Y03244*
X01519*
Y03249*
X01519*
Y03253*
X0152*
Y03258*
X01521*
Y03261*
X01521*
Y0326*
G37*
G36*
X0143Y02928D02*
X01431D01*
Y02927*
X01432*
Y02924*
X01431*
Y02923*
X01431*
Y02922*
X01429*
Y02921*
X01426*
Y02922*
X01425*
Y02923*
Y02923*
X01424*
Y02928*
X01425*
Y02928*
X01426*
Y02929*
X0143*
Y02928*
G37*
G36*
X01358Y02914D02*
X0136D01*
Y02913*
X01362*
Y02912*
X01364*
Y02912*
X01364*
Y02911*
X01365*
Y02911*
X01366*
Y0291*
X01367*
Y02909*
X01368*
Y02909*
X01369*
Y02908*
X01369*
Y02907*
X0137*
Y02907*
X01371*
Y02906*
X01371*
Y02905*
X01372*
Y02904*
X01372*
Y02903*
X01373*
Y02902*
X01374*
Y029*
X01374*
Y02899*
X01375*
Y02897*
X01376*
Y02893*
X01376*
Y02883*
X01376*
Y0288*
X01375*
Y02877*
X01374*
Y02876*
X01374*
Y02875*
X01373*
Y02873*
X01372*
Y02872*
X01372*
Y02872*
X01371*
Y02871*
X01371*
Y0287*
X0137*
Y02869*
X01369*
Y02868*
X01369*
Y02868*
X01368*
Y02867*
X01367*
Y02866*
X01367*
Y02866*
X01365*
Y02865*
X01365*
Y02865*
X01364*
Y02864*
X01362*
Y02863*
X0136*
Y02863*
X01358*
Y02862*
X01354*
Y02861*
X01353*
Y02862*
X01348*
Y02863*
X01346*
Y02863*
X01345*
Y02864*
X01344*
Y02865*
X01343*
Y02865*
X01342*
Y02866*
X01341*
Y02866*
X0134*
Y02867*
X01339*
Y02868*
X01339*
Y02868*
X01338*
Y02869*
X01337*
Y0287*
X01337*
Y0287*
X01336*
Y02871*
X01335*
Y02864*
X01333*
Y02863*
X01333*
Y02863*
X01331*
Y02863*
X0133*
Y02864*
X0133*
Y02912*
X0133*
Y02912*
X01331*
Y02913*
X01333*
Y02912*
X01334*
Y02912*
X01335*
Y02905*
X01336*
Y02906*
X01337*
Y02907*
X01338*
Y02908*
X01339*
Y02909*
X01339*
Y02909*
X0134*
Y0291*
X01341*
Y02911*
X01342*
Y02911*
X01342*
Y02912*
X01344*
Y02912*
X01345*
Y02913*
X01347*
Y02914*
X01349*
Y02914*
X01358*
Y02914*
G37*
G36*
X01485Y02935D02*
X01486D01*
Y02934*
X01487*
Y02865*
X01486*
Y02863*
X01485*
Y02863*
X01484*
Y02863*
X01482*
Y02864*
X01482*
Y02865*
X01481*
Y02898*
X0148*
Y02899*
X0148*
Y029*
X01479*
Y02902*
X01479*
Y02902*
X01478*
Y02903*
X01477*
Y02904*
X01477*
Y02904*
X01476*
Y02905*
X01475*
Y02905*
X01475*
Y02906*
X01473*
Y02907*
X01472*
Y02907*
X01471*
Y02908*
X01468*
Y02909*
X01461*
Y02908*
X01459*
Y02907*
X01458*
Y02907*
X01457*
Y02906*
X01456*
Y02905*
X01456*
Y02905*
X01455*
Y02904*
X01454*
Y02903*
X01454*
Y02902*
X01453*
Y029*
X01452*
Y02897*
X01452*
Y02887*
Y02886*
Y02864*
X01451*
Y02863*
X0145*
Y02863*
X01449*
Y02863*
X01447*
Y02864*
X01447*
Y02899*
X01447*
Y02902*
X01448*
Y02904*
X01449*
Y02905*
X01449*
Y02906*
X0145*
Y02907*
X0145*
Y02908*
X01451*
Y02909*
X01452*
Y02909*
X01452*
Y0291*
X01453*
Y02911*
X01454*
Y02911*
X01455*
Y02912*
X01456*
Y02912*
X01458*
Y02913*
X01461*
Y02914*
X01466*
Y02913*
X01469*
Y02912*
X01471*
Y02912*
X01472*
Y02911*
X01473*
Y02911*
X01475*
Y0291*
X01475*
Y02909*
X01476*
Y02909*
X01477*
Y02908*
X01478*
Y02907*
X01479*
Y02907*
X01479*
Y02905*
X0148*
Y02905*
X01481*
Y02934*
X01482*
Y02935*
X01483*
Y02936*
X01485*
Y02935*
G37*
G36*
X01659Y02932D02*
X0166D01*
Y02931*
X01661*
Y02866*
Y02866*
Y02864*
X0166*
Y02863*
X01659*
Y02863*
X01622*
Y02863*
X0162*
Y02864*
X0162*
Y02866*
X0162*
Y02868*
X01622*
Y02868*
X01656*
Y02896*
X01626*
Y02897*
X01624*
Y029*
X01625*
Y029*
X01626*
Y02901*
X01656*
Y02927*
X01622*
Y02927*
X0162*
Y02928*
X0162*
Y02931*
X0162*
Y02932*
X01622*
Y02932*
X01659*
Y02932*
G37*
G36*
X01604D02*
X01606D01*
Y02931*
X01606*
Y02928*
X01606*
Y02928*
X01605*
Y02927*
X01564*
Y02926*
X01565*
Y02925*
X01565*
Y02924*
X01566*
Y02923*
X01567*
Y02923*
X01567*
Y02921*
X01568*
Y02921*
X01569*
Y0292*
X01569*
Y02919*
X0157*
Y02918*
X01571*
Y02917*
X01571*
Y02916*
X01572*
Y02916*
X01573*
Y02914*
X01573*
Y02914*
X01574*
Y02913*
X01574*
Y02912*
X01575*
Y02911*
X01576*
Y02911*
X01576*
Y02909*
X01577*
Y02909*
X01578*
Y02908*
X01578*
Y02907*
X01579*
Y02906*
X0158*
Y02905*
X0158*
Y02904*
X01581*
Y02904*
X01581*
Y02903*
X01582*
Y02902*
X01583*
Y02901*
X01583*
Y029*
X01584*
Y029*
X01585*
Y02898*
X01585*
Y02898*
X01586*
Y02897*
X01587*
Y02896*
X01587*
Y02895*
X01588*
Y02895*
X01588*
Y02893*
X01589*
Y02893*
X0159*
Y02891*
X0159*
Y02891*
X01591*
Y0289*
X01592*
Y02889*
X01592*
Y02888*
X01593*
Y02888*
X01594*
Y02886*
X01594*
Y02886*
X01595*
Y02885*
X01596*
Y02884*
X01596*
Y02883*
X01597*
Y02882*
X01597*
Y02882*
X01598*
Y02881*
X01599*
Y0288*
X01599*
Y02879*
X016*
Y02878*
X01601*
Y02877*
X01601*
Y02877*
X01602*
Y02875*
X01603*
Y02875*
X01603*
Y02874*
X01604*
Y02873*
X01604*
Y02872*
X01605*
Y02872*
X01606*
Y0287*
X01606*
Y0287*
X01607*
Y02869*
X01608*
Y02868*
X01608*
Y02867*
X01609*
Y02864*
X01608*
Y02863*
X01607*
Y02863*
X01558*
Y02863*
X01557*
Y02864*
X01557*
Y02865*
X01556*
Y02866*
X01557*
Y02867*
X01558*
Y02868*
X01601*
Y02869*
X016*
Y0287*
X01599*
Y02872*
X01598*
Y02872*
X01597*
Y02873*
X01597*
Y02874*
X01596*
Y02875*
X01596*
Y02876*
X01595*
Y02877*
X01594*
Y02877*
X01594*
Y02879*
X01593*
Y02879*
X01592*
Y0288*
X01592*
Y02881*
X01591*
Y02882*
X0159*
Y02883*
X0159*
Y02884*
X01589*
Y02884*
X01588*
Y02886*
X01588*
Y02886*
X01587*
Y02887*
X01587*
Y02888*
X01586*
Y02889*
X01585*
Y02889*
X01585*
Y02891*
X01584*
Y02891*
X01583*
Y02892*
X01583*
Y02893*
X01582*
Y02894*
X01581*
Y02895*
X01581*
Y02896*
X0158*
Y02897*
X0158*
Y02897*
X01579*
Y02898*
X01578*
Y02899*
X01578*
Y029*
X01577*
Y029*
X01576*
Y02902*
X01576*
Y02902*
X01575*
Y02904*
X01574*
Y02904*
X01574*
Y02905*
X01573*
Y02906*
X01573*
Y02907*
X01572*
Y02907*
X01571*
Y02908*
X01571*
Y02909*
X0157*
Y0291*
X01569*
Y02911*
X01568*
Y02912*
X01567*
Y02913*
X01567*
Y02914*
X01566*
Y02915*
X01565*
Y02916*
X01565*
Y02917*
X01564*
Y02918*
X01564*
Y02918*
X01563*
Y0292*
X01562*
Y0292*
X01562*
Y02921*
X01561*
Y02922*
X0156*
Y02923*
X0156*
Y02924*
X01559*
Y02925*
X01558*
Y02925*
X01558*
Y02927*
X01557*
Y02927*
X01557*
Y02928*
X01556*
Y02931*
X01557*
Y02932*
X01558*
Y02932*
X01604*
Y02932*
G37*
G36*
X01429Y02914D02*
X0143D01*
Y02912*
X01431*
Y02872*
Y02872*
Y02864*
X0143*
Y02863*
X01429*
Y02863*
X01427*
Y02863*
X01426*
Y02864*
X01426*
Y02913*
X01426*
Y02914*
X01427*
Y02914*
X01429*
Y02914*
G37*
G36*
X01395Y02935D02*
X01397D01*
Y02934*
X01398*
Y02934*
X01399*
Y02933*
X014*
Y02932*
X01401*
Y02932*
X01401*
Y02931*
X01402*
Y0293*
X01403*
Y02929*
X01403*
Y02927*
X01404*
Y02912*
X01412*
Y02912*
X01413*
Y02911*
X01414*
Y02909*
X01413*
Y02908*
X01413*
Y02907*
X01404*
Y02907*
X01404*
Y02864*
X01403*
Y02863*
X01402*
Y02863*
X01401*
Y02863*
X01399*
Y02864*
X01399*
Y02907*
X01398*
Y02907*
X01386*
Y02908*
X01385*
Y02909*
X01385*
Y02911*
X01385*
Y02912*
X01387*
Y02912*
X01399*
Y02925*
X01398*
Y02928*
X01397*
Y02928*
X01397*
Y02929*
X01396*
Y0293*
X01395*
Y0293*
X01394*
Y02931*
X01389*
Y0293*
X01387*
Y0293*
X01385*
Y0293*
X01384*
Y02934*
X01385*
Y02935*
X01387*
Y02935*
X01395*
Y02935*
G37*
G36*
X01528Y02932D02*
X0153D01*
Y02932*
X01532*
Y02931*
X01534*
Y0293*
X01535*
Y0293*
X01536*
Y02929*
X01537*
Y02928*
X01539*
Y02927*
X01539*
Y02927*
X0154*
Y02926*
X01541*
Y02925*
X01541*
Y02924*
X01542*
Y02923*
X01542*
Y02922*
X01543*
Y0292*
X01544*
Y0291*
X01543*
Y02908*
X01542*
Y02907*
X01542*
Y02905*
X01541*
Y02905*
X01541*
Y02904*
X0154*
Y02904*
X01539*
Y02903*
X01539*
Y02902*
X01538*
Y02902*
X01537*
Y02901*
X01536*
Y029*
X01535*
Y029*
X01534*
Y02899*
X01533*
Y02898*
X01532*
Y02898*
X0153*
Y02897*
X01528*
Y02897*
X01526*
Y02896*
X01524*
Y02895*
X01522*
Y02895*
X01521*
Y02894*
X01518*
Y02893*
X01517*
Y02893*
X01516*
Y02892*
X01514*
Y02891*
X01513*
Y02891*
X01512*
Y0289*
X01511*
Y02889*
X0151*
Y02889*
X01509*
Y02888*
X01509*
Y02888*
X01508*
Y02887*
X01507*
Y02886*
X01507*
Y02884*
X01506*
Y02875*
X01507*
Y02874*
X01507*
Y02873*
X01508*
Y02872*
X01509*
Y02872*
X01509*
Y02871*
X01511*
Y0287*
X01511*
Y0287*
X01512*
Y02869*
X01514*
Y02868*
X01515*
Y02868*
X01518*
Y02867*
X01527*
Y02868*
X0153*
Y02868*
X01532*
Y02869*
X01534*
Y0287*
X01535*
Y0287*
X01536*
Y02871*
X01537*
Y02872*
X01538*
Y02872*
X01539*
Y02873*
X01539*
Y02873*
X01541*
Y02875*
X01542*
Y02876*
X01543*
Y02877*
X01545*
Y02876*
X01546*
Y02875*
X01547*
Y02873*
X01546*
Y02872*
X01546*
Y02871*
X01544*
Y0287*
X01544*
Y0287*
X01543*
Y02869*
X01542*
Y02868*
X01542*
Y02868*
X01541*
Y02867*
X0154*
Y02866*
X01539*
Y02866*
X01537*
Y02865*
X01537*
Y02865*
X01535*
Y02864*
X01534*
Y02863*
X01532*
Y02863*
X0153*
Y02862*
X01524*
Y02861*
X01521*
Y02862*
X01517*
Y02863*
X01514*
Y02863*
X01512*
Y02864*
X01511*
Y02865*
X01509*
Y02865*
X01508*
Y02866*
X01507*
Y02866*
X01506*
Y02868*
X01505*
Y02868*
X01504*
Y0287*
X01503*
Y0287*
X01503*
Y02871*
X01502*
Y02872*
X01502*
Y02873*
X01501*
Y02875*
X015*
Y02879*
X015*
Y02881*
X015*
Y02886*
X01501*
Y02887*
X01502*
Y02889*
X01502*
Y0289*
X01503*
Y02891*
X01503*
Y02891*
X01504*
Y02892*
X01505*
Y02893*
X01505*
Y02893*
X01506*
Y02894*
X01507*
Y02895*
X01508*
Y02895*
X01509*
Y02896*
X0151*
Y02897*
X01511*
Y02897*
X01512*
Y02898*
X01514*
Y02898*
X01516*
Y02899*
X01518*
Y029*
X01519*
Y029*
X01522*
Y02901*
X01523*
Y02902*
X01525*
Y02902*
X01527*
Y02903*
X01528*
Y02904*
X0153*
Y02904*
X01531*
Y02905*
X01532*
Y02905*
X01533*
Y02906*
X01534*
Y02907*
X01535*
Y02907*
X01535*
Y02908*
X01536*
Y02909*
X01537*
Y0291*
X01537*
Y02911*
X01538*
Y02914*
X01539*
Y02917*
X01538*
Y0292*
X01537*
Y02921*
X01537*
Y02922*
X01536*
Y02923*
X01535*
Y02923*
X01535*
Y02924*
X01534*
Y02925*
X01533*
Y02925*
X01532*
Y02926*
X01531*
Y02927*
X01529*
Y02927*
X01526*
Y02928*
X01518*
Y02927*
X01515*
Y02927*
X01513*
Y02926*
X01511*
Y02925*
X0151*
Y02925*
X01509*
Y02924*
X01509*
Y02923*
X01507*
Y02923*
X01507*
Y02922*
X01506*
Y02921*
X01505*
Y02921*
X01505*
Y0292*
X01502*
Y02921*
X01502*
Y02921*
X01501*
Y02924*
X01502*
Y02925*
X01502*
Y02926*
X01503*
Y02927*
X01503*
Y02927*
X01505*
Y02928*
X01505*
Y02928*
X01506*
Y02929*
X01507*
Y0293*
X01509*
Y0293*
X01509*
Y02931*
X01512*
Y02932*
X01514*
Y02932*
X01516*
Y02933*
X01528*
Y02932*
G37*
%LNpcb1_copper_signal_bot-4*%
%LPC*%
G36*
X01355Y02909D02*
X0135D01*
Y02909*
X01348*
Y02908*
X01346*
Y02907*
X01344*
Y02907*
X01343*
Y02906*
X01342*
Y02905*
X01342*
Y02905*
X01341*
Y02904*
X01341*
Y02904*
X0134*
Y02903*
X01339*
Y02902*
X01339*
Y02901*
X01338*
Y029*
X01337*
Y02899*
X01337*
Y02897*
X01336*
Y02895*
X01335*
Y02893*
X01335*
Y02884*
X01335*
Y02881*
X01336*
Y02879*
X01337*
Y02877*
X01337*
Y02876*
X01338*
Y02875*
X01339*
Y02874*
X01339*
Y02873*
X0134*
Y02873*
X01341*
Y02872*
X01342*
Y02871*
X01342*
Y0287*
X01343*
Y0287*
X01344*
Y02869*
X01346*
Y02868*
X01347*
Y02868*
X01348*
Y02867*
X01356*
Y02868*
X01359*
Y02868*
X0136*
Y02869*
X01362*
Y0287*
X01362*
Y0287*
X01364*
Y02871*
X01364*
Y02872*
X01365*
Y02872*
X01365*
Y02873*
X01366*
Y02874*
X01367*
Y02875*
X01367*
Y02875*
X01368*
Y02877*
X01369*
Y02879*
X01369*
Y0288*
X0137*
Y02882*
X01371*
Y02894*
X0137*
Y02897*
X01369*
Y02898*
X01369*
Y029*
X01368*
Y029*
X01367*
Y02902*
X01367*
Y02902*
X01366*
Y02903*
X01365*
Y02904*
X01365*
Y02905*
X01364*
Y02905*
X01363*
Y02906*
X01362*
Y02907*
X01361*
Y02907*
X0136*
Y02908*
X01358*
Y02909*
X01355*
Y02909*
G37*
%LNpcb1_copper_signal_bot-5*%
%LPD*%
G36*
X01785Y02002D02*
X01793Y01996D01*
X01802Y01992*
X01812Y01991*
X01974*
X01976Y01986*
X01971Y0198*
X01964Y0197*
X01959Y01959*
X01957Y01947*
Y01934*
X01959Y01922*
X01964Y0191*
X01971Y019*
X01977Y01894*
X01979Y0189*
X01977Y01887*
X01971Y0188*
X01969Y01878*
X01772*
Y02008*
X01777Y0201*
X01785Y02002*
G37*
G36*
X0237Y01872D02*
Y01867D01*
X02362Y01862*
X02352Y01852*
X02221*
X02211Y01851*
X02202Y01847*
X02194Y01841*
X02191Y01838*
X02186Y0184*
Y01877*
X02362*
X0237Y01872*
G37*
G36*
Y01772D02*
Y01767D01*
X02362Y01762*
X02352Y01752*
X02272*
X02262Y01751*
X02253Y01747*
X02247Y01743*
X02242Y01745*
Y01777*
X02362*
X0237Y01772*
G37*
G36*
X02167Y01615D02*
Y01578D01*
X0207*
X02068Y0158*
X02062Y01587*
X0206Y0159*
X02062Y01594*
X02068Y016*
X0207Y01603*
X02132*
X02142Y01604*
X02151Y01608*
X02159Y01614*
X02162Y01617*
X02167Y01615*
G37*
G36*
X00614Y02008D02*
X00622Y02002D01*
X00631Y01998*
X00641Y01997*
X00682*
X00687Y01992*
X00695Y01987*
Y01982*
X00687Y01977*
X00677Y01967*
X0067Y01955*
X00666Y01941*
Y01928*
X0067Y01914*
X00677Y01902*
X00687Y01892*
X00699Y01885*
X00713Y01881*
X00726*
X0074Y01885*
X00745Y01888*
X00751Y01887*
X00827*
Y01557*
X00822Y01555*
X00606Y01771*
Y02009*
X00611Y02011*
X00614Y02008*
G37*
G36*
X02218Y0151D02*
Y01184D01*
X02198Y01164*
X02193Y01158*
X02187Y01156*
X0218Y01163*
X02172Y01169*
X02163Y01173*
X02153Y01174*
X02073*
X02068Y0118*
X02062Y01187*
X0206Y0119*
X02062Y01194*
X02068Y012*
X02075Y0121*
X0208Y01222*
X02082Y01234*
Y01247*
X0208Y01259*
X02075Y0127*
X02068Y0128*
X02062Y01287*
X0206Y0129*
X02062Y01294*
X02068Y013*
X02075Y0131*
X0208Y01322*
X02082Y01334*
Y01347*
X0208Y01359*
X02075Y0137*
X02068Y0138*
X02062Y01387*
X0206Y0139*
X02062Y01394*
X02068Y014*
X02075Y0141*
X0208Y01422*
X02082Y01434*
Y01447*
X0208Y01459*
X02075Y0147*
X02068Y0148*
X02062Y01487*
X0206Y0149*
X02062Y01494*
X02068Y015*
X0207Y01503*
X02188*
X02198Y01504*
X02207Y01508*
X02213Y01512*
X02218Y0151*
G37*
G36*
X01697Y02279D02*
Y01856D01*
X01698Y01847*
X01702Y01838*
X01708Y0183*
X01724Y01814*
X01732Y01808*
X01741Y01804*
X01751Y01803*
X01969*
X01971Y018*
X01977Y01794*
X01979Y0179*
X01977Y01787*
X01971Y0178*
X01964Y0177*
X01959Y01759*
X01957Y01747*
Y01734*
X01959Y01722*
X01964Y0171*
X01971Y017*
X01977Y01694*
X01979Y0169*
X01977Y01687*
X01971Y0168*
X01964Y0167*
X01959Y01659*
X01957Y01647*
Y01634*
X01959Y01622*
X01964Y0161*
X01971Y016*
X01977Y01594*
X01979Y0159*
X01977Y01587*
X01971Y0158*
X01964Y0157*
X01959Y01559*
X01957Y01547*
Y01534*
X01959Y01522*
X01964Y0151*
X01971Y015*
X01977Y01494*
X01979Y0149*
X01977Y01487*
X01971Y0148*
X01964Y0147*
X01959Y01459*
X01957Y01447*
Y01434*
X01959Y01422*
X01964Y0141*
X01971Y014*
X01977Y01394*
X01979Y0139*
X01977Y01387*
X01971Y0138*
X01964Y0137*
X01959Y01359*
X01957Y01347*
Y01334*
X01959Y01322*
X01964Y0131*
X01971Y013*
X01977Y01294*
X01979Y0129*
X01977Y01287*
X01971Y0128*
X01964Y0127*
X01959Y01259*
X01957Y01247*
Y01234*
X01959Y01222*
X01964Y0121*
X01971Y012*
X01977Y01194*
X01979Y0119*
X01977Y01187*
X01971Y0118*
X01964Y0117*
X01959Y01159*
X01957Y01147*
Y01134*
X01959Y01122*
X01964Y0111*
X01971Y011*
X01977Y01094*
X01979Y0109*
X01977Y01087*
X01971Y0108*
X01964Y0107*
X01959Y01059*
X01957Y01047*
Y01034*
X01959Y01022*
X01964Y0101*
X01971Y01*
X01977Y00994*
X01979Y0099*
X01977Y00987*
X01971Y0098*
X01964Y0097*
X01959Y00959*
X01957Y00947*
Y00934*
X01959Y00922*
X01964Y0091*
X01971Y009*
X01977Y00894*
X01979Y0089*
X01977Y00887*
X01971Y0088*
X01964Y0087*
X01959Y00859*
X01957Y00847*
Y00834*
X01959Y00822*
X01964Y0081*
X01971Y008*
X01979Y00791*
X01981Y0079*
X0198Y00785*
X01977Y00785*
X01962Y00779*
X01948Y0077*
X01937Y00758*
X01928Y00744*
X01921Y00729*
X01918Y00713*
Y00697*
X01921Y00681*
X01928Y00666*
X01937Y00653*
X01948Y00641*
X01962Y00632*
X01977Y00626*
X01993Y00623*
X02009*
X02025Y00626*
X0204Y00632*
X02054Y00641*
X02065Y00653*
X02074Y00666*
X0208Y00681*
X02084Y00697*
Y00713*
X0208Y00729*
X02074Y00744*
X02065Y00758*
X02054Y0077*
X02043Y00777*
X02044Y00782*
X02049Y00785*
X0206Y00791*
X02068Y008*
X02075Y0081*
X0208Y00822*
X02082Y00834*
Y00847*
X0208Y00859*
X02075Y0087*
X02068Y0088*
X02062Y00887*
X0206Y0089*
X02062Y00894*
X02068Y009*
X02075Y0091*
X0208Y00922*
X02082Y00934*
Y00947*
X0208Y00959*
X02075Y0097*
X02068Y0098*
X02062Y00987*
X0206Y0099*
X02062Y00994*
X02068Y01*
X02075Y0101*
X0208Y01022*
X02082Y01034*
Y01047*
X0208Y01059*
X02075Y0107*
X02068Y0108*
X02062Y01087*
X0206Y0109*
X02062Y01094*
X02067Y01099*
X02132*
Y00587*
X00802*
Y00813*
X00801Y00823*
X00797Y00832*
X00791Y0084*
X00775Y00856*
X00767Y00862*
X00758Y00866*
X00748Y00867*
X00682*
X00677Y00872*
X00665Y00879*
X00651Y00883*
X00638*
X00624Y00879*
X00612Y00872*
X00602Y00862*
X00597Y00854*
X00592Y00855*
Y01127*
X00627*
X00632Y01122*
X00644Y01115*
X00658Y01111*
X00671*
X00685Y01115*
X00697Y01122*
X00702Y01127*
X00756*
X00766Y01128*
X00775Y01132*
X00782Y01138*
X00891Y01247*
X00897Y01255*
X00901Y01264*
X00902Y01273*
Y01908*
X00901Y01918*
X00897Y01927*
X00891Y01935*
X00875Y01951*
X00867Y01957*
X00858Y01961*
X00849Y01962*
X00765*
X00762Y01967*
X00752Y01977*
X00744Y01982*
Y01987*
X00752Y01992*
X00762Y02002*
X00769Y02014*
X00773Y02028*
Y02041*
X00769Y02055*
X00762Y02067*
X00752Y02077*
X0074Y02084*
X00726Y02088*
X00713*
X00699Y02084*
X00687Y02077*
X00682Y02072*
X00662*
Y02342*
X01634*
X01697Y02279*
G37*
G36*
X02214Y00613D02*
X02222Y00607D01*
X02231Y00603*
X02241Y00602*
X02246*
Y00586*
X02262*
Y00532*
X02196*
X02194Y00537*
X02196Y00539*
X02202Y00547*
X02206Y00556*
X02207Y00566*
Y00613*
X02212Y00615*
X02214Y00613*
G37*
G36*
X00727Y00566D02*
X00728Y00556D01*
X00732Y00547*
X00738Y00539*
X0074Y00537*
X00738Y00532*
X00715*
X00672Y00575*
Y00684*
X00677Y00687*
X00687Y00697*
X00694Y00709*
X00698Y00723*
Y00736*
X00694Y0075*
X00687Y00762*
X00677Y00772*
X00669Y00777*
Y00782*
X00677Y00787*
X00682Y00792*
X00727*
Y00566*
G37*
%LNpcb1_copper_signal_bot-6*%
%LPC*%
G36*
X01082Y02303D02*
X00957D01*
Y02177*
X01082*
Y02303*
G37*
G36*
X01026Y02103D02*
X01013D01*
X01001Y02101*
X0099Y02096*
X00979Y02089*
X00971Y0208*
X00964Y0207*
X00959Y02059*
X00957Y02047*
Y02034*
X00959Y02022*
X00964Y0201*
X00971Y02*
X00977Y01994*
X00979Y0199*
X00977Y01987*
X00971Y0198*
X00964Y0197*
X00959Y01959*
X00957Y01947*
Y01934*
X00959Y01922*
X00964Y0191*
X00971Y019*
X00977Y01894*
X00979Y0189*
X00977Y01887*
X00971Y0188*
X00964Y0187*
X00959Y01859*
X00957Y01847*
Y01834*
X00959Y01822*
X00964Y0181*
X00971Y018*
X00977Y01794*
X00979Y0179*
X00977Y01787*
X00971Y0178*
X00964Y0177*
X00959Y01759*
X00957Y01747*
Y01734*
X00959Y01722*
X00964Y0171*
X00971Y017*
X00977Y01694*
X00979Y0169*
X00977Y01687*
X00971Y0168*
X00964Y0167*
X00959Y01659*
X00957Y01647*
Y01634*
X00959Y01622*
X00964Y0161*
X00971Y016*
X00977Y01594*
X00979Y0159*
X00977Y01587*
X00971Y0158*
X00964Y0157*
X00959Y01559*
X00957Y01547*
Y01534*
X00959Y01522*
X00964Y0151*
X00971Y015*
X00977Y01494*
X00979Y0149*
X00977Y01487*
X00971Y0148*
X00964Y0147*
X00959Y01459*
X00957Y01447*
Y01434*
X00959Y01422*
X00964Y0141*
X00971Y014*
X00977Y01394*
X00979Y0139*
X00977Y01387*
X00971Y0138*
X00964Y0137*
X00959Y01359*
X00957Y01347*
Y01334*
X00959Y01322*
X00964Y0131*
X00971Y013*
X00977Y01294*
X00979Y0129*
X00977Y01287*
X00971Y0128*
X00964Y0127*
X00959Y01259*
X00957Y01247*
Y01234*
X00959Y01222*
X00964Y0121*
X00971Y012*
X00977Y01194*
X00979Y0119*
X00977Y01187*
X00971Y0118*
X00964Y0117*
X00959Y01159*
X00957Y01147*
Y01134*
X00959Y01122*
X00964Y0111*
X00971Y011*
X00977Y01094*
X00979Y0109*
X00977Y01087*
X00971Y0108*
X00964Y0107*
X00959Y01059*
X00957Y01047*
Y01034*
X00959Y01022*
X00964Y0101*
X00971Y01*
X00977Y00994*
X00979Y0099*
X00977Y00987*
X00971Y0098*
X00964Y0097*
X00959Y00959*
X00957Y00947*
Y00934*
X00959Y00922*
X00964Y0091*
X00971Y009*
X00977Y00894*
X00979Y0089*
X00977Y00887*
X00971Y0088*
X00964Y0087*
X00959Y00859*
X00957Y00847*
Y00834*
X00959Y00822*
X00964Y0081*
X00971Y008*
X00979Y00791*
X0099Y00785*
X00994Y00783*
X00995Y00777*
X00983Y0077*
X00972Y00758*
X00963Y00744*
X00957Y00729*
X00953Y00713*
Y00697*
X00957Y00681*
X00963Y00666*
X00972Y00653*
X00983Y00641*
X00997Y00632*
X01012Y00626*
X01028Y00623*
X01044*
X0106Y00626*
X01075Y00632*
X01089Y00641*
X011Y00653*
X01109Y00666*
X01116Y00681*
X01119Y00697*
Y00713*
X01116Y00729*
X01109Y00744*
X011Y00758*
X01089Y0077*
X01075Y00779*
X0106Y00785*
X01059Y00785*
X01058Y0079*
X0106Y00791*
X01068Y008*
X01075Y0081*
X0108Y00822*
X01082Y00834*
Y00847*
X0108Y00859*
X01075Y0087*
X01068Y0088*
X01062Y00887*
X0106Y0089*
X01062Y00894*
X01068Y009*
X01075Y0091*
X0108Y00922*
X01082Y00934*
Y00947*
X0108Y00959*
X01075Y0097*
X01068Y0098*
X01062Y00987*
X0106Y0099*
X01062Y00994*
X01068Y01*
X01075Y0101*
X0108Y01022*
X01082Y01034*
Y01047*
X0108Y01059*
X01075Y0107*
X01068Y0108*
X01062Y01087*
X0106Y0109*
X01062Y01094*
X01068Y011*
X01075Y0111*
X0108Y01122*
X01082Y01134*
Y01147*
X0108Y01159*
X01075Y0117*
X01068Y0118*
X01062Y01187*
X0106Y0119*
X01062Y01194*
X01068Y012*
X01075Y0121*
X0108Y01222*
X01082Y01234*
Y01247*
X0108Y01259*
X01075Y0127*
X01068Y0128*
X01062Y01287*
X0106Y0129*
X01062Y01294*
X01068Y013*
X01075Y0131*
X0108Y01322*
X01082Y01334*
Y01347*
X0108Y01359*
X01075Y0137*
X01068Y0138*
X01062Y01387*
X0106Y0139*
X01062Y01394*
X01068Y014*
X01075Y0141*
X0108Y01422*
X01082Y01434*
Y01447*
X0108Y01459*
X01075Y0147*
X01068Y0148*
X01062Y01487*
X0106Y0149*
X01062Y01494*
X01068Y015*
X01075Y0151*
X0108Y01522*
X01082Y01534*
Y01547*
X0108Y01559*
X01075Y0157*
X01068Y0158*
X01062Y01587*
X0106Y0159*
X01062Y01594*
X01068Y016*
X01075Y0161*
X0108Y01622*
X01082Y01634*
Y01647*
X0108Y01659*
X01075Y0167*
X01068Y0168*
X01062Y01687*
X0106Y0169*
X01062Y01694*
X01068Y017*
X01075Y0171*
X0108Y01722*
X01082Y01734*
Y01747*
X0108Y01759*
X01075Y0177*
X01068Y0178*
X01062Y01787*
X0106Y0179*
X01062Y01794*
X01068Y018*
X01075Y0181*
X0108Y01822*
X01082Y01834*
Y01847*
X0108Y01859*
X01075Y0187*
X01068Y0188*
X01062Y01887*
X0106Y0189*
X01062Y01894*
X01068Y019*
X01075Y0191*
X0108Y01922*
X01082Y01934*
Y01947*
X0108Y01959*
X01075Y0197*
X01068Y0198*
X01062Y01987*
X0106Y0199*
X01062Y01994*
X01068Y02*
X01075Y0201*
X0108Y02022*
X01082Y02034*
Y02047*
X0108Y02059*
X01075Y0207*
X01068Y0208*
X0106Y02089*
X01049Y02096*
X01038Y02101*
X01026Y02103*
G37*
G36*
X01865Y00906D02*
X01169D01*
X01159Y00904*
X01152Y00899*
X01146Y00891*
X01145Y00882*
Y00627*
X01146Y00617*
X01152Y0061*
X01159Y00604*
X01169Y00602*
X01865*
X01874Y00604*
X01882Y0061*
X01887Y00617*
X01889Y00627*
Y00882*
X01887Y00891*
X01882Y00899*
X01874Y00904*
X01865Y00906*
G37*
%LNpcb1_copper_signal_bot-7*%
%LPD*%
G54D10*
X023Y0074D03*
X02395Y0172D03*
Y0182D03*
Y0192D03*
X00645Y0083D03*
Y0073D03*
X00665Y01265D03*
Y01165D03*
X0072Y02035D03*
Y01935D03*
G54D11*
X023Y0064D03*
X02395Y0202D03*
X00645Y0093D03*
X00665Y01365D03*
X0072Y02135D03*
G54D12*
X0102Y0224D03*
G54D13*
X0102Y0214D03*
Y0204D03*
Y0194D03*
Y0184D03*
Y0174D03*
Y0164D03*
Y0154D03*
Y0144D03*
Y0134D03*
Y0124D03*
Y0114D03*
Y0104D03*
Y0094D03*
Y0084D03*
X0202Y0224D03*
Y0214D03*
Y0204D03*
Y0194D03*
Y0184D03*
Y0174D03*
Y0164D03*
Y0154D03*
Y0144D03*
Y0134D03*
Y0124D03*
Y0114D03*
Y0104D03*
Y0094D03*
Y0084D03*
G54D14*
X01036Y00705D03*
X02001D03*
Y02554D03*
X01036D03*
G54D15*
X00984Y03075D03*
X02047D03*
G54D16*
X00635Y0056D02*
X007Y00495D01*
X023Y00511D02*
Y0064D01*
X02283Y00495D02*
X023Y00511D01*
X007Y00495D02*
X02283D01*
X0217Y00566D02*
Y0112D01*
X02153Y0055D02*
X0217Y00566D01*
X00765D02*
Y00813D01*
Y00566D02*
X00781Y0055D01*
X02153*
X00748Y0083D02*
X00765Y00813D01*
X00645Y0083D02*
X00748D01*
X00571Y0073D02*
X00635D01*
X00638Y00702D02*
Y00723D01*
X00635Y0073D02*
X00645D01*
X00635Y00698D02*
X00638Y00702D01*
Y00723D02*
X00645Y0073D01*
X00635Y0056D02*
Y00698D01*
X00571Y01165D02*
X00665D01*
X00555Y00746D02*
X00571Y0073D01*
X00555Y01148D02*
X00571Y01165D01*
X00665D02*
X00756D01*
X00555Y00746D02*
Y01148D01*
X0068Y01265D02*
X00783D01*
X00756Y01165D02*
X00865Y01273D01*
X00783Y01265D02*
X008Y01281D01*
Y01525*
X00865Y01273D02*
Y01908D01*
X00568Y01756D02*
X008Y01525D01*
X00849Y01925D02*
X00865Y01908D01*
X00751Y01925D02*
X00849D01*
X0072Y01935D02*
X00726Y01928D01*
X00747*
X00751Y01925*
X0165Y0238D02*
X01735Y02295D01*
X00568Y02402D02*
X00597Y02431D01*
X00641Y0238D02*
X0165D01*
X00625Y02363D02*
X00641Y0238D01*
X00625Y02051D02*
Y02363D01*
X00597Y02431D02*
X01778D01*
X01795Y02413*
X00625Y02051D02*
X00641Y02035D01*
X0072*
X00568Y01756D02*
Y02402D01*
X01795Y02045D02*
Y02413D01*
X01735Y01856D02*
Y02295D01*
X01812Y02029D02*
X01978D01*
X01795Y02045D02*
X01812Y02029D01*
X0198Y02031D02*
X0201D01*
X0202Y0204*
X01978Y02029D02*
X0198Y02031D01*
X01751Y0184D02*
X0202D01*
X01735Y01856D02*
X01751Y0184D01*
X02256Y01698D02*
X02272Y01715D01*
X0239*
X02256Y01169D02*
Y01698D01*
X02132Y0164D02*
X02148Y01656D01*
X0202Y0164D02*
X02132D01*
X02148Y01656D02*
Y01898D01*
X02165Y01915D02*
X0239D01*
X02148Y01898D02*
X02165Y01915D01*
X02225Y01138D02*
X02256Y01169D01*
X02225Y00656D02*
Y01138D01*
X0202Y0154D02*
X02188D01*
X02205Y01556*
Y01798*
X0239Y01715D02*
X02395Y0172D01*
X0239Y01915D02*
X02395Y0192D01*
X0239Y01815D02*
X02395Y0182D01*
X02221Y01815D02*
X0239D01*
X02205Y01798D02*
X02221Y01815D01*
X02241Y0064D02*
X023D01*
X02225Y00656D02*
X02241Y0064D01*
X02153Y01137D02*
X0217Y0112D01*
X02023Y01137D02*
X02153D01*
X0202Y0114D02*
X02023Y01137D01*
G54D17*
X00185Y0024D02*
X02775D01*
X00185Y0369D02*
X02775D01*
Y0024D02*
Y0369D01*
X00185Y0024D02*
Y0369D01*
M02*