%FSTAX23Y23*%
%MOIN*%
%SFA1B1*%

%IPPOS*%
%ADD11C,0.078740*%
%ADD12C,0.060236*%
%ADD13R,0.060236X0.060236*%
%ADD14R,0.053937X0.053937*%
%ADD15C,0.053937*%
%ADD16R,0.060236X0.060236*%
%ADD17R,0.053937X0.053937*%
%ADD18R,0.060000X0.060000*%
%ADD19C,0.060000*%
%ADD20C,0.065000*%
%ADD21C,0.011811*%
%LNpcb_copper_signal_bot-1*%
%LPD*%
G36*
X03089Y02498D02*
Y-00001D01*
X00004*
X00003Y-00001*
X0Y0*
X00004Y02508*
X03079*
X03089Y02498*
G37*
%LNpcb_copper_signal_bot-2*%
%LPC*%
G36*
X0212Y02304D02*
X02029D01*
Y0228*
X01854*
X01846Y02278*
X01839Y02274*
X01784Y02219*
X01779Y02211*
X01777Y02203*
Y01885*
X01779Y01876*
X01784Y01869*
X01791Y01862*
X01798Y01858*
X01806Y01856*
X01964*
X01968Y0185*
X01976Y01841*
X01987Y01835*
X01998Y01832*
X02011*
X02022Y01835*
X02033Y01841*
X02041Y0185*
X02047Y0186*
X0205Y01872*
Y01884*
X02047Y01896*
X02041Y01906*
X02033Y01915*
X02022Y01921*
X02011Y01924*
X01998*
X01987Y01921*
X01976Y01915*
X01968Y01906*
X01964Y019*
X01822*
Y02194*
X01864Y02236*
X02029*
Y02212*
X0212*
Y02304*
G37*
G36*
X02011Y02026D02*
X01998D01*
X01986Y02023*
X01975Y02017*
X01966Y02008*
X0196Y01997*
X01956Y01984*
Y01972*
X0196Y01959*
X01966Y01948*
X01975Y01939*
X01986Y01933*
X01998Y0193*
X02011*
X02023Y01933*
X02034Y01939*
X02043Y01948*
X02049Y01959*
X02053Y01972*
Y01984*
X02049Y01997*
X02043Y02008*
X02034Y02017*
X02023Y02023*
X02011Y02026*
G37*
G36*
X01411D02*
X01398D01*
X01386Y02023*
X01375Y02017*
X01366Y02008*
X0136Y01997*
X01356Y01984*
Y01972*
X0136Y01959*
X01366Y01948*
X01375Y01939*
X01386Y01933*
X01398Y0193*
X01411*
X01423Y01933*
X01434Y01939*
X01443Y01948*
X01449Y01959*
X01453Y01972*
Y01984*
X01449Y01997*
X01443Y02008*
X01434Y02017*
X01423Y02023*
X01411Y02026*
G37*
G36*
X01411Y01924D02*
X01398D01*
X01387Y01921*
X01376Y01915*
X01368Y01906*
X01362Y01896*
X01359Y01884*
Y01872*
X01362Y0186*
X01368Y0185*
X01376Y01841*
X01387Y01835*
X01398Y01832*
X01411*
X01422Y01835*
X01433Y01841*
X01441Y0185*
X01447Y0186*
X0145Y01872*
Y01884*
X01447Y01896*
X01441Y01906*
X01433Y01915*
X01422Y01921*
X01411Y01924*
G37*
G36*
Y01824D02*
X01398D01*
X01387Y01821*
X01376Y01815*
X01368Y01806*
X01362Y01796*
X01359Y01784*
Y01772*
X01362Y0176*
X01368Y0175*
X01376Y01741*
X01387Y01735*
X01398Y01732*
X01411*
X01422Y01735*
X01433Y01741*
X01441Y0175*
X01447Y0176*
X0145Y01772*
Y01784*
X01447Y01796*
X01441Y01806*
X01433Y01815*
X01422Y01821*
X01411Y01824*
G37*
G36*
X02011Y01724D02*
X01998D01*
X01987Y01721*
X01976Y01715*
X01968Y01706*
X01962Y01696*
X01959Y01684*
Y01672*
X01962Y0166*
X01968Y0165*
X01976Y01641*
X01987Y01635*
X01998Y01632*
X02011*
X02022Y01635*
X02033Y01641*
X02041Y0165*
X02047Y0166*
X0205Y01672*
Y01684*
X02047Y01696*
X02041Y01706*
X02033Y01715*
X02022Y01721*
X02011Y01724*
G37*
G36*
X01411D02*
X01398D01*
X01387Y01721*
X01376Y01715*
X01368Y01706*
X01362Y01696*
X01359Y01684*
Y01672*
X01362Y0166*
X01368Y0165*
X01376Y01641*
X01387Y01635*
X01398Y01632*
X01411*
X01422Y01635*
X01433Y01641*
X01441Y0165*
X01447Y0166*
X0145Y01672*
Y01684*
X01447Y01696*
X01441Y01706*
X01433Y01715*
X01422Y01721*
X01411Y01724*
G37*
G36*
X02549Y024D02*
X01019D01*
X01011Y02398*
X01004Y02394*
X00415Y01804*
X0041Y01806*
X00399*
X00388Y01803*
X00378Y01797*
X0037Y01789*
X00365Y01779*
X00362Y01769*
Y01757*
X00365Y01746*
X0037Y01737*
X00378Y01729*
X00388Y01723*
X00399Y0172*
X0041*
X00421Y01723*
X00431Y01729*
X00439Y01737*
X00444Y01746*
X00447Y01757*
Y01769*
X00446Y01773*
X01029Y02356*
X0254*
X02745Y02151*
X02768Y02128*
X02767Y02124*
Y02112*
X0277Y02101*
X02775Y02092*
X02783Y02084*
X02793Y02078*
X02804Y02075*
X02815*
X02826Y02078*
X02836Y02084*
X02844Y02092*
X02849Y02101*
X02852Y02112*
Y02124*
X02849Y02134*
X02844Y02144*
X02836Y02152*
X02826Y02158*
X02815Y02161*
X02804*
X02799Y02159*
X02785Y02174*
X02785Y02177*
X0279Y0218*
X02793Y02178*
X02804Y02175*
X02815*
X0282Y02176*
X02864Y02132*
Y01789*
X02804Y01729*
X02789*
X0278Y01727*
X02773Y01722*
X0276Y0171*
X02755Y01702*
X02754Y01694*
Y01678*
X02175Y011*
X02045*
X02041Y01106*
X02033Y01115*
X02022Y01121*
X02011Y01124*
X01998*
X01987Y01121*
X01976Y01115*
X01968Y01106*
X01962Y01096*
X01959Y01084*
Y01072*
X01962Y0106*
X01968Y0105*
X01976Y01041*
X01987Y01035*
X01998Y01032*
X02011*
X02022Y01035*
X02033Y01041*
X02041Y0105*
X02045Y01056*
X02184*
X02193Y01058*
X022Y01062*
X02791Y01654*
X02796Y01661*
X02798Y01669*
Y01684*
X02813*
X02822Y01686*
X02829Y01691*
X02888Y0175*
X02892Y01748*
Y0158*
X02861*
X02859Y01584*
X02851Y01592*
X02841Y01598*
X0283Y01601*
X02819*
X02808Y01598*
X02798Y01592*
X0279Y01584*
X02785Y01574*
X02782Y01564*
Y01552*
X02785Y01541*
X0279Y01532*
X02798Y01524*
X02808Y01518*
X02819Y01515*
X0283*
X02841Y01518*
X02851Y01524*
X02859Y01532*
X02861Y01536*
X02992*
Y01184*
X02614*
X02605Y01183*
X02598Y01178*
X02479Y01059*
X02474Y01051*
X02472Y01043*
Y00721*
X02474Y00713*
X02479Y00706*
X02484Y00701*
X02491Y00696*
X02499Y00694*
X02837*
X02862Y00669*
Y00435*
X02846*
X02844Y00439*
X02836Y00447*
X02826Y00453*
X02815Y00456*
X02804*
X02793Y00453*
X02783Y00447*
X02775Y00439*
X02773Y00435*
X02575*
X02417Y00594*
X0241Y00598*
X02401Y006*
X02045*
X02041Y00606*
X02033Y00615*
X02022Y00621*
X02011Y00624*
X01998*
X01987Y00621*
X01976Y00615*
X01968Y00606*
X01962Y00596*
X01959Y00584*
Y00572*
X01962Y0056*
X01968Y0055*
X01976Y00541*
X01987Y00535*
X01998Y00532*
X02011*
X02022Y00535*
X02033Y00541*
X02041Y0055*
X02045Y00556*
X02392*
X02551Y00397*
X02558Y00393*
X02566Y00391*
X02773*
X02775Y00387*
X02783Y00379*
X02793Y00373*
X02804Y0037*
X02815*
X02826Y00373*
X02836Y00379*
X02844Y00387*
X02846Y00391*
X02878*
X02885Y00392*
X0289Y0039*
Y00285*
X02833Y00228*
X02523*
X02257Y00494*
X0225Y00498*
X02242Y005*
X0205*
Y00524*
X01959*
Y00432*
X0205*
Y00456*
X02233*
X02484Y00205*
X02482Y002*
X02122*
X01996Y00326*
X01999Y0033*
X02011*
X02023Y00333*
X02034Y00339*
X02043Y00348*
X02049Y00359*
X02053Y00372*
Y00384*
X02049Y00397*
X02043Y00408*
X02034Y00417*
X02023Y00423*
X02011Y00426*
X01998*
X01986Y00423*
X01975Y00417*
X01966Y00408*
X0196Y00397*
X01956Y00384*
Y00372*
X01952Y0037*
X01554Y00768*
Y00859*
X01552Y00868*
X01552Y00869*
Y01253*
X0155Y01261*
X01545Y01269*
X01448Y01365*
X0145Y01372*
Y01384*
X01447Y01396*
X01441Y01406*
X01433Y01415*
X01422Y01421*
X01411Y01424*
X01398*
X01387Y01421*
X01376Y01415*
X01368Y01406*
X01362Y01396*
X01359Y01384*
Y01372*
X01362Y0136*
X01368Y0135*
X01376Y01341*
X01387Y01335*
X01398Y01332*
X01411*
X01417Y01334*
X01429Y01323*
X01425Y01319*
X01422Y01321*
X01411Y01324*
X01398*
X01387Y01321*
X01376Y01315*
X01368Y01306*
X01362Y01296*
X01359Y01284*
Y01272*
X01362Y0126*
X01368Y0125*
X01376Y01241*
X01387Y01235*
X01398Y01232*
X01411*
X01422Y01235*
X01433Y01241*
X01441Y0125*
X01447Y0126*
X0145Y01272*
Y01284*
X01447Y01296*
X01445Y01299*
X01449Y01302*
X01507Y01244*
Y00883*
X01503Y00881*
X0149Y00894*
X01483Y00898*
X01474Y009*
X01445*
X01441Y00906*
X01433Y00915*
X01422Y00921*
X01411Y00924*
X01398*
X01387Y00921*
X01376Y00915*
X01368Y00906*
X01362Y00896*
X01359Y00884*
Y00872*
X01362Y0086*
X01364Y00857*
X0136Y00854*
X01272Y00942*
Y01423*
X0127Y01431*
X01265Y01439*
X01252Y01451*
X01254Y01456*
X01364*
X01368Y0145*
X01376Y01441*
X01387Y01435*
X01398Y01432*
X01411*
X01422Y01435*
X01433Y01441*
X01441Y0145*
X01447Y0146*
X0145Y01472*
Y01484*
X01447Y01496*
X01441Y01506*
X01433Y01515*
X01422Y01521*
X01411Y01524*
X01398*
X01387Y01521*
X01376Y01515*
X01368Y01506*
X01364Y015*
X00149*
X00141Y01498*
X00134Y01494*
X00077Y01437*
X00072Y0143*
X00071Y01421*
Y00226*
X00072Y00218*
X00077Y00211*
X0014Y00147*
X00147Y00143*
X00156Y00141*
X00603*
X00612Y00143*
X00619Y00147*
X00626Y00154*
X00631Y00161*
X00632Y0017*
Y00243*
X00632Y00243*
X00639Y00249*
X00642Y00255*
X00647*
X0065Y00249*
X00661Y00239*
X00673Y00232*
X00687Y00228*
X00702*
X00716Y00232*
X00728Y00239*
X00739Y00249*
X00742Y00255*
X00747*
X0075Y00249*
X00761Y00239*
X00773Y00232*
X00787Y00228*
X00802*
X00816Y00232*
X00828Y00239*
X00839Y00249*
X00842Y00255*
X00847*
X0085Y00249*
X00861Y00239*
X00873Y00232*
X00887Y00228*
X00902*
X00916Y00232*
X00928Y00239*
X00939Y00249*
X00946Y00262*
X0095Y00276*
Y0029*
X00946Y00304*
X00939Y00317*
X00928Y00327*
X00916Y00334*
X00902Y00338*
X00887*
X00873Y00334*
X00861Y00327*
X0085Y00317*
X00847Y00311*
X00842*
X00839Y00317*
X00828Y00327*
X00816Y00334*
X00802Y00338*
X00787*
X00773Y00334*
X00761Y00327*
X0075Y00317*
X00747Y00311*
X00742*
X00739Y00317*
X00728Y00327*
X00716Y00334*
X00702Y00338*
X00687*
X00673Y00334*
X00661Y00327*
X0065Y00317*
X00647Y00311*
X00642*
X00639Y00317*
X00628Y00327*
X00616Y00334*
X00602Y00338*
X00587*
X00573Y00334*
X00561Y00327*
X0055Y00317*
X00547Y00311*
X00542*
X00539Y00317*
X00528Y00327*
X00516Y00334*
X00502Y00338*
X00487*
X00473Y00334*
X00461Y00327*
X0045Y00317*
X00447Y00311*
X00442*
X00439Y00317*
X00428Y00327*
X00417Y00334*
Y00364*
X00442Y00389*
X00958*
X01255Y00092*
X01262Y00088*
X0127Y00086*
X02948*
X02956Y00088*
X02963Y00092*
X0301Y00139*
X03015Y00147*
X03017Y00155*
Y00367*
X03017Y00367*
Y00723*
X03017Y00724*
Y01109*
X03015Y01118*
X03012Y01123*
Y0114*
X03014*
X03023Y01142*
X0303Y01147*
X03035Y01154*
X03037Y01162*
Y01551*
X03035Y01559*
X0303Y01567*
X03023Y01574*
X03016Y01578*
X03008Y0158*
X02937*
Y0222*
X02935Y02228*
X0293Y02236*
X02865Y02301*
X02858Y02305*
X02849Y02307*
X02799*
X02791Y02305*
X02784Y02301*
X02745Y02262*
X0274Y02254*
X02738Y02246*
Y02227*
X02734Y02225*
X02565Y02394*
X02558Y02398*
X02549Y024*
G37*
G36*
X02011Y01624D02*
X01998D01*
X01987Y01621*
X01976Y01615*
X01968Y01606*
X01962Y01596*
X01959Y01584*
Y01572*
X01962Y0156*
X01968Y0155*
X01976Y01541*
X01987Y01535*
X01998Y01532*
X02011*
X02022Y01535*
X02033Y01541*
X02041Y0155*
X02047Y0156*
X0205Y01572*
Y01584*
X02047Y01596*
X02041Y01606*
X02033Y01615*
X02022Y01621*
X02011Y01624*
G37*
G36*
Y01524D02*
X01998D01*
X01987Y01521*
X01976Y01515*
X01968Y01506*
X01962Y01496*
X01959Y01484*
Y01472*
X01962Y0146*
X01968Y0145*
X01976Y01441*
X01987Y01435*
X01998Y01432*
X02011*
X02022Y01435*
X02033Y01441*
X02041Y0145*
X02047Y0146*
X0205Y01472*
Y01484*
X02047Y01496*
X02041Y01506*
X02033Y01515*
X02022Y01521*
X02011Y01524*
G37*
G36*
X0283Y01501D02*
X02819D01*
X02808Y01498*
X02798Y01492*
X0279Y01484*
X02788Y0148*
X02674*
X02666Y01478*
X02659Y01474*
X02185Y01*
X02045*
X02041Y01006*
X02033Y01015*
X02022Y01021*
X02011Y01024*
X01998*
X01987Y01021*
X01976Y01015*
X01968Y01006*
X01962Y00996*
X01959Y00984*
Y00972*
X01962Y0096*
X01968Y0095*
X01976Y00941*
X01987Y00935*
X01998Y00932*
X02011*
X02022Y00935*
X02033Y00941*
X02041Y0095*
X02045Y00956*
X02194*
X02203Y00958*
X0221Y00962*
X02684Y01436*
X02788*
X0279Y01432*
X02798Y01424*
X02808Y01418*
X02819Y01415*
X0283*
X02841Y01418*
X02851Y01424*
X02859Y01432*
X02864Y01441*
X02867Y01452*
Y01464*
X02864Y01474*
X02859Y01484*
X02851Y01492*
X02841Y01498*
X0283Y01501*
G37*
G36*
X02011Y01424D02*
X01998D01*
X01987Y01421*
X01976Y01415*
X01968Y01406*
X01962Y01396*
X01959Y01384*
Y01372*
X01962Y0136*
X01968Y0135*
X01976Y01341*
X01987Y01335*
X01998Y01332*
X02011*
X02022Y01335*
X02033Y01341*
X02041Y0135*
X02047Y0136*
X0205Y01372*
Y01384*
X02047Y01396*
X02041Y01406*
X02033Y01415*
X02022Y01421*
X02011Y01424*
G37*
G36*
Y01324D02*
X01998D01*
X01987Y01321*
X01976Y01315*
X01968Y01306*
X01962Y01296*
X01959Y01284*
Y01272*
X01962Y0126*
X01968Y0125*
X01976Y01241*
X01987Y01235*
X01998Y01232*
X02011*
X02022Y01235*
X02033Y01241*
X02041Y0125*
X02047Y0126*
X0205Y01272*
Y01284*
X02047Y01296*
X02041Y01306*
X02033Y01315*
X02022Y01321*
X02011Y01324*
G37*
G36*
Y01224D02*
X01998D01*
X01987Y01221*
X01976Y01215*
X01968Y01206*
X01962Y01196*
X01959Y01184*
Y01172*
X01962Y0116*
X01968Y0115*
X01976Y01141*
X01987Y01135*
X01998Y01132*
X02011*
X02022Y01135*
X02033Y01141*
X02041Y0115*
X02047Y0116*
X0205Y01172*
Y01184*
X02047Y01196*
X02041Y01206*
X02033Y01215*
X02022Y01221*
X02011Y01224*
G37*
G36*
X01411D02*
X01398D01*
X01387Y01221*
X01376Y01215*
X01368Y01206*
X01362Y01196*
X01359Y01184*
Y01172*
X01362Y0116*
X01368Y0115*
X01376Y01141*
X01387Y01135*
X01398Y01132*
X01411*
X01422Y01135*
X01433Y01141*
X01441Y0115*
X01447Y0116*
X0145Y01172*
Y01184*
X01447Y01196*
X01441Y01206*
X01433Y01215*
X01422Y01221*
X01411Y01224*
G37*
G36*
Y01124D02*
X01398D01*
X01387Y01121*
X01376Y01115*
X01368Y01106*
X01362Y01096*
X01359Y01084*
Y01072*
X01362Y0106*
X01368Y0105*
X01376Y01041*
X01387Y01035*
X01398Y01032*
X01411*
X01422Y01035*
X01433Y01041*
X01441Y0105*
X01447Y0106*
X0145Y01072*
Y01084*
X01447Y01096*
X01441Y01106*
X01433Y01115*
X01422Y01121*
X01411Y01124*
G37*
G36*
Y01024D02*
X01398D01*
X01387Y01021*
X01376Y01015*
X01368Y01006*
X01362Y00996*
X01359Y00984*
Y00972*
X01362Y0096*
X01368Y0095*
X01376Y00941*
X01387Y00935*
X01398Y00932*
X01411*
X01422Y00935*
X01433Y00941*
X01441Y0095*
X01447Y0096*
X0145Y00972*
Y00984*
X01447Y00996*
X01441Y01006*
X01433Y01015*
X01422Y01021*
X01411Y01024*
G37*
G36*
X01486Y02082D02*
X00801D01*
X00793Y0208*
X00786Y02075*
X00515Y01804*
X0051Y01806*
X00499*
X00488Y01803*
X00478Y01797*
X0047Y01789*
X00465Y01779*
X00462Y01769*
Y01757*
X00465Y01746*
X0047Y01737*
X00478Y01729*
X00488Y01723*
X00499Y0172*
X0051*
X00521Y01723*
X00531Y01729*
X00539Y01737*
X00544Y01746*
X00547Y01757*
Y01769*
X00546Y01773*
X0081Y02038*
X01477*
X01837Y01677*
Y00818*
X01839Y0081*
X01844Y00802*
X01884Y00762*
X01891Y00758*
X01899Y00756*
X01964*
X01968Y0075*
X01976Y00741*
X01987Y00735*
X01998Y00732*
X02011*
X02022Y00735*
X02033Y00741*
X02041Y0075*
X02047Y0076*
X0205Y00772*
Y00784*
X02047Y00796*
X02041Y00806*
X02033Y00815*
X02022Y00821*
X02011Y00824*
X01998*
X01987Y00821*
X01976Y00815*
X01968Y00806*
X01964Y008*
X01909*
X01882Y00827*
Y01686*
X0188Y01695*
X01875Y01702*
X01502Y02075*
X01495Y0208*
X01486Y02082*
G37*
G36*
X02011Y00724D02*
X01998D01*
X01987Y00721*
X01976Y00715*
X01968Y00706*
X01962Y00696*
X01959Y00684*
Y00672*
X01962Y0066*
X01968Y0065*
X01976Y00641*
X01987Y00635*
X01998Y00632*
X02011*
X02022Y00635*
X02033Y00641*
X02041Y0065*
X02047Y0066*
X0205Y00672*
Y00684*
X02047Y00696*
X02041Y00706*
X02033Y00715*
X02022Y00721*
X02011Y00724*
G37*
G36*
Y00924D02*
X01998D01*
X01987Y00921*
X01976Y00915*
X01968Y00906*
X01962Y00896*
X01959Y00884*
Y00872*
X01962Y0086*
X01968Y0085*
X01976Y00841*
X01987Y00835*
X01998Y00832*
X02011*
X02022Y00835*
X02033Y00841*
X02041Y0085*
X02045Y00856*
X022*
X02459Y00597*
X02466Y00593*
X02474Y00591*
X02517*
Y00523*
X02519Y00515*
X02524Y00507*
X02529Y00502*
X02529*
X02534Y00497*
X02541Y00493*
X02549Y00491*
X02773*
X02775Y00487*
X02783Y00479*
X02793Y00473*
X02804Y0047*
X02815*
X02826Y00473*
X02836Y00479*
X02844Y00487*
X02849Y00496*
X02852Y00507*
Y00519*
X02849Y00529*
X02844Y00539*
X02836Y00547*
X02826Y00553*
X02815Y00556*
X02804*
X02793Y00553*
X02783Y00547*
X02775Y00539*
X02773Y00535*
X02562*
Y00591*
X02773*
X02775Y00587*
X02783Y00579*
X02793Y00573*
X02804Y0057*
X02815*
X02826Y00573*
X02836Y00579*
X02844Y00587*
X02849Y00596*
X02852Y00607*
Y00619*
X02849Y00629*
X02844Y00639*
X02836Y00647*
X02826Y00653*
X02815Y00656*
X02804*
X02793Y00653*
X02783Y00647*
X02775Y00639*
X02773Y00635*
X02484*
X02225Y00894*
X02218Y00898*
X02209Y009*
X02045*
X02041Y00906*
X02033Y00915*
X02022Y00921*
X02011Y00924*
G37*
%LNpcb_copper_signal_bot-3*%
%LPD*%
G36*
X00556Y01376D02*
X00515Y01335D01*
X00502Y01338*
X00487*
X00473Y01334*
X00461Y01327*
X0045Y01317*
X00447Y01311*
X00442*
X00439Y01317*
X00428Y01327*
X00417Y01334*
Y01349*
X00448Y01381*
X00554*
X00556Y01376*
G37*
G36*
X00401Y01396D02*
X00379Y01374D01*
X00374Y01366*
X00372Y01358*
Y01334*
X00361Y01327*
X0035Y01317*
X00347Y01311*
X00342*
X00339Y01317*
X00328Y01327*
X00317Y01334*
Y01379*
X00338Y014*
X00399*
X00401Y01396*
G37*
G36*
X00291Y01415D02*
X00279Y01404D01*
X00274Y01396*
X00272Y01388*
Y01334*
X00261Y01327*
X0025Y01317*
X00247Y01311*
X00242*
X00239Y01317*
X00228Y01327*
X00216Y01334*
X00202Y01338*
X00187*
X00173Y01334*
X00161Y01327*
X00159Y01326*
X00155Y01328*
Y01379*
X00196Y0142*
X00289*
X00291Y01415*
G37*
G36*
X01093Y00768D02*
X01095Y00759D01*
X01099Y00752*
X01361Y00491*
X01359Y00484*
Y00472*
X01362Y0046*
X01368Y0045*
X01376Y00441*
X01387Y00435*
X01398Y00432*
X01411*
X01422Y00435*
X01433Y00441*
X01441Y0045*
X01447Y0046*
X0145Y00472*
Y00484*
X01447Y00496*
X01441Y00506*
X01433Y00515*
X01422Y00521*
X01411Y00524*
X01398*
X01392Y00522*
X0138Y00533*
X01383Y00537*
X01387Y00535*
X01398Y00532*
X01411*
X01422Y00535*
X01433Y00541*
X01441Y0055*
X01447Y0056*
X0145Y00572*
Y00584*
X01447Y00596*
X01441Y00606*
X01433Y00615*
X01422Y00621*
X01411Y00624*
X01398*
X01392Y00622*
X0138Y00633*
X01383Y00637*
X01387Y00635*
X01398Y00632*
X01411*
X01422Y00635*
X01433Y00641*
X01441Y0065*
X01447Y0066*
X0145Y00672*
Y00684*
X01447Y00696*
X01441Y00706*
X01433Y00715*
X01422Y00721*
X01411Y00724*
X01398*
X01392Y00722*
X0138Y00733*
X01383Y00737*
X01387Y00735*
X01398Y00732*
X01411*
X01422Y00735*
X01433Y00741*
X01441Y0075*
X01447Y0076*
X0145Y00772*
Y00784*
X01447Y00796*
X01441Y00806*
X01433Y00815*
X01422Y00821*
X01411Y00824*
X01398*
X01392Y00822*
X0138Y00833*
X01383Y00837*
X01387Y00835*
X01398Y00832*
X01411*
X01422Y00835*
X01433Y00841*
X01441Y0085*
X01445Y00856*
X01465*
X01482Y00839*
Y0025*
X01289*
X01167Y00372*
Y00412*
X0119*
Y00504*
X01099*
Y00412*
X01122*
Y00363*
X01124Y00355*
X01129Y00347*
X01264Y00212*
X01271Y00208*
X01279Y00206*
X01498*
X01506Y00208*
X01513Y00212*
X0152Y00219*
X01525Y00226*
X01527Y00235*
Y00726*
X01531Y00728*
X02076Y00183*
X02074Y00179*
X0128*
X00617Y00842*
Y01232*
X00628Y01239*
X00639Y01249*
X00642Y01255*
X00647*
X0065Y01249*
X00661Y01239*
X00673Y01232*
X00687Y01228*
X00702*
X00716Y01232*
X00728Y01239*
X00739Y01249*
X00742Y01255*
X00747*
X0075Y01249*
X00761Y01239*
X00773Y01232*
X00787Y01228*
X00802*
X00816Y01232*
X00828Y01239*
X00839Y01249*
X00842Y01255*
X00847*
X0085Y01249*
X00861Y01239*
X00873Y01232*
X00887Y01228*
X00902*
X00916Y01232*
X00928Y01239*
X00939Y01249*
X00946Y01262*
X0095Y01276*
Y0129*
X00946Y01304*
X00939Y01317*
X00928Y01327*
X00916Y01334*
X00902Y01338*
X00887*
X00873Y01334*
X00861Y01327*
X0085Y01317*
X00847Y01311*
X00842*
X00839Y01317*
X00828Y01327*
X00816Y01334*
X00802Y01338*
X00787*
X00773Y01334*
X00761Y01327*
X0075Y01317*
X00747Y01311*
X00742*
X00739Y01317*
X00728Y01327*
X00716Y01334*
X00702Y01338*
X00687*
X00673Y01334*
X00661Y01327*
X0065Y01317*
X00647Y01311*
X00642*
X00639Y01317*
X00628Y01327*
X00616Y01334*
X00602Y01338*
X00588*
X00585Y01342*
X00585Y01342*
X00604Y01361*
X01093*
Y00768*
G37*
G36*
X0055Y01249D02*
X00561Y01239D01*
X00572Y01232*
Y00833*
X00574Y00825*
X00579Y00817*
X00959Y00438*
X00957Y00433*
X00432*
X00424Y00431*
X00417Y00427*
X00379Y00389*
X00374Y00381*
X00372Y00373*
Y00334*
X00361Y00327*
X0035Y00317*
X00343Y00304*
X00339Y0029*
Y00276*
X00343Y00262*
X0035Y00249*
X00361Y00239*
X00373Y00232*
X00379Y0023*
X00378Y00225*
X00211*
X0021Y0023*
X00216Y00232*
X00228Y00239*
X00239Y00249*
X00246Y00262*
X0025Y00276*
Y0029*
X00246Y00304*
X00239Y00317*
X00228Y00327*
X00216Y00334*
X00202Y00338*
X00187*
X00173Y00334*
X00161Y00327*
X00159Y00326*
X00155Y00328*
Y01238*
X00159Y0124*
X00161Y01239*
X00173Y01232*
X00187Y01228*
X00202*
X00216Y01232*
X00228Y01239*
X00239Y01249*
X00242Y01255*
X00247*
X0025Y01249*
X00261Y01239*
X00273Y01232*
X00287Y01228*
X00302*
X00316Y01232*
X00328Y01239*
X00339Y01249*
X00342Y01255*
X00347*
X0035Y01249*
X00361Y01239*
X00373Y01232*
X00387Y01228*
X00402*
X00416Y01232*
X00428Y01239*
X00439Y01249*
X00442Y01255*
X00447*
X0045Y01249*
X00461Y01239*
X00473Y01232*
X00487Y01228*
X00502*
X00516Y01232*
X00528Y01239*
X00539Y01249*
X00542Y01255*
X00547*
X0055Y01249*
G37*
G36*
X02945Y01089D02*
Y0094D01*
X0294Y00938*
X0288Y00999*
X02873Y01003*
X02864Y01005*
X0285*
X02846Y01011*
X02838Y0102*
X02827Y01026*
X02816Y01029*
X02803*
X02792Y01026*
X02783Y01021*
X02778Y01023*
X0278Y01113*
X02875*
X02875*
X02921*
X02945Y01089*
G37*
G36*
X02917Y00899D02*
Y00791D01*
X02913Y0079*
X02777Y00925*
Y00941*
X02777Y00944*
X02782Y00946*
X02792Y0094*
X02803Y00937*
X02816*
X02827Y0094*
X02838Y00946*
X02846Y00955*
X0285Y00961*
X02855*
X02917Y00899*
G37*
G36*
X01361Y00791D02*
X01359Y00784D01*
Y00772*
X01362Y0076*
X01364Y00757*
X0136Y00754*
X01229Y00884*
Y00916*
X01234Y00917*
X01361Y00791*
G37*
G36*
X0274Y01135D02*
X0274Y01134D01*
X02737Y01131*
X02737Y01131*
X02737Y0113*
X02737Y01126*
X02736Y01122*
X02733Y00941*
X02733Y00941*
X02733Y00941*
Y00916*
X02734Y00908*
X02739Y00901*
X0289Y0075*
Y0071*
X02885Y00708*
X02862Y00732*
X02854Y00737*
X02846Y00738*
X02517*
Y01034*
X02623Y0114*
X02738*
X0274Y01135*
G37*
G36*
X01187Y00867D02*
X01192Y00859D01*
X01361Y00691*
X01359Y00684*
Y00672*
X01362Y0066*
X01364Y00657*
X0136Y00654*
X01182Y00832*
Y00868*
X01187Y00869*
X01187Y00867*
G37*
G36*
X01144Y00807D02*
X01361Y00591D01*
X01359Y00584*
Y00572*
X01362Y0056*
X01364Y00557*
X0136Y00554*
X01137Y00777*
Y00809*
X01142Y0081*
X01144Y00807*
G37*
G36*
X0055Y00249D02*
X00561Y00239D01*
X00573Y00232*
X00587Y00228*
X00588*
Y00185*
X0048*
X00478Y0019*
X00505Y00217*
X0051Y00224*
X00511Y0023*
X00516Y00232*
X00528Y00239*
X00539Y00249*
X00542Y00255*
X00547*
X0055Y00249*
G37*
G36*
X02973Y0022D02*
Y00164D01*
X02938Y0013*
X02882*
X02881Y00134*
X02881Y00135*
X02886Y0014*
X02887Y00141*
X02968Y00222*
X02973Y0022*
G37*
%LNpcb_copper_signal_bot-4*%
%LPC*%
G36*
X01411Y00426D02*
X01398D01*
X01386Y00423*
X01375Y00417*
X01366Y00408*
X0136Y00397*
X01356Y00384*
Y00372*
X0136Y00359*
X01366Y00348*
X01375Y00339*
X01386Y00333*
X01398Y0033*
X01411*
X01423Y00333*
X01434Y00339*
X01443Y00348*
X01449Y00359*
X01453Y00372*
Y00384*
X01449Y00397*
X01443Y00408*
X01434Y00417*
X01423Y00423*
X01411Y00426*
G37*
%LNpcb_copper_signal_bot-5*%
%LPD*%
G54D11*
X00894Y01283D03*
X00194D03*
X00894Y00283D03*
X00194D03*
X00794Y01283D03*
X00694D03*
X00594D03*
X00494D03*
X00394D03*
X00294D03*
X00794Y00283D03*
X00694D03*
X00594D03*
X00494D03*
X00394D03*
X00294D03*
G54D12*
X02174Y02258D03*
X01144Y00558D03*
X02809Y00983D03*
G54D13*
X02074Y02258D03*
G54D14*
X00604Y01763D03*
G54D15*
X00504Y01763D03*
X00404D03*
X02809Y00613D03*
Y00513D03*
Y00413D03*
X02824Y01458D03*
Y01558D03*
X02809Y02118D03*
Y02218D03*
G54D16*
X01144Y00458D03*
X02809Y01083D03*
G54D17*
X02809Y00313D03*
X02824Y01658D03*
X02809Y02018D03*
G54D18*
X02004Y00478D03*
G54D19*
X02004Y00578D03*
Y00678D03*
Y00778D03*
Y00878D03*
Y00978D03*
Y01078D03*
Y01178D03*
Y01278D03*
Y01378D03*
Y01478D03*
Y01578D03*
Y01678D03*
Y01778D03*
Y01878D03*
X01404D03*
Y01778D03*
Y01678D03*
Y01578D03*
Y01478D03*
Y01378D03*
Y01278D03*
Y01178D03*
Y01078D03*
Y00978D03*
Y00878D03*
Y00778D03*
Y00678D03*
Y00578D03*
Y00478D03*
G54D20*
X02004Y00378D03*
X01404D03*
Y01978D03*
X02004D03*
G54D21*
X00967Y00411D02*
X0127Y00108D01*
X02948D02*
X02995Y00155D01*
X0127Y00108D02*
X02948D01*
X02842Y00206D02*
X02912Y00275D01*
X02514Y00206D02*
X02842D01*
X02242Y00478D02*
X02514Y00206D01*
X01532Y00758D02*
X02112Y00178D01*
X02101Y0015D02*
X02865D01*
X02871Y00157*
X02095D02*
X02101Y0015D01*
X02112Y00178D02*
X02853D01*
X02939Y00264*
X02871Y00157D02*
X02872D01*
X00594Y00833D02*
Y01283D01*
X01271Y00157D02*
X02095D01*
X00594Y00833D02*
X01271Y00157D01*
X00149Y01478D02*
X01404D01*
X00093Y01421D02*
X00149Y01478D01*
X01123Y01403D02*
X01159Y01366D01*
X00439Y01403D02*
X01123D01*
X01115Y00768D02*
Y01376D01*
X00294Y01388D02*
X00329Y01422D01*
X00594Y01383D02*
X01108D01*
X0123Y01442D02*
X01249Y01423D01*
X01184Y01422D02*
X01207Y01399D01*
X00329Y01422D02*
X01184D01*
X00394Y01358D02*
X00439Y01403D01*
X00494Y01283D02*
X00594Y01383D01*
X00132Y01388D02*
X00187Y01442D01*
X0123*
X01108Y01383D02*
X01115Y01376D01*
X02872Y00157D02*
X02967Y00252D01*
X02967Y00386D02*
Y00712D01*
X02878Y00413D02*
X02884Y0042D01*
X02995Y00367D02*
X02995Y00367D01*
X02912Y00408D02*
X02912Y00408D01*
X02967Y00712D02*
Y01098D01*
Y00712D02*
X02967Y00712D01*
X02939Y00264D02*
Y00397D01*
X02995Y00367D02*
Y00723D01*
X02939Y00701D02*
Y00908D01*
X02995Y00155D02*
Y00367D01*
X02912Y00689D02*
X02912Y00689D01*
X02939Y00397D02*
X0294Y00397D01*
X02912Y00408D02*
Y00689D01*
X0294Y00397D02*
Y00701D01*
X02967Y00386D02*
X02967Y00386D01*
X02912Y00689D02*
Y00759D01*
X02995Y00723D02*
Y01109D01*
X02846Y00716D02*
X02884Y00678D01*
X02967Y00252D02*
Y00386D01*
X02884Y0042D02*
Y00678D01*
X02995Y00723D02*
X02995Y00723D01*
X02912Y00275D02*
Y00408D01*
X02939Y00701D02*
X0294Y00701D01*
X02809Y00413D02*
X02878D01*
X02755Y00916D02*
X02912Y00759D01*
X02989Y01114D02*
X02995Y01109D01*
X02864Y00983D02*
X02939Y00908D01*
X0293Y01135D02*
X02967Y01098D01*
X02989Y01114D02*
Y01162D01*
X03014*
X02614D02*
X02989D01*
X02809Y00983D02*
X02864D01*
X02755Y00916D02*
Y00941D01*
X02875Y01135D02*
Y01135D01*
X02758Y01122D02*
X0277Y01135D01*
X02875Y01135D02*
X0293D01*
X0277Y01135D02*
X02875D01*
X02755Y00941D02*
X02758Y01122D01*
X02499Y00716D02*
X02846D01*
X02566Y00413D02*
X02809D01*
X02004Y00578D02*
X02401D01*
X02566Y00413*
X02004Y00478D02*
X02242D01*
X01159Y00823D02*
Y01366D01*
X01806Y01878D02*
X02004D01*
X01799Y01885D02*
X01806Y01878D01*
X01799Y01885D02*
Y02203D01*
X01854Y02258*
X02074*
X00404Y01763D02*
X01019Y02378D01*
X02549*
X0276Y02167D02*
X02809Y02118D01*
X02549Y02378D02*
X0276Y02167D01*
X00504Y01763D02*
X00801Y0206D01*
X01486*
X01859Y01686*
Y00818D02*
Y01686D01*
Y00818D02*
X01899Y00778D01*
X02004*
X01144Y00363D02*
Y00458D01*
X01504Y00235D02*
Y00848D01*
X01498Y00228D02*
X01504Y00235D01*
X01279Y00228D02*
X01498D01*
X01144Y00363D02*
X01279Y00228D01*
X01529Y00862D02*
Y01253D01*
X01532Y00758D02*
Y00859D01*
X01529Y00862D02*
X01532Y00859D01*
X01479Y00873D02*
X01504Y00848D01*
X01474Y00878D02*
X01479Y00873D01*
X01404Y00878D02*
X01474D01*
X00132Y0025D02*
X00179Y00203D01*
X00459*
X00489Y00233*
X00093Y00226D02*
X00156Y00163D01*
X00603D02*
X0061Y0017D01*
Y00243*
X00156Y00163D02*
X00603D01*
X00489Y00233D02*
Y00278D01*
X00494Y00283*
X00607Y00245D02*
Y0027D01*
Y00245D02*
X0061Y00243D01*
X00594Y00283D02*
X00607Y0027D01*
X00432Y00411D02*
X00967D01*
X00394Y00283D02*
Y00373D01*
X00432Y00411*
X00394Y01283D02*
Y01358D01*
X00294Y01283D02*
Y01388D01*
X02494Y00721D02*
X02499Y00716D01*
X02494Y01043D02*
X02614Y01162D01*
X02494Y00721D02*
Y01043D01*
X03014Y01162D02*
Y01551D01*
X02914Y01558D02*
X03008D01*
X03014Y01551*
X02914Y01558D02*
Y0222D01*
Y01558D02*
D01*
X02824D02*
X02914D01*
X01404Y01378D02*
X01529Y01253D01*
X02813Y01707D02*
X02886Y0178D01*
X02789Y01707D02*
X02813D01*
X02004Y01078D02*
X02184D01*
X02886Y0178D02*
Y02141D01*
X02184Y01078D02*
X02776Y01669D01*
Y01694D02*
X02789Y01707D01*
X02776Y01669D02*
Y01694D01*
X02004Y00978D02*
X02194D01*
X02674Y01458D02*
X02824D01*
X02194Y00978D02*
X02674Y01458D01*
X02004Y00878D02*
X02209D01*
X02474Y00613D02*
X02539D01*
X02209Y00878D02*
X02474Y00613D01*
X01115Y00768D02*
X01404Y00478D01*
X01159Y00823D02*
X01404Y00578D01*
X01249Y00933D02*
X01404Y00778D01*
X01249Y00933D02*
Y01423D01*
X01207Y00875D02*
Y01399D01*
Y00875D02*
X01404Y00678D01*
X02539Y00613D02*
X02809D01*
X02539Y00523D02*
X02545Y00518D01*
X02539Y00523D02*
Y00613D01*
X02545Y00518D02*
X02549Y00513D01*
X02809*
Y02218D02*
X02886Y02141D01*
X00093Y00226D02*
Y01421D01*
X00132Y0025D02*
Y01388D01*
X02849Y02285D02*
X02914Y0222D01*
X02799Y02285D02*
X02849D01*
X0276Y02246D02*
X02799Y02285D01*
X0276Y02167D02*
Y02246D01*
M02*