M48
;Layer_Color=9474304
;FILE_FORMAT=4:4
METRIC,LZ
;TYPE=PLATED
T1F00S00C0.8000
T2F00S00C1.0160
T3F00S00C1.0200
;TYPE=NON_PLATED
T4F00S00C1.6510
%
T01
X00049527Y00071997
X00074927
X00100327
X00125727
X00151127
X00176527
X00201927
X00227327
Y00325997
X00201927
X00176527
X00151127
X00125727
X00100327
X00074927
X00049527
T02
X00356867Y00121527
X00509267
Y00146927
Y00172327
Y00197727
Y00223127
Y00248527
Y00273927
Y00299327
Y00324727
Y00350127
Y00375527
Y00400927
Y00426327
Y00451727
Y00477127
X00356867
Y00451727
Y00426327
Y00400927
Y00375527
Y00350127
Y00324727
Y00299327
Y00273927
Y00248527
Y00223127
Y00197727
Y00172327
Y00146927
T03
X00290827Y00116447
X00713737Y00105017
Y00130417
Y00079617
Y00155817
Y00249797
Y00275197
X00717547Y00370447
Y00395847
Y00421247
X00713737Y00512687
X00153667Y00447917
X00290827Y00141847
X00128267Y00447917
X00102867
X00527047Y00573647
X00552447
X00713737Y00563487
Y00538087
T04
X00356867Y00096127
X00509267
Y00502527
X00356867
M30
