%TF.GenerationSoftware,Altium Limited,Altium Designer,23.1.1 (15)*%
G04 Layer_Physical_Order=2*
G04 Layer_Color=16711680*
%FSLAX45Y45*%
%MOMM*%
%TF.SameCoordinates,01669E30-921B-4111-9988-DD99B11C2B28*%
%TF.FilePolarity,Positive*%
%TF.FileFunction,Copper,L2,Bot,Signal*%
%TF.Part,Single*%
G01*
G75*
%TA.AperFunction,ComponentPad*%
%ADD11C,2.00000*%
%ADD12C,1.53000*%
%ADD13R,1.53000X1.53000*%
%ADD14R,1.37000X1.37000*%
%ADD15C,1.37000*%
%ADD16R,1.53000X1.53000*%
%ADD17R,1.37000X1.37000*%
%ADD18R,1.52400X1.52400*%
%ADD19C,1.52400*%
%ADD20C,1.65100*%
%TA.AperFunction,Conductor*%
%ADD21C,0.30000*%
G36*
X7848567Y6346067D02*
Y-3933D01*
X12692D01*
X9432Y-3918D01*
X0Y0D01*
X12667Y6371467D01*
X7823167D01*
X7848567Y6346067D01*
D02*
G37*
%LPC*%
G36*
X5386967Y5852966D02*
X5153967D01*
Y5792544D01*
X4711667D01*
X4690207Y5788275D01*
X4672014Y5776119D01*
X4532314Y5636419D01*
X4520158Y5618227D01*
X4515890Y5596767D01*
Y4788840D01*
X4520158Y4767380D01*
X4532314Y4749188D01*
X4549888Y4731614D01*
X4568081Y4719458D01*
X4589541Y4715189D01*
X4990867D01*
X4999684Y4699918D01*
X5021318Y4678284D01*
X5047815Y4662985D01*
X5077369Y4655067D01*
X5107965D01*
X5137519Y4662985D01*
X5164016Y4678284D01*
X5185650Y4699918D01*
X5200948Y4726415D01*
X5208867Y4755969D01*
Y4786564D01*
X5200948Y4816118D01*
X5185650Y4842615D01*
X5164016Y4864250D01*
X5137519Y4879548D01*
X5107965Y4887466D01*
X5077369D01*
X5047815Y4879548D01*
X5021318Y4864250D01*
X4999684Y4842615D01*
X4990867Y4827344D01*
X4628044D01*
Y5573539D01*
X4734895Y5680389D01*
X5153967D01*
Y5619967D01*
X5386967D01*
Y5852966D01*
D02*
G37*
G36*
X5108801Y5147816D02*
X5076533D01*
X5045365Y5139465D01*
X5017420Y5123331D01*
X4994603Y5100514D01*
X4978469Y5072569D01*
X4970117Y5041401D01*
Y5009132D01*
X4978469Y4977964D01*
X4994603Y4950019D01*
X5017420Y4927202D01*
X5045365Y4911068D01*
X5076533Y4902717D01*
X5108801D01*
X5139969Y4911068D01*
X5167914Y4927202D01*
X5190731Y4950019D01*
X5206865Y4977964D01*
X5215217Y5009132D01*
Y5041401D01*
X5206865Y5072569D01*
X5190731Y5100514D01*
X5167914Y5123331D01*
X5139969Y5139465D01*
X5108801Y5147816D01*
D02*
G37*
G36*
X3584801D02*
X3552533D01*
X3521365Y5139465D01*
X3493420Y5123331D01*
X3470603Y5100514D01*
X3454469Y5072569D01*
X3446117Y5041401D01*
Y5009132D01*
X3454469Y4977964D01*
X3470603Y4950019D01*
X3493420Y4927202D01*
X3521365Y4911068D01*
X3552533Y4902717D01*
X3584801D01*
X3615969Y4911068D01*
X3643914Y4927202D01*
X3666731Y4950019D01*
X3682865Y4977964D01*
X3691217Y5009132D01*
Y5041401D01*
X3682865Y5072569D01*
X3666731Y5100514D01*
X3643914Y5123331D01*
X3615969Y5139465D01*
X3584801Y5147816D01*
D02*
G37*
G36*
X3583965Y4887466D02*
X3553369D01*
X3523815Y4879548D01*
X3497318Y4864250D01*
X3475684Y4842615D01*
X3460386Y4816118D01*
X3452467Y4786564D01*
Y4755969D01*
X3460386Y4726415D01*
X3475684Y4699918D01*
X3497318Y4678284D01*
X3523815Y4662985D01*
X3553369Y4655067D01*
X3583965D01*
X3613519Y4662985D01*
X3640016Y4678284D01*
X3661650Y4699918D01*
X3676948Y4726415D01*
X3684867Y4755969D01*
Y4786564D01*
X3676948Y4816118D01*
X3661650Y4842615D01*
X3640016Y4864250D01*
X3613519Y4879548D01*
X3583965Y4887466D01*
D02*
G37*
G36*
Y4633466D02*
X3553369D01*
X3523815Y4625548D01*
X3497318Y4610250D01*
X3475684Y4588615D01*
X3460386Y4562118D01*
X3452467Y4532564D01*
Y4501969D01*
X3460386Y4472415D01*
X3475684Y4445918D01*
X3497318Y4424284D01*
X3523815Y4408985D01*
X3553369Y4401067D01*
X3583965D01*
X3613519Y4408985D01*
X3640016Y4424284D01*
X3661650Y4445918D01*
X3676948Y4472415D01*
X3684867Y4501969D01*
Y4532564D01*
X3676948Y4562118D01*
X3661650Y4588615D01*
X3640016Y4610250D01*
X3613519Y4625548D01*
X3583965Y4633466D01*
D02*
G37*
G36*
X5107965Y4379466D02*
X5077369D01*
X5047815Y4371548D01*
X5021318Y4356250D01*
X4999684Y4334615D01*
X4984386Y4308118D01*
X4976467Y4278564D01*
Y4247969D01*
X4984386Y4218415D01*
X4999684Y4191918D01*
X5021318Y4170284D01*
X5047815Y4154985D01*
X5077369Y4147067D01*
X5107965D01*
X5137519Y4154985D01*
X5164016Y4170284D01*
X5185650Y4191918D01*
X5200948Y4218415D01*
X5208867Y4247969D01*
Y4278564D01*
X5200948Y4308118D01*
X5185650Y4334615D01*
X5164016Y4356250D01*
X5137519Y4371548D01*
X5107965Y4379466D01*
D02*
G37*
G36*
X3583965D02*
X3553369D01*
X3523815Y4371548D01*
X3497318Y4356250D01*
X3475684Y4334615D01*
X3460386Y4308118D01*
X3452467Y4278564D01*
Y4247969D01*
X3460386Y4218415D01*
X3475684Y4191918D01*
X3497318Y4170284D01*
X3523815Y4154985D01*
X3553369Y4147067D01*
X3583965D01*
X3613519Y4154985D01*
X3640016Y4170284D01*
X3661650Y4191918D01*
X3676948Y4218415D01*
X3684867Y4247969D01*
Y4278564D01*
X3676948Y4308118D01*
X3661650Y4334615D01*
X3640016Y4356250D01*
X3613519Y4371548D01*
X3583965Y4379466D01*
D02*
G37*
G36*
X6476967Y6097344D02*
X2590767D01*
X2569307Y6093075D01*
X2551114Y6080919D01*
X1054711Y4584516D01*
X1042951Y4587666D01*
X1014383D01*
X986787Y4580272D01*
X962047Y4565988D01*
X941845Y4545787D01*
X927561Y4521046D01*
X920167Y4493451D01*
Y4464882D01*
X927561Y4437287D01*
X941845Y4412546D01*
X962047Y4392345D01*
X986787Y4378061D01*
X1014383Y4370667D01*
X1042951D01*
X1070547Y4378061D01*
X1095287Y4392345D01*
X1115488Y4412546D01*
X1129773Y4437287D01*
X1137167Y4464882D01*
Y4493451D01*
X1134016Y4505210D01*
X2613995Y5985189D01*
X6453739D01*
X6973254Y5465674D01*
X7032018Y5406910D01*
X7028867Y5395151D01*
Y5366582D01*
X7036261Y5338987D01*
X7050545Y5314246D01*
X7070747Y5294045D01*
X7095487Y5279761D01*
X7123083Y5272367D01*
X7151651D01*
X7179247Y5279761D01*
X7203987Y5294045D01*
X7224188Y5314246D01*
X7238473Y5338987D01*
X7245867Y5366582D01*
Y5395151D01*
X7238473Y5422746D01*
X7224188Y5447487D01*
X7203987Y5467688D01*
X7179247Y5481972D01*
X7151651Y5489366D01*
X7123083D01*
X7111323Y5486216D01*
X7074279Y5523260D01*
X7075111Y5531023D01*
X7088265Y5537931D01*
X7095487Y5533761D01*
X7123083Y5526367D01*
X7151651D01*
X7163411Y5529518D01*
X7276870Y5416059D01*
Y4545575D01*
X7123339Y4392044D01*
X7084185D01*
X7062726Y4387775D01*
X7044533Y4375619D01*
X7012314Y4343401D01*
X7000158Y4325208D01*
X6995890Y4303748D01*
Y4264595D01*
X5526639Y2795344D01*
X5194467D01*
X5185650Y2810615D01*
X5164016Y2832250D01*
X5137519Y2847548D01*
X5107965Y2855466D01*
X5077369D01*
X5047815Y2847548D01*
X5021318Y2832250D01*
X4999684Y2810615D01*
X4984386Y2784118D01*
X4976467Y2754564D01*
Y2723969D01*
X4984386Y2694415D01*
X4999684Y2667918D01*
X5021318Y2646284D01*
X5047815Y2630985D01*
X5077369Y2623067D01*
X5107965D01*
X5137519Y2630985D01*
X5164016Y2646284D01*
X5185650Y2667918D01*
X5194467Y2683189D01*
X5549867D01*
X5571327Y2687458D01*
X5589520Y2699614D01*
X7091620Y4201714D01*
X7103776Y4219907D01*
X7108044Y4241367D01*
Y4279889D01*
X7146567D01*
X7168027Y4284158D01*
X7186220Y4296314D01*
X7336256Y4446351D01*
X7347990Y4441490D01*
Y4014544D01*
X7268376D01*
X7262288Y4025087D01*
X7242087Y4045288D01*
X7217347Y4059572D01*
X7189751Y4066966D01*
X7161183D01*
X7133587Y4059572D01*
X7108847Y4045288D01*
X7088645Y4025087D01*
X7074361Y4000346D01*
X7066967Y3972751D01*
Y3944182D01*
X7074361Y3916587D01*
X7088645Y3891846D01*
X7108847Y3871645D01*
X7133587Y3857361D01*
X7161183Y3849967D01*
X7189751D01*
X7217347Y3857361D01*
X7242087Y3871645D01*
X7262288Y3891846D01*
X7268376Y3902389D01*
X7601990D01*
Y3009544D01*
X6640367D01*
X6618907Y3005275D01*
X6600714Y2993119D01*
X6297614Y2690019D01*
X6285458Y2671827D01*
X6281190Y2650367D01*
Y1833037D01*
X6285458Y1811577D01*
X6297614Y1793384D01*
X6310314Y1780684D01*
X6328507Y1768528D01*
X6349967Y1764259D01*
X7206898D01*
X7271790Y1699368D01*
Y1106244D01*
X7230276D01*
X7224188Y1116787D01*
X7203987Y1136988D01*
X7179247Y1151272D01*
X7151651Y1158666D01*
X7123083D01*
X7095487Y1151272D01*
X7070747Y1136988D01*
X7050545Y1116787D01*
X7044458Y1106244D01*
X6542868D01*
X6140193Y1508919D01*
X6122000Y1521075D01*
X6100540Y1525344D01*
X5194467D01*
X5185650Y1540615D01*
X5164016Y1562250D01*
X5137519Y1577548D01*
X5107965Y1585466D01*
X5077369D01*
X5047815Y1577548D01*
X5021318Y1562250D01*
X4999684Y1540615D01*
X4984386Y1514118D01*
X4976467Y1484564D01*
Y1453969D01*
X4984386Y1424415D01*
X4999684Y1397918D01*
X5021318Y1376284D01*
X5047815Y1360985D01*
X5077369Y1353067D01*
X5107965D01*
X5137519Y1360985D01*
X5164016Y1376284D01*
X5185650Y1397918D01*
X5194467Y1413189D01*
X6077312D01*
X6479987Y1010514D01*
X6498180Y998358D01*
X6519640Y994089D01*
X7044458D01*
X7050545Y983546D01*
X7070747Y963345D01*
X7095487Y949061D01*
X7123083Y941667D01*
X7151651D01*
X7179247Y949061D01*
X7203987Y963345D01*
X7224188Y983546D01*
X7230276Y994089D01*
X7310293D01*
X7328790Y997768D01*
X7341490Y990752D01*
Y723995D01*
X7196839Y579344D01*
X6410285D01*
X5734710Y1254919D01*
X5716517Y1267075D01*
X5695057Y1271344D01*
X5208867D01*
Y1331466D01*
X4976467D01*
Y1099067D01*
X5208867D01*
Y1159189D01*
X5671829D01*
X6309941Y521077D01*
X6305081Y509344D01*
X5390215D01*
X5071428Y828131D01*
X5078803Y838717D01*
X5108801D01*
X5139969Y847068D01*
X5167914Y863202D01*
X5190731Y886019D01*
X5206865Y913964D01*
X5215217Y945132D01*
Y977401D01*
X5206865Y1008569D01*
X5190731Y1036514D01*
X5167914Y1059331D01*
X5139969Y1075465D01*
X5108801Y1083816D01*
X5076533D01*
X5045365Y1075465D01*
X5017420Y1059331D01*
X4994603Y1036514D01*
X4978469Y1008569D01*
X4970117Y977401D01*
Y947402D01*
X4959532Y940027D01*
X3948744Y1950815D01*
Y2184061D01*
X3944476Y2205521D01*
X3942244Y2208860D01*
Y3183767D01*
X3937976Y3205227D01*
X3925820Y3223419D01*
X3680303Y3468936D01*
X3684867Y3485969D01*
Y3516564D01*
X3676948Y3546118D01*
X3661650Y3572615D01*
X3640016Y3594250D01*
X3613519Y3609548D01*
X3583965Y3617466D01*
X3553369D01*
X3523815Y3609548D01*
X3497318Y3594250D01*
X3475684Y3572615D01*
X3460386Y3546118D01*
X3452467Y3516564D01*
Y3485969D01*
X3460386Y3456415D01*
X3475684Y3429918D01*
X3497318Y3408284D01*
X3523815Y3392985D01*
X3553369Y3385067D01*
X3583965D01*
X3600998Y3389631D01*
X3629837Y3360791D01*
X3622039Y3350628D01*
X3613519Y3355548D01*
X3583965Y3363466D01*
X3553369D01*
X3523815Y3355548D01*
X3497318Y3340250D01*
X3475684Y3318615D01*
X3460386Y3292118D01*
X3452467Y3262564D01*
Y3231969D01*
X3460386Y3202415D01*
X3475684Y3175918D01*
X3497318Y3154284D01*
X3523815Y3138985D01*
X3553369Y3131067D01*
X3583965D01*
X3613519Y3138985D01*
X3640016Y3154284D01*
X3661650Y3175918D01*
X3676948Y3202415D01*
X3684867Y3231969D01*
Y3262564D01*
X3676948Y3292118D01*
X3672029Y3300639D01*
X3682191Y3308437D01*
X3830090Y3160539D01*
Y2243543D01*
X3818356Y2238682D01*
X3786120Y2270918D01*
X3786120Y2270919D01*
X3767927Y2283075D01*
X3746467Y2287344D01*
X3670467D01*
X3661650Y2302615D01*
X3640016Y2324250D01*
X3613519Y2339548D01*
X3583965Y2347466D01*
X3553369D01*
X3523815Y2339548D01*
X3497318Y2324250D01*
X3475684Y2302615D01*
X3460386Y2276118D01*
X3452467Y2246564D01*
Y2215969D01*
X3460386Y2186415D01*
X3465305Y2177894D01*
X3455143Y2170096D01*
X3231044Y2394195D01*
Y3615567D01*
X3226776Y3637027D01*
X3214620Y3655219D01*
X3182383Y3687456D01*
X3187243Y3699189D01*
X3466867D01*
X3475684Y3683918D01*
X3497318Y3662284D01*
X3523815Y3646985D01*
X3553369Y3639067D01*
X3583965D01*
X3613519Y3646985D01*
X3640016Y3662284D01*
X3661650Y3683918D01*
X3676948Y3710415D01*
X3684867Y3739969D01*
Y3770564D01*
X3676948Y3800118D01*
X3661650Y3826615D01*
X3640016Y3848250D01*
X3613519Y3863548D01*
X3583965Y3871466D01*
X3553369D01*
X3523815Y3863548D01*
X3497318Y3848250D01*
X3475684Y3826615D01*
X3466867Y3811344D01*
X380967D01*
X359507Y3807075D01*
X341314Y3794919D01*
X197144Y3650749D01*
X184988Y3632556D01*
X180719Y3611096D01*
Y575634D01*
X184988Y554174D01*
X197144Y535981D01*
X357611Y375514D01*
X375804Y363358D01*
X397264Y359089D01*
X1533629D01*
X1555089Y363358D01*
X1573281Y375514D01*
X1590855Y393088D01*
X1603011Y411281D01*
X1607280Y432740D01*
Y617393D01*
X1607181Y617891D01*
X1623295Y634005D01*
X1631917Y648939D01*
X1644617D01*
X1653239Y634005D01*
X1679305Y607939D01*
X1711229Y589508D01*
X1746836Y579967D01*
X1783698D01*
X1819305Y589508D01*
X1851229Y607939D01*
X1877295Y634005D01*
X1885917Y648939D01*
X1898617D01*
X1907239Y634005D01*
X1933305Y607939D01*
X1965229Y589508D01*
X2000836Y579967D01*
X2037698D01*
X2073305Y589508D01*
X2105229Y607939D01*
X2131295Y634005D01*
X2139917Y648939D01*
X2152617D01*
X2161239Y634005D01*
X2187305Y607939D01*
X2219229Y589508D01*
X2254836Y579967D01*
X2291698D01*
X2327305Y589508D01*
X2359229Y607939D01*
X2385295Y634005D01*
X2403726Y665929D01*
X2413267Y701535D01*
Y738398D01*
X2403726Y774004D01*
X2385295Y805928D01*
X2359229Y831994D01*
X2327305Y850426D01*
X2291698Y859966D01*
X2254836D01*
X2219229Y850426D01*
X2187305Y831994D01*
X2161239Y805928D01*
X2152617Y790994D01*
X2139917D01*
X2131295Y805928D01*
X2105229Y831994D01*
X2073305Y850426D01*
X2037698Y859966D01*
X2000836D01*
X1965229Y850426D01*
X1933305Y831994D01*
X1907239Y805928D01*
X1898617Y790994D01*
X1885917D01*
X1877295Y805928D01*
X1851229Y831994D01*
X1819305Y850426D01*
X1783698Y859966D01*
X1746836D01*
X1711229Y850426D01*
X1679305Y831994D01*
X1653239Y805928D01*
X1644617Y790994D01*
X1631917D01*
X1623295Y805928D01*
X1597229Y831994D01*
X1565305Y850426D01*
X1529698Y859966D01*
X1492836D01*
X1457229Y850426D01*
X1425305Y831994D01*
X1399239Y805928D01*
X1390617Y790994D01*
X1377917D01*
X1369295Y805928D01*
X1343229Y831994D01*
X1311305Y850426D01*
X1275698Y859966D01*
X1238836D01*
X1203229Y850426D01*
X1171305Y831994D01*
X1145239Y805928D01*
X1136617Y790994D01*
X1123917D01*
X1115295Y805928D01*
X1089229Y831994D01*
X1059344Y849248D01*
Y925339D01*
X1123015Y989009D01*
X2435459D01*
X3188654Y235814D01*
X3206847Y223658D01*
X3228307Y219389D01*
X7488093D01*
X7509553Y223658D01*
X7527746Y235814D01*
X7647219Y355287D01*
X7659375Y373480D01*
X7663644Y394940D01*
Y932680D01*
X7663944Y934187D01*
Y1838576D01*
X7663644Y1840082D01*
Y2818936D01*
X7659375Y2840396D01*
X7650644Y2853463D01*
Y2897389D01*
X7658067D01*
X7679527Y2901658D01*
X7697720Y2913814D01*
X7709876Y2932006D01*
X7714144Y2953466D01*
Y3940893D01*
X7709876Y3962353D01*
X7697720Y3980546D01*
X7680146Y3998119D01*
X7661953Y4010275D01*
X7640493Y4014544D01*
X7460144D01*
Y5639947D01*
X7455876Y5661407D01*
X7443720Y5679599D01*
X7278620Y5844699D01*
X7260427Y5856855D01*
X7238967Y5861124D01*
X7111967D01*
X7090507Y5856855D01*
X7072314Y5844699D01*
X6973254Y5745639D01*
X6961098Y5727447D01*
X6956830Y5705987D01*
Y5657303D01*
X6945096Y5652443D01*
X6516620Y6080919D01*
X6498427Y6093075D01*
X6476967Y6097344D01*
D02*
G37*
G36*
X5107965Y4125466D02*
X5077369D01*
X5047815Y4117548D01*
X5021318Y4102250D01*
X4999684Y4080615D01*
X4984386Y4054118D01*
X4976467Y4024564D01*
Y3993969D01*
X4984386Y3964415D01*
X4999684Y3937918D01*
X5021318Y3916284D01*
X5047815Y3900985D01*
X5077369Y3893067D01*
X5107965D01*
X5137519Y3900985D01*
X5164016Y3916284D01*
X5185650Y3937918D01*
X5200948Y3964415D01*
X5208867Y3993969D01*
Y4024564D01*
X5200948Y4054118D01*
X5185650Y4080615D01*
X5164016Y4102250D01*
X5137519Y4117548D01*
X5107965Y4125466D01*
D02*
G37*
G36*
Y3871466D02*
X5077369D01*
X5047815Y3863548D01*
X5021318Y3848250D01*
X4999684Y3826615D01*
X4984386Y3800118D01*
X4976467Y3770564D01*
Y3739969D01*
X4984386Y3710415D01*
X4999684Y3683918D01*
X5021318Y3662284D01*
X5047815Y3646985D01*
X5077369Y3639067D01*
X5107965D01*
X5137519Y3646985D01*
X5164016Y3662284D01*
X5185650Y3683918D01*
X5200948Y3710415D01*
X5208867Y3739969D01*
Y3770564D01*
X5200948Y3800118D01*
X5185650Y3826615D01*
X5164016Y3848250D01*
X5137519Y3863548D01*
X5107965Y3871466D01*
D02*
G37*
G36*
X7189751Y3812966D02*
X7161183D01*
X7133587Y3805572D01*
X7108847Y3791288D01*
X7088645Y3771087D01*
X7082558Y3760544D01*
X6794467D01*
X6773007Y3756275D01*
X6754814Y3744119D01*
X5552039Y2541344D01*
X5194467D01*
X5185650Y2556615D01*
X5164016Y2578250D01*
X5137519Y2593548D01*
X5107965Y2601466D01*
X5077369D01*
X5047815Y2593548D01*
X5021318Y2578250D01*
X4999684Y2556615D01*
X4984386Y2530118D01*
X4976467Y2500564D01*
Y2469969D01*
X4984386Y2440415D01*
X4999684Y2413918D01*
X5021318Y2392284D01*
X5047815Y2376985D01*
X5077369Y2369067D01*
X5107965D01*
X5137519Y2376985D01*
X5164016Y2392284D01*
X5185650Y2413918D01*
X5194467Y2429189D01*
X5575267D01*
X5596727Y2433458D01*
X5614920Y2445614D01*
X6817695Y3648389D01*
X7082558D01*
X7088645Y3637846D01*
X7108847Y3617645D01*
X7133587Y3603361D01*
X7161183Y3595967D01*
X7189751D01*
X7217347Y3603361D01*
X7242087Y3617645D01*
X7262288Y3637846D01*
X7276573Y3662587D01*
X7283967Y3690182D01*
Y3718751D01*
X7276573Y3746346D01*
X7262288Y3771087D01*
X7242087Y3791288D01*
X7217347Y3805572D01*
X7189751Y3812966D01*
D02*
G37*
G36*
X5107965Y3617466D02*
X5077369D01*
X5047815Y3609548D01*
X5021318Y3594250D01*
X4999684Y3572615D01*
X4984386Y3546118D01*
X4976467Y3516564D01*
Y3485969D01*
X4984386Y3456415D01*
X4999684Y3429918D01*
X5021318Y3408284D01*
X5047815Y3392985D01*
X5077369Y3385067D01*
X5107965D01*
X5137519Y3392985D01*
X5164016Y3408284D01*
X5185650Y3429918D01*
X5200948Y3456415D01*
X5208867Y3485969D01*
Y3516564D01*
X5200948Y3546118D01*
X5185650Y3572615D01*
X5164016Y3594250D01*
X5137519Y3609548D01*
X5107965Y3617466D01*
D02*
G37*
G36*
Y3363466D02*
X5077369D01*
X5047815Y3355548D01*
X5021318Y3340250D01*
X4999684Y3318615D01*
X4984386Y3292118D01*
X4976467Y3262564D01*
Y3231969D01*
X4984386Y3202415D01*
X4999684Y3175918D01*
X5021318Y3154284D01*
X5047815Y3138985D01*
X5077369Y3131067D01*
X5107965D01*
X5137519Y3138985D01*
X5164016Y3154284D01*
X5185650Y3175918D01*
X5200948Y3202415D01*
X5208867Y3231969D01*
Y3262564D01*
X5200948Y3292118D01*
X5185650Y3318615D01*
X5164016Y3340250D01*
X5137519Y3355548D01*
X5107965Y3363466D01*
D02*
G37*
G36*
Y3109466D02*
X5077369D01*
X5047815Y3101548D01*
X5021318Y3086250D01*
X4999684Y3064615D01*
X4984386Y3038118D01*
X4976467Y3008564D01*
Y2977969D01*
X4984386Y2948415D01*
X4999684Y2921918D01*
X5021318Y2900284D01*
X5047815Y2884985D01*
X5077369Y2877067D01*
X5107965D01*
X5137519Y2884985D01*
X5164016Y2900284D01*
X5185650Y2921918D01*
X5200948Y2948415D01*
X5208867Y2977969D01*
Y3008564D01*
X5200948Y3038118D01*
X5185650Y3064615D01*
X5164016Y3086250D01*
X5137519Y3101548D01*
X5107965Y3109466D01*
D02*
G37*
G36*
X3583965D02*
X3553369D01*
X3523815Y3101548D01*
X3497318Y3086250D01*
X3475684Y3064615D01*
X3460386Y3038118D01*
X3452467Y3008564D01*
Y2977969D01*
X3460386Y2948415D01*
X3475684Y2921918D01*
X3497318Y2900284D01*
X3523815Y2884985D01*
X3553369Y2877067D01*
X3583965D01*
X3613519Y2884985D01*
X3640016Y2900284D01*
X3661650Y2921918D01*
X3676948Y2948415D01*
X3684867Y2977969D01*
Y3008564D01*
X3676948Y3038118D01*
X3661650Y3064615D01*
X3640016Y3086250D01*
X3613519Y3101548D01*
X3583965Y3109466D01*
D02*
G37*
G36*
Y2855466D02*
X3553369D01*
X3523815Y2847548D01*
X3497318Y2832250D01*
X3475684Y2810615D01*
X3460386Y2784118D01*
X3452467Y2754564D01*
Y2723969D01*
X3460386Y2694415D01*
X3475684Y2667918D01*
X3497318Y2646284D01*
X3523815Y2630985D01*
X3553369Y2623067D01*
X3583965D01*
X3613519Y2630985D01*
X3640016Y2646284D01*
X3661650Y2667918D01*
X3676948Y2694415D01*
X3684867Y2723969D01*
Y2754564D01*
X3676948Y2784118D01*
X3661650Y2810615D01*
X3640016Y2832250D01*
X3613519Y2847548D01*
X3583965Y2855466D01*
D02*
G37*
G36*
Y2601466D02*
X3553369D01*
X3523815Y2593548D01*
X3497318Y2578250D01*
X3475684Y2556615D01*
X3460386Y2530118D01*
X3452467Y2500564D01*
Y2469969D01*
X3460386Y2440415D01*
X3475684Y2413918D01*
X3497318Y2392284D01*
X3523815Y2376985D01*
X3553369Y2369067D01*
X3583965D01*
X3613519Y2376985D01*
X3640016Y2392284D01*
X3661650Y2413918D01*
X3676948Y2440415D01*
X3684867Y2469969D01*
Y2500564D01*
X3676948Y2530118D01*
X3661650Y2556615D01*
X3640016Y2578250D01*
X3613519Y2593548D01*
X3583965Y2601466D01*
D02*
G37*
G36*
X3776221Y5288897D02*
X2036321D01*
X2014861Y5284629D01*
X1996668Y5272473D01*
X1308711Y4584516D01*
X1296951Y4587666D01*
X1268383D01*
X1240787Y4580272D01*
X1216047Y4565988D01*
X1195845Y4545787D01*
X1181561Y4521046D01*
X1174167Y4493451D01*
Y4464882D01*
X1181561Y4437287D01*
X1195845Y4412546D01*
X1216047Y4392345D01*
X1240787Y4378061D01*
X1268383Y4370667D01*
X1296951D01*
X1324546Y4378061D01*
X1349287Y4392345D01*
X1369488Y4412546D01*
X1383773Y4437287D01*
X1391167Y4464882D01*
Y4493451D01*
X1388016Y4505210D01*
X2059549Y5176743D01*
X3752992D01*
X4668290Y4261446D01*
Y2078867D01*
X4672558Y2057407D01*
X4684714Y2039214D01*
X4786314Y1937614D01*
X4804507Y1925458D01*
X4825967Y1921189D01*
X4990867D01*
X4999684Y1905918D01*
X5021318Y1884284D01*
X5047815Y1868985D01*
X5077369Y1861067D01*
X5107965D01*
X5137519Y1868985D01*
X5164016Y1884284D01*
X5185650Y1905918D01*
X5200948Y1932415D01*
X5208867Y1961969D01*
Y1992564D01*
X5200948Y2022118D01*
X5185650Y2048615D01*
X5164016Y2070250D01*
X5137519Y2085548D01*
X5107965Y2093466D01*
X5077369D01*
X5047815Y2085548D01*
X5021318Y2070250D01*
X4999684Y2048615D01*
X4990867Y2033344D01*
X4849195D01*
X4780444Y2102095D01*
Y4284674D01*
X4776176Y4306134D01*
X4764020Y4324326D01*
X3815873Y5272473D01*
X3797680Y5284629D01*
X3776221Y5288897D01*
D02*
G37*
G36*
X5107965Y1839466D02*
X5077369D01*
X5047815Y1831548D01*
X5021318Y1816250D01*
X4999684Y1794615D01*
X4984386Y1768118D01*
X4976467Y1738564D01*
Y1707969D01*
X4984386Y1678415D01*
X4999684Y1651918D01*
X5021318Y1630284D01*
X5047815Y1614985D01*
X5077369Y1607067D01*
X5107965D01*
X5137519Y1614985D01*
X5164016Y1630284D01*
X5185650Y1651918D01*
X5200948Y1678415D01*
X5208867Y1707969D01*
Y1738564D01*
X5200948Y1768118D01*
X5185650Y1794615D01*
X5164016Y1816250D01*
X5137519Y1831548D01*
X5107965Y1839466D01*
D02*
G37*
G36*
Y2347466D02*
X5077369D01*
X5047815Y2339548D01*
X5021318Y2324250D01*
X4999684Y2302615D01*
X4984386Y2276118D01*
X4976467Y2246564D01*
Y2215969D01*
X4984386Y2186415D01*
X4999684Y2159918D01*
X5021318Y2138284D01*
X5047815Y2122985D01*
X5077369Y2115067D01*
X5107965D01*
X5137519Y2122985D01*
X5164016Y2138284D01*
X5185650Y2159918D01*
X5194467Y2175189D01*
X5590139D01*
X6246814Y1518514D01*
X6265007Y1506358D01*
X6286467Y1502089D01*
X6395490D01*
Y1329566D01*
X6399758Y1308106D01*
X6411914Y1289914D01*
X6424678Y1277150D01*
X6424679Y1277149D01*
X6437315Y1264513D01*
X6455507Y1252358D01*
X6476967Y1248089D01*
X7044458D01*
X7050545Y1237546D01*
X7070747Y1217345D01*
X7095487Y1203061D01*
X7123083Y1195667D01*
X7151651D01*
X7179247Y1203061D01*
X7203987Y1217345D01*
X7224188Y1237546D01*
X7238473Y1262287D01*
X7245867Y1289882D01*
Y1318451D01*
X7238473Y1346046D01*
X7224188Y1370787D01*
X7203987Y1390988D01*
X7179247Y1405272D01*
X7151651Y1412666D01*
X7123083D01*
X7095487Y1405272D01*
X7070747Y1390988D01*
X7050545Y1370787D01*
X7044458Y1360244D01*
X6507644D01*
Y1502089D01*
X7044458D01*
X7050545Y1491546D01*
X7070747Y1471345D01*
X7095487Y1457061D01*
X7123083Y1449667D01*
X7151651D01*
X7179247Y1457061D01*
X7203987Y1471345D01*
X7224188Y1491546D01*
X7238473Y1516287D01*
X7245867Y1543882D01*
Y1572451D01*
X7238473Y1600046D01*
X7224188Y1624787D01*
X7203987Y1644988D01*
X7179247Y1659272D01*
X7151651Y1666666D01*
X7123083D01*
X7095487Y1659272D01*
X7070747Y1644988D01*
X7050545Y1624787D01*
X7044458Y1614244D01*
X6309695D01*
X5653020Y2270919D01*
X5634827Y2283075D01*
X5613367Y2287344D01*
X5194467D01*
X5185650Y2302615D01*
X5164016Y2324250D01*
X5137519Y2339548D01*
X5107965Y2347466D01*
D02*
G37*
%LPD*%
G36*
X1414151Y3496156D02*
X1309030Y3391035D01*
X1275698Y3399966D01*
X1238836D01*
X1203229Y3390426D01*
X1171305Y3371994D01*
X1145239Y3345928D01*
X1136617Y3330994D01*
X1123917D01*
X1115295Y3345928D01*
X1089229Y3371994D01*
X1059344Y3389248D01*
Y3427239D01*
X1139995Y3507889D01*
X1409291D01*
X1414151Y3496156D01*
D02*
G37*
G36*
X1019651Y3546156D02*
X963614Y3490119D01*
X951458Y3471927D01*
X947190Y3450467D01*
Y3389248D01*
X917305Y3371994D01*
X891239Y3345928D01*
X882617Y3330994D01*
X869917D01*
X861295Y3345928D01*
X835229Y3371994D01*
X805344Y3389248D01*
Y3503439D01*
X859795Y3557889D01*
X1014790D01*
X1019651Y3546156D01*
D02*
G37*
G36*
X739451Y3596156D02*
X709614Y3566319D01*
X697458Y3548127D01*
X693190Y3526667D01*
Y3389248D01*
X663305Y3371994D01*
X637239Y3345928D01*
X628617Y3330994D01*
X615917D01*
X607295Y3345928D01*
X581229Y3371994D01*
X549305Y3390426D01*
X513698Y3399966D01*
X476836D01*
X441229Y3390426D01*
X409305Y3371994D01*
X405598Y3368287D01*
X393864Y3373147D01*
Y3503439D01*
X498315Y3607889D01*
X734590D01*
X739451Y3596156D01*
D02*
G37*
G36*
X2777093Y1950763D02*
X2781361Y1929303D01*
X2793517Y1911110D01*
X3457031Y1247597D01*
X3452467Y1230564D01*
Y1199969D01*
X3460386Y1170415D01*
X3475684Y1143918D01*
X3497318Y1122284D01*
X3523815Y1106985D01*
X3553369Y1099067D01*
X3583965D01*
X3613519Y1106985D01*
X3640016Y1122284D01*
X3661650Y1143918D01*
X3676948Y1170415D01*
X3684867Y1199969D01*
Y1230564D01*
X3676948Y1260118D01*
X3661650Y1286615D01*
X3640016Y1308250D01*
X3613519Y1323548D01*
X3583965Y1331466D01*
X3553369D01*
X3536336Y1326903D01*
X3507496Y1355743D01*
X3515294Y1365905D01*
X3523815Y1360985D01*
X3553369Y1353067D01*
X3583965D01*
X3613519Y1360985D01*
X3640016Y1376284D01*
X3661650Y1397918D01*
X3676948Y1424415D01*
X3684867Y1453969D01*
Y1484564D01*
X3676948Y1514118D01*
X3661650Y1540615D01*
X3640016Y1562250D01*
X3613519Y1577548D01*
X3583965Y1585466D01*
X3553369D01*
X3536336Y1580903D01*
X3507497Y1609742D01*
X3515295Y1619905D01*
X3523815Y1614985D01*
X3553369Y1607067D01*
X3583965D01*
X3613519Y1614985D01*
X3640016Y1630284D01*
X3661650Y1651918D01*
X3676948Y1678415D01*
X3684867Y1707969D01*
Y1738564D01*
X3676948Y1768118D01*
X3661650Y1794615D01*
X3640016Y1816250D01*
X3613519Y1831548D01*
X3583965Y1839466D01*
X3553369D01*
X3536336Y1834903D01*
X3507497Y1863742D01*
X3515295Y1873905D01*
X3523815Y1868985D01*
X3553369Y1861067D01*
X3583965D01*
X3613519Y1868985D01*
X3640016Y1884284D01*
X3661650Y1905918D01*
X3676948Y1932415D01*
X3684867Y1961969D01*
Y1992564D01*
X3676948Y2022118D01*
X3661650Y2048615D01*
X3640016Y2070250D01*
X3613519Y2085548D01*
X3583965Y2093466D01*
X3553369D01*
X3536336Y2088903D01*
X3507497Y2117742D01*
X3515295Y2127905D01*
X3523815Y2122985D01*
X3553369Y2115067D01*
X3583965D01*
X3613519Y2122985D01*
X3640016Y2138284D01*
X3661650Y2159918D01*
X3670467Y2175189D01*
X3723239D01*
X3766590Y2131838D01*
Y636344D01*
X3274395D01*
X2964344Y946395D01*
Y1047967D01*
X3024767D01*
Y1280966D01*
X2791767D01*
Y1047967D01*
X2852190D01*
Y923167D01*
X2856458Y901707D01*
X2868614Y883514D01*
X3211514Y540614D01*
X3229707Y528458D01*
X3251167Y524189D01*
X3805093D01*
X3826553Y528458D01*
X3844746Y540614D01*
X3862320Y558188D01*
X3874476Y576381D01*
X3878744Y597840D01*
Y1845610D01*
X3890478Y1850471D01*
X5274171Y466777D01*
X5269311Y455044D01*
X3252495D01*
X1567344Y2140195D01*
Y3130685D01*
X1597229Y3147939D01*
X1623295Y3174005D01*
X1631917Y3188939D01*
X1644617D01*
X1653239Y3174005D01*
X1679305Y3147939D01*
X1711229Y3129508D01*
X1746836Y3119967D01*
X1783698D01*
X1819305Y3129508D01*
X1851229Y3147939D01*
X1877295Y3174005D01*
X1885917Y3188939D01*
X1898617D01*
X1907239Y3174005D01*
X1933305Y3147939D01*
X1965229Y3129508D01*
X2000836Y3119967D01*
X2037698D01*
X2073305Y3129508D01*
X2105229Y3147939D01*
X2131295Y3174005D01*
X2139917Y3188939D01*
X2152617D01*
X2161239Y3174005D01*
X2187305Y3147939D01*
X2219229Y3129508D01*
X2254836Y3119967D01*
X2291698D01*
X2327305Y3129508D01*
X2359229Y3147939D01*
X2385295Y3174005D01*
X2403726Y3205929D01*
X2413267Y3241535D01*
Y3278398D01*
X2403726Y3314004D01*
X2385295Y3345928D01*
X2359229Y3371994D01*
X2327305Y3390426D01*
X2291698Y3399966D01*
X2254836D01*
X2219229Y3390426D01*
X2187305Y3371994D01*
X2161239Y3345928D01*
X2152617Y3330994D01*
X2139917D01*
X2131295Y3345928D01*
X2105229Y3371994D01*
X2073305Y3390426D01*
X2037698Y3399966D01*
X2000836D01*
X1965229Y3390426D01*
X1933305Y3371994D01*
X1907239Y3345928D01*
X1898617Y3330994D01*
X1885917D01*
X1877295Y3345928D01*
X1851229Y3371994D01*
X1819305Y3390426D01*
X1783698Y3399966D01*
X1746836D01*
X1711229Y3390426D01*
X1679305Y3371994D01*
X1653239Y3345928D01*
X1644617Y3330994D01*
X1631917D01*
X1623295Y3345928D01*
X1597229Y3371994D01*
X1565305Y3390426D01*
X1529698Y3399966D01*
X1494533D01*
X1487594Y3409045D01*
X1486883Y3410277D01*
X1534495Y3457889D01*
X2777093D01*
Y1950763D01*
D02*
G37*
G36*
X1399239Y3174005D02*
X1425305Y3147939D01*
X1455190Y3130685D01*
Y2116967D01*
X1459458Y2095507D01*
X1471614Y2077314D01*
X2436031Y1112897D01*
X2431171Y1101164D01*
X1099787D01*
X1078327Y1096895D01*
X1060134Y1084739D01*
X963614Y988219D01*
X951458Y970027D01*
X947190Y948567D01*
Y849248D01*
X917305Y831994D01*
X891239Y805928D01*
X872808Y774004D01*
X863267Y738398D01*
Y701535D01*
X872808Y665929D01*
X891239Y634005D01*
X917305Y607939D01*
X949229Y589508D01*
X964022Y585544D01*
X962350Y572844D01*
X536184D01*
X534512Y585544D01*
X549305Y589508D01*
X581229Y607939D01*
X607295Y634005D01*
X625726Y665929D01*
X635267Y701535D01*
Y738398D01*
X625726Y774004D01*
X607295Y805928D01*
X581229Y831994D01*
X549305Y850426D01*
X513698Y859966D01*
X476836D01*
X441229Y850426D01*
X409305Y831994D01*
X405598Y828287D01*
X393864Y833147D01*
Y3146786D01*
X405598Y3151646D01*
X409305Y3147939D01*
X441229Y3129508D01*
X476836Y3119967D01*
X513698D01*
X549305Y3129508D01*
X581229Y3147939D01*
X607295Y3174005D01*
X615917Y3188939D01*
X628617D01*
X637239Y3174005D01*
X663305Y3147939D01*
X695229Y3129508D01*
X730836Y3119967D01*
X767698D01*
X803305Y3129508D01*
X835229Y3147939D01*
X861295Y3174005D01*
X869917Y3188939D01*
X882617D01*
X891239Y3174005D01*
X917305Y3147939D01*
X949229Y3129508D01*
X984836Y3119967D01*
X1021698D01*
X1057305Y3129508D01*
X1089229Y3147939D01*
X1115295Y3174005D01*
X1123917Y3188939D01*
X1136617D01*
X1145239Y3174005D01*
X1171305Y3147939D01*
X1203229Y3129508D01*
X1238836Y3119967D01*
X1275698D01*
X1311305Y3129508D01*
X1343229Y3147939D01*
X1369295Y3174005D01*
X1377917Y3188939D01*
X1390617D01*
X1399239Y3174005D01*
D02*
G37*
G36*
X7481489Y2766714D02*
Y2389443D01*
X7469756Y2384583D01*
X7316720Y2537619D01*
X7298527Y2549775D01*
X7277067Y2554044D01*
X7239513D01*
X7230590Y2569499D01*
X7208900Y2591190D01*
X7182334Y2606527D01*
X7152705Y2614466D01*
X7122029D01*
X7092400Y2606527D01*
X7070586Y2593933D01*
X7057984Y2600233D01*
X7061574Y2827389D01*
X7304362D01*
X7304367Y2827390D01*
X7420813D01*
X7481489Y2766714D01*
D02*
G37*
G36*
X7411490Y2284239D02*
Y2011518D01*
X7399756Y2006658D01*
X7054673Y2351741D01*
Y2390787D01*
X7054816Y2399829D01*
X7067579Y2403736D01*
X7092400Y2389406D01*
X7122029Y2381467D01*
X7152705D01*
X7182334Y2389406D01*
X7208900Y2404743D01*
X7230590Y2426434D01*
X7239513Y2441889D01*
X7253839D01*
X7411490Y2284239D01*
D02*
G37*
G36*
X3457031Y2009597D02*
X3452467Y1992564D01*
Y1961969D01*
X3460386Y1932415D01*
X3465305Y1923894D01*
X3455143Y1916096D01*
X3124095Y2247144D01*
Y2327739D01*
X3136795Y2329833D01*
X3457031Y2009597D01*
D02*
G37*
G36*
X6962064Y2884689D02*
X6960379Y2882167D01*
X6954404Y2873524D01*
X6954309Y2873083D01*
X6954058Y2872708D01*
X6952008Y2862400D01*
X6949797Y2852134D01*
X6942525Y2392109D01*
X6942606Y2391666D01*
X6942518Y2391223D01*
Y2328513D01*
X6946787Y2307053D01*
X6958943Y2288861D01*
X7341490Y1906314D01*
Y1804872D01*
X7329756Y1800012D01*
X7269779Y1859989D01*
X7251586Y1872145D01*
X7230127Y1876414D01*
X6393344D01*
Y2627139D01*
X6663595Y2897389D01*
X6955275D01*
X6962064Y2884689D01*
D02*
G37*
G36*
X3016209Y2202456D02*
X3028365Y2184263D01*
X3457031Y1755597D01*
X3452467Y1738564D01*
Y1707969D01*
X3460386Y1678415D01*
X3465305Y1669894D01*
X3455143Y1662096D01*
X3002444Y2114795D01*
Y2206558D01*
X3015144Y2207809D01*
X3016209Y2202456D01*
D02*
G37*
G36*
X2906714Y2051914D02*
X3457031Y1501597D01*
X3452467Y1484564D01*
Y1453969D01*
X3460386Y1424415D01*
X3465305Y1415894D01*
X3455143Y1408096D01*
X2889247Y1973991D01*
Y2055195D01*
X2901947Y2059048D01*
X2906714Y2051914D01*
D02*
G37*
G36*
X1399239Y634005D02*
X1425305Y607939D01*
X1457229Y589508D01*
X1492836Y579967D01*
X1495125D01*
Y471244D01*
X1220110D01*
X1214850Y483944D01*
X1283794Y552888D01*
X1295950Y571081D01*
X1298957Y586199D01*
X1311305Y589508D01*
X1343229Y607939D01*
X1369295Y634005D01*
X1377917Y648939D01*
X1390617D01*
X1399239Y634005D01*
D02*
G37*
G36*
X7551489Y559637D02*
Y418168D01*
X7464865Y331544D01*
X7321371D01*
X7318586Y340723D01*
X7318339Y344244D01*
X7331067Y356972D01*
X7334572Y359314D01*
X7539756Y564498D01*
X7551489Y559637D01*
D02*
G37*
%LPC*%
G36*
X3584801Y1083816D02*
X3552533D01*
X3521365Y1075465D01*
X3493420Y1059331D01*
X3470603Y1036514D01*
X3454469Y1008569D01*
X3446117Y977401D01*
Y945132D01*
X3454469Y913964D01*
X3470603Y886019D01*
X3493420Y863202D01*
X3521365Y847068D01*
X3552533Y838717D01*
X3584801D01*
X3615969Y847068D01*
X3643914Y863202D01*
X3666731Y886019D01*
X3682865Y913964D01*
X3691217Y945132D01*
Y977401D01*
X3682865Y1008569D01*
X3666731Y1036514D01*
X3643914Y1059331D01*
X3615969Y1075465D01*
X3584801Y1083816D01*
D02*
G37*
%LPD*%
D11*
X2273267Y3259967D02*
D03*
X495267D02*
D03*
X2273267Y719967D02*
D03*
X495267D02*
D03*
X2019267Y3259967D02*
D03*
X1765267D02*
D03*
X1511267D02*
D03*
X1257267D02*
D03*
X1003267D02*
D03*
X749267D02*
D03*
X2019267Y719967D02*
D03*
X1765267D02*
D03*
X1511267D02*
D03*
X1257267D02*
D03*
X1003267D02*
D03*
X749267D02*
D03*
D12*
X5524467Y5736467D02*
D03*
X2908267Y1418467D02*
D03*
X7137367Y2497967D02*
D03*
D13*
X5270467Y5736467D02*
D03*
D14*
X1536667Y4479167D02*
D03*
D15*
X1282667D02*
D03*
X1028667D02*
D03*
X7137367Y1558167D02*
D03*
Y1304167D02*
D03*
Y1050167D02*
D03*
X7175467Y3704467D02*
D03*
Y3958467D02*
D03*
X7137367Y5380867D02*
D03*
Y5634867D02*
D03*
D16*
X2908267Y1164467D02*
D03*
X7137367Y2751967D02*
D03*
D17*
Y796167D02*
D03*
X7175467Y4212467D02*
D03*
X7137367Y5126867D02*
D03*
D18*
X5092667Y1215267D02*
D03*
D19*
Y1469267D02*
D03*
Y1723267D02*
D03*
Y1977267D02*
D03*
Y2231267D02*
D03*
Y2485267D02*
D03*
Y2739267D02*
D03*
Y2993267D02*
D03*
Y3247267D02*
D03*
Y3501267D02*
D03*
Y3755267D02*
D03*
Y4009267D02*
D03*
Y4263267D02*
D03*
Y4517267D02*
D03*
Y4771267D02*
D03*
X3568667D02*
D03*
Y4517267D02*
D03*
Y4263267D02*
D03*
Y4009267D02*
D03*
Y3755267D02*
D03*
Y3501267D02*
D03*
Y3247267D02*
D03*
Y2993267D02*
D03*
Y2739267D02*
D03*
Y2485267D02*
D03*
Y2231267D02*
D03*
Y1977267D02*
D03*
Y1723267D02*
D03*
Y1469267D02*
D03*
Y1215267D02*
D03*
D20*
X5092667Y961267D02*
D03*
X3568667D02*
D03*
Y5025267D02*
D03*
X5092667D02*
D03*
D21*
X2458687Y1045087D02*
X3228307Y275467D01*
X7488093D02*
X7607567Y394940D01*
X3228307Y275467D02*
X7488093D01*
X7220067Y523266D02*
X7397567Y700767D01*
X6387057Y523266D02*
X7220067D01*
X5695057Y1215267D02*
X6387057Y523266D01*
X3892667Y1927587D02*
X5366987Y453267D01*
X5337992Y383267D02*
X7278057D01*
X7293756Y398966D01*
X5322292D02*
X5337992Y383267D01*
X5366987Y453267D02*
X7249062D01*
X7467567Y671772D01*
X7293756Y398966D02*
X7294919D01*
X1511267Y2116967D02*
Y3259967D01*
X3229267Y398966D02*
X5322292D01*
X1511267Y2116967D02*
X3229267Y398966D01*
X380967Y3755267D02*
X3568667D01*
X236797Y3611096D02*
X380967Y3755267D01*
X2853393Y3563966D02*
X2946367Y3470993D01*
X1116767Y3563966D02*
X2853393D01*
X2833170Y1950763D02*
Y3496393D01*
X749267Y3526667D02*
X836567Y3613966D01*
X1511267Y3513967D02*
X2815596D01*
X3126567Y3663966D02*
X3174967Y3615567D01*
X3008864Y3613966D02*
X3068018Y3554813D01*
X836567Y3613966D02*
X3008864D01*
X1003267Y3450467D02*
X1116767Y3563966D01*
X1257267Y3259967D02*
X1511267Y3513967D01*
X337787Y3526667D02*
X475087Y3663966D01*
X3126567D01*
X2815596Y3513967D02*
X2833170Y3496393D01*
X7294919Y398966D02*
X7537567Y641614D01*
X7537867Y980756D02*
Y1809581D01*
X7310293Y1050167D02*
X7327867Y1067740D01*
X7607567Y933887D02*
X7607866Y934187D01*
X7397567Y1038446D02*
X7397867Y1038745D01*
X7537567Y1809881D02*
Y2789942D01*
Y1809881D02*
X7537867Y1809581D01*
X7467567Y671772D02*
Y1009451D01*
X7607866Y934187D02*
Y1838576D01*
X7467567Y1780886D02*
Y2307467D01*
X7607567Y394940D02*
Y933887D01*
X7397567Y1751891D02*
X7397867Y1751591D01*
X7467567Y1009451D02*
X7467867Y1009751D01*
X7397867Y1038745D02*
Y1751591D01*
X7467867Y1009751D02*
Y1780586D01*
X7537567Y980456D02*
X7537867Y980756D01*
X7397567Y1751891D02*
Y1929542D01*
X7607567Y1838875D02*
Y2818936D01*
X7230127Y1820337D02*
X7327867Y1722596D01*
X7537567Y641614D02*
Y980456D01*
X7327867Y1067740D02*
Y1722596D01*
X7607567Y1838875D02*
X7607866Y1838576D01*
X7397567Y700767D02*
Y1038446D01*
X7467567Y1780886D02*
X7467867Y1780586D01*
X7137367Y1050167D02*
X7310293D01*
X6998596Y2328513D02*
X7397567Y1929542D01*
X7594567Y2831936D02*
X7607567Y2818936D01*
X7277067Y2497967D02*
X7467567Y2307467D01*
X7444041Y2883467D02*
X7537567Y2789942D01*
X7594567Y2831936D02*
Y2953466D01*
X7658067D01*
X6640367D02*
X7594567D01*
X7137367Y2497967D02*
X7277067D01*
X6998596Y2328513D02*
Y2391223D01*
X7304362Y2883466D02*
X7304363Y2883467D01*
X7005867Y2851248D02*
X7038085Y2883466D01*
X7304363Y2883467D02*
X7444041D01*
X7038085Y2883466D02*
X7304362D01*
X6998596Y2391223D02*
X7005867Y2851248D01*
X6349967Y1820337D02*
X7230127D01*
X6519640Y1050167D02*
X7137367D01*
X5092667Y1469267D02*
X6100540D01*
X6519640Y1050167D01*
X5092667Y1215267D02*
X5695057D01*
X2946367Y2091567D02*
Y3470993D01*
X4589541Y4771267D02*
X5092667D01*
X4571967Y4788840D02*
X4589541Y4771267D01*
X4571967Y4788840D02*
Y5596767D01*
X4711667Y5736467D01*
X5270467D01*
X1028667Y4479167D02*
X2590767Y6041267D01*
X6476967D01*
X7012907Y5505327D02*
X7137367Y5380867D01*
X6476967Y6041267D02*
X7012907Y5505327D01*
X1282667Y4479167D02*
X2036321Y5232820D01*
X3776221D01*
X4724367Y4284674D01*
Y2078867D02*
Y4284674D01*
Y2078867D02*
X4825967Y1977267D01*
X5092667D01*
X2908267Y923167D02*
Y1164467D01*
X3822667Y597840D02*
Y2155066D01*
X3805093Y580267D02*
X3822667Y597840D01*
X3251167Y580267D02*
X3805093D01*
X2908267Y923167D02*
X3251167Y580267D01*
X3886167Y2190561D02*
Y3183767D01*
X3892667Y1927587D02*
Y2184061D01*
X3886167Y2190561D02*
X3892667Y2184061D01*
X3759103Y2218631D02*
X3822667Y2155066D01*
X3746467Y2231267D02*
X3759103Y2218631D01*
X3568667Y2231267D02*
X3746467D01*
X337787Y636147D02*
X457167Y516767D01*
X1168367D01*
X1244141Y592541D01*
X236797Y575634D02*
X397264Y415167D01*
X1533629D02*
X1551202Y432740D01*
Y617393D01*
X397264Y415167D02*
X1533629D01*
X1244141Y592541D02*
Y706841D01*
X1257267Y719967D01*
X1543795Y624801D02*
Y687439D01*
Y624801D02*
X1551202Y617393D01*
X1511267Y719967D02*
X1543795Y687439D01*
X1099787Y1045087D02*
X2458687D01*
X1003267Y719967D02*
Y948567D01*
X1099787Y1045087D01*
X1003267Y3259967D02*
Y3450467D01*
X749267Y3259967D02*
Y3526667D01*
X6337267Y1833037D02*
X6349967Y1820337D01*
X6337267Y2650367D02*
X6640367Y2953466D01*
X6337267Y1833037D02*
Y2650367D01*
X7658067Y2953466D02*
Y3940893D01*
X7404067Y3958467D02*
X7640493D01*
X7658067Y3940893D01*
X7404067Y3958467D02*
Y5639947D01*
X7404067Y3958467D02*
X7404067Y3958467D01*
X7175467Y3958467D02*
X7404067D01*
X3568667Y3501267D02*
X3886167Y3183767D01*
X7146567Y4335966D02*
X7332947Y4522347D01*
X7084185Y4335966D02*
X7146567D01*
X5092667Y2739267D02*
X5549867D01*
X7332947Y4522347D02*
Y5439287D01*
X5549867Y2739267D02*
X7051967Y4241367D01*
Y4303748D02*
X7084185Y4335966D01*
X7051967Y4241367D02*
Y4303748D01*
X5092667Y2485267D02*
X5575267D01*
X6794467Y3704467D02*
X7175467D01*
X5575267Y2485267D02*
X6794467Y3704467D01*
X5092667Y2231267D02*
X5613367D01*
X6286467Y1558167D02*
X6451567D01*
X5613367Y2231267D02*
X6286467Y1558167D01*
X2833170Y1950763D02*
X3568667Y1215266D01*
X2946367Y2091567D02*
X3568667Y1469267D01*
X3174967Y2370967D02*
X3568667Y1977267D01*
X3174967Y2370967D02*
Y3615567D01*
X3068018Y2223916D02*
Y3554813D01*
Y2223916D02*
X3568667Y1723267D01*
X6451567Y1558167D02*
X7137367D01*
X6451567Y1329566D02*
X6464331Y1316802D01*
X6451567Y1329566D02*
Y1558167D01*
X6464331Y1316802D02*
X6476967Y1304167D01*
X7137367D01*
Y5634867D02*
X7332947Y5439287D01*
X236797Y575634D02*
Y3611096D01*
X337787Y636147D02*
Y3526667D01*
X7238967Y5805047D02*
X7404067Y5639947D01*
X7111967Y5805047D02*
X7238967D01*
X7012907Y5705987D02*
X7111967Y5805047D01*
X7012907Y5505327D02*
Y5705987D01*
%TF.MD5,580fc2793365c14cb514328f95b7ce61*%
M02*
