%TF.GenerationSoftware,Altium Limited,Altium Designer,24.3.1 (35)*%
G04 Layer_Physical_Order=2*
G04 Layer_Color=16711680*
%FSLAX45Y45*%
%MOMM*%
%TF.SameCoordinates,78D6B365-3563-45E3-A517-92931350FA59*%
%TF.FilePolarity,Positive*%
%TF.FileFunction,Copper,L2,Bot,Signal*%
%TF.Part,Single*%
G01*
G75*
%TA.AperFunction,ComponentPad*%
%ADD11C,2.00000*%
%ADD12C,1.53000*%
%ADD13R,1.53000X1.53000*%
%ADD14R,1.37000X1.37000*%
%ADD15C,1.37000*%
%ADD16R,1.53000X1.53000*%
%ADD17R,1.37000X1.37000*%
%ADD18R,1.52400X1.52400*%
%ADD19C,1.52400*%
%ADD20C,1.65100*%
%TA.AperFunction,Conductor*%
%ADD21C,0.30000*%
G36*
X10388600Y8915400D02*
Y2565400D01*
X2552725D01*
X2549465Y2565416D01*
X2540033Y2569333D01*
X2552700Y8940800D01*
X10363200D01*
X10388600Y8915400D01*
D02*
G37*
%LPC*%
G36*
X7927000Y8422300D02*
X7694000D01*
Y8361877D01*
X7251700D01*
X7230240Y8357609D01*
X7212047Y8345453D01*
X7072347Y8205753D01*
X7060191Y8187560D01*
X7055923Y8166100D01*
Y7358174D01*
X7060191Y7336714D01*
X7072347Y7318521D01*
X7089921Y7300947D01*
X7108114Y7288791D01*
X7129574Y7284523D01*
X7530900D01*
X7539717Y7269251D01*
X7561351Y7247617D01*
X7587848Y7232319D01*
X7617402Y7224400D01*
X7647998D01*
X7677552Y7232319D01*
X7704049Y7247617D01*
X7725683Y7269251D01*
X7740981Y7295748D01*
X7748900Y7325302D01*
Y7355898D01*
X7740981Y7385452D01*
X7725683Y7411949D01*
X7704049Y7433583D01*
X7677552Y7448881D01*
X7647998Y7456800D01*
X7617402D01*
X7587848Y7448881D01*
X7561351Y7433583D01*
X7539717Y7411949D01*
X7530900Y7396677D01*
X7168077D01*
Y8142872D01*
X7274928Y8249723D01*
X7694000D01*
Y8189300D01*
X7927000D01*
Y8422300D01*
D02*
G37*
G36*
X7648834Y7717150D02*
X7616566D01*
X7585398Y7708798D01*
X7557453Y7692664D01*
X7534636Y7669847D01*
X7518502Y7641902D01*
X7510150Y7610734D01*
Y7578466D01*
X7518502Y7547298D01*
X7534636Y7519353D01*
X7557453Y7496536D01*
X7585398Y7480402D01*
X7616566Y7472050D01*
X7648834D01*
X7680002Y7480402D01*
X7707947Y7496536D01*
X7730764Y7519353D01*
X7746898Y7547298D01*
X7755250Y7578466D01*
Y7610734D01*
X7746898Y7641902D01*
X7730764Y7669847D01*
X7707947Y7692664D01*
X7680002Y7708798D01*
X7648834Y7717150D01*
D02*
G37*
G36*
X6124834D02*
X6092566D01*
X6061398Y7708798D01*
X6033453Y7692664D01*
X6010636Y7669847D01*
X5994502Y7641902D01*
X5986150Y7610734D01*
Y7578466D01*
X5994502Y7547298D01*
X6010636Y7519353D01*
X6033453Y7496536D01*
X6061398Y7480402D01*
X6092566Y7472050D01*
X6124834D01*
X6156002Y7480402D01*
X6183947Y7496536D01*
X6206764Y7519353D01*
X6222898Y7547298D01*
X6231250Y7578466D01*
Y7610734D01*
X6222898Y7641902D01*
X6206764Y7669847D01*
X6183947Y7692664D01*
X6156002Y7708798D01*
X6124834Y7717150D01*
D02*
G37*
G36*
X6123998Y7456800D02*
X6093402D01*
X6063848Y7448881D01*
X6037351Y7433583D01*
X6015717Y7411949D01*
X6000419Y7385452D01*
X5992500Y7355898D01*
Y7325302D01*
X6000419Y7295748D01*
X6015717Y7269251D01*
X6037351Y7247617D01*
X6063848Y7232319D01*
X6093402Y7224400D01*
X6123998D01*
X6153552Y7232319D01*
X6180049Y7247617D01*
X6201683Y7269251D01*
X6216981Y7295748D01*
X6224900Y7325302D01*
Y7355898D01*
X6216981Y7385452D01*
X6201683Y7411949D01*
X6180049Y7433583D01*
X6153552Y7448881D01*
X6123998Y7456800D01*
D02*
G37*
G36*
Y7202800D02*
X6093402D01*
X6063848Y7194881D01*
X6037351Y7179583D01*
X6015717Y7157949D01*
X6000419Y7131452D01*
X5992500Y7101898D01*
Y7071302D01*
X6000419Y7041748D01*
X6015717Y7015251D01*
X6037351Y6993617D01*
X6063848Y6978319D01*
X6093402Y6970400D01*
X6123998D01*
X6153552Y6978319D01*
X6180049Y6993617D01*
X6201683Y7015251D01*
X6216981Y7041748D01*
X6224900Y7071302D01*
Y7101898D01*
X6216981Y7131452D01*
X6201683Y7157949D01*
X6180049Y7179583D01*
X6153552Y7194881D01*
X6123998Y7202800D01*
D02*
G37*
G36*
X7647998Y6948800D02*
X7617402D01*
X7587848Y6940881D01*
X7561351Y6925583D01*
X7539717Y6903949D01*
X7524419Y6877452D01*
X7516500Y6847898D01*
Y6817302D01*
X7524419Y6787748D01*
X7539717Y6761251D01*
X7561351Y6739617D01*
X7587848Y6724319D01*
X7617402Y6716400D01*
X7647998D01*
X7677552Y6724319D01*
X7704049Y6739617D01*
X7725683Y6761251D01*
X7740981Y6787748D01*
X7748900Y6817302D01*
Y6847898D01*
X7740981Y6877452D01*
X7725683Y6903949D01*
X7704049Y6925583D01*
X7677552Y6940881D01*
X7647998Y6948800D01*
D02*
G37*
G36*
X6123998D02*
X6093402D01*
X6063848Y6940881D01*
X6037351Y6925583D01*
X6015717Y6903949D01*
X6000419Y6877452D01*
X5992500Y6847898D01*
Y6817302D01*
X6000419Y6787748D01*
X6015717Y6761251D01*
X6037351Y6739617D01*
X6063848Y6724319D01*
X6093402Y6716400D01*
X6123998D01*
X6153552Y6724319D01*
X6180049Y6739617D01*
X6201683Y6761251D01*
X6216981Y6787748D01*
X6224900Y6817302D01*
Y6847898D01*
X6216981Y6877452D01*
X6201683Y6903949D01*
X6180049Y6925583D01*
X6153552Y6940881D01*
X6123998Y6948800D01*
D02*
G37*
G36*
X9017000Y8666677D02*
X5130800D01*
X5109340Y8662409D01*
X5091147Y8650253D01*
X3594744Y7153849D01*
X3582984Y7157000D01*
X3554416D01*
X3526820Y7149606D01*
X3502080Y7135322D01*
X3481878Y7115120D01*
X3467594Y7090380D01*
X3460200Y7062784D01*
Y7034216D01*
X3467594Y7006620D01*
X3481878Y6981880D01*
X3502080Y6961678D01*
X3526820Y6947394D01*
X3554416Y6940000D01*
X3582984D01*
X3610580Y6947394D01*
X3635320Y6961678D01*
X3655522Y6981880D01*
X3669806Y7006620D01*
X3677200Y7034216D01*
Y7062784D01*
X3674049Y7074544D01*
X5154028Y8554523D01*
X8993772D01*
X9513287Y8035007D01*
X9572051Y7976244D01*
X9568900Y7964484D01*
Y7935916D01*
X9576294Y7908320D01*
X9590578Y7883580D01*
X9610780Y7863378D01*
X9635520Y7849094D01*
X9663116Y7841700D01*
X9691684D01*
X9719280Y7849094D01*
X9744020Y7863378D01*
X9764222Y7883580D01*
X9778506Y7908320D01*
X9785900Y7935916D01*
Y7964484D01*
X9778506Y7992080D01*
X9764222Y8016820D01*
X9744020Y8037022D01*
X9719280Y8051306D01*
X9691684Y8058700D01*
X9663116D01*
X9651356Y8055549D01*
X9614312Y8092593D01*
X9615144Y8100357D01*
X9628298Y8107264D01*
X9635520Y8103094D01*
X9663116Y8095700D01*
X9691684D01*
X9703444Y8098851D01*
X9816903Y7985392D01*
Y7114908D01*
X9663372Y6961377D01*
X9624218D01*
X9602759Y6957109D01*
X9584566Y6944953D01*
X9552347Y6912734D01*
X9540191Y6894541D01*
X9535923Y6873082D01*
Y6833928D01*
X8066672Y5364677D01*
X7734500D01*
X7725683Y5379949D01*
X7704049Y5401583D01*
X7677552Y5416881D01*
X7647998Y5424800D01*
X7617402D01*
X7587848Y5416881D01*
X7561351Y5401583D01*
X7539717Y5379949D01*
X7524419Y5353452D01*
X7516500Y5323898D01*
Y5293302D01*
X7524419Y5263748D01*
X7539717Y5237251D01*
X7561351Y5215617D01*
X7587848Y5200319D01*
X7617402Y5192400D01*
X7647998D01*
X7677552Y5200319D01*
X7704049Y5215617D01*
X7725683Y5237251D01*
X7734500Y5252523D01*
X8089900D01*
X8111360Y5256791D01*
X8129553Y5268947D01*
X9631653Y6771047D01*
X9643809Y6789240D01*
X9648077Y6810700D01*
Y6849223D01*
X9686600D01*
X9708060Y6853491D01*
X9726253Y6865647D01*
X9876289Y7015684D01*
X9888023Y7010824D01*
Y6583877D01*
X9808409D01*
X9802322Y6594420D01*
X9782120Y6614622D01*
X9757380Y6628906D01*
X9729784Y6636300D01*
X9701216D01*
X9673620Y6628906D01*
X9648880Y6614622D01*
X9628678Y6594420D01*
X9614394Y6569680D01*
X9607000Y6542084D01*
Y6513516D01*
X9614394Y6485920D01*
X9628678Y6461180D01*
X9648880Y6440978D01*
X9673620Y6426694D01*
X9701216Y6419300D01*
X9729784D01*
X9757380Y6426694D01*
X9782120Y6440978D01*
X9802322Y6461180D01*
X9808409Y6471723D01*
X10142023D01*
Y5578877D01*
X9180400D01*
X9158940Y5574609D01*
X9140747Y5562452D01*
X8837647Y5259353D01*
X8825491Y5241160D01*
X8821223Y5219700D01*
Y4402370D01*
X8825491Y4380910D01*
X8837647Y4362717D01*
X8850347Y4350017D01*
X8868540Y4337861D01*
X8890000Y4333593D01*
X9746931D01*
X9811823Y4268702D01*
Y3675577D01*
X9770309D01*
X9764222Y3686120D01*
X9744020Y3706322D01*
X9719280Y3720606D01*
X9691684Y3728000D01*
X9663116D01*
X9635520Y3720606D01*
X9610780Y3706322D01*
X9590578Y3686120D01*
X9584491Y3675577D01*
X9082901D01*
X8680226Y4078253D01*
X8662033Y4090409D01*
X8640573Y4094677D01*
X7734500D01*
X7725683Y4109949D01*
X7704049Y4131583D01*
X7677552Y4146881D01*
X7647998Y4154800D01*
X7617402D01*
X7587848Y4146881D01*
X7561351Y4131583D01*
X7539717Y4109949D01*
X7524419Y4083452D01*
X7516500Y4053898D01*
Y4023302D01*
X7524419Y3993748D01*
X7539717Y3967251D01*
X7561351Y3945617D01*
X7587848Y3930319D01*
X7617402Y3922400D01*
X7647998D01*
X7677552Y3930319D01*
X7704049Y3945617D01*
X7725683Y3967251D01*
X7734500Y3982523D01*
X8617345D01*
X9020020Y3579847D01*
X9038213Y3567691D01*
X9059673Y3563423D01*
X9584491D01*
X9590578Y3552880D01*
X9610780Y3532678D01*
X9635520Y3518394D01*
X9663116Y3511000D01*
X9691684D01*
X9719280Y3518394D01*
X9744020Y3532678D01*
X9764222Y3552880D01*
X9770309Y3563423D01*
X9850326D01*
X9868823Y3567102D01*
X9881523Y3560086D01*
Y3293328D01*
X9736872Y3148677D01*
X8950318D01*
X8274743Y3824253D01*
X8256550Y3836409D01*
X8235090Y3840677D01*
X7748900D01*
Y3900800D01*
X7516500D01*
Y3668400D01*
X7748900D01*
Y3728523D01*
X8211862D01*
X8849974Y3090411D01*
X8845114Y3078677D01*
X7930248D01*
X7611461Y3397465D01*
X7618836Y3408050D01*
X7648834D01*
X7680002Y3416402D01*
X7707947Y3432536D01*
X7730764Y3455353D01*
X7746898Y3483298D01*
X7755250Y3514466D01*
Y3546734D01*
X7746898Y3577902D01*
X7730764Y3605847D01*
X7707947Y3628664D01*
X7680002Y3644798D01*
X7648834Y3653150D01*
X7616566D01*
X7585398Y3644798D01*
X7557453Y3628664D01*
X7534636Y3605847D01*
X7518502Y3577902D01*
X7510150Y3546734D01*
Y3516736D01*
X7499565Y3509361D01*
X6488777Y4520148D01*
Y4753395D01*
X6484509Y4774854D01*
X6482277Y4778194D01*
Y5753100D01*
X6478009Y5774560D01*
X6465853Y5792753D01*
X6220336Y6038269D01*
X6224900Y6055302D01*
Y6085898D01*
X6216981Y6115452D01*
X6201683Y6141949D01*
X6180049Y6163583D01*
X6153552Y6178881D01*
X6123998Y6186800D01*
X6093402D01*
X6063848Y6178881D01*
X6037351Y6163583D01*
X6015717Y6141949D01*
X6000419Y6115452D01*
X5992500Y6085898D01*
Y6055302D01*
X6000419Y6025748D01*
X6015717Y5999251D01*
X6037351Y5977617D01*
X6063848Y5962319D01*
X6093402Y5954400D01*
X6123998D01*
X6141031Y5958964D01*
X6169870Y5930124D01*
X6162072Y5919962D01*
X6153552Y5924881D01*
X6123998Y5932800D01*
X6093402D01*
X6063848Y5924881D01*
X6037351Y5909583D01*
X6015717Y5887949D01*
X6000419Y5861452D01*
X5992500Y5831898D01*
Y5801302D01*
X6000419Y5771748D01*
X6015717Y5745251D01*
X6037351Y5723617D01*
X6063848Y5708319D01*
X6093402Y5700400D01*
X6123998D01*
X6153552Y5708319D01*
X6180049Y5723617D01*
X6201683Y5745251D01*
X6216981Y5771748D01*
X6224900Y5801302D01*
Y5831898D01*
X6216981Y5861452D01*
X6212062Y5869972D01*
X6222224Y5877770D01*
X6370123Y5729872D01*
Y4812876D01*
X6358389Y4808016D01*
X6326153Y4840252D01*
X6326153Y4840253D01*
X6307960Y4852409D01*
X6286501Y4856677D01*
X6210500D01*
X6201683Y4871949D01*
X6180049Y4893583D01*
X6153552Y4908881D01*
X6123998Y4916800D01*
X6093402D01*
X6063848Y4908881D01*
X6037351Y4893583D01*
X6015717Y4871949D01*
X6000419Y4845452D01*
X5992500Y4815898D01*
Y4785302D01*
X6000419Y4755748D01*
X6005338Y4747228D01*
X5995176Y4739430D01*
X5771077Y4963528D01*
Y6184900D01*
X5766809Y6206360D01*
X5754653Y6224553D01*
X5722416Y6256789D01*
X5727276Y6268523D01*
X6006900D01*
X6015717Y6253251D01*
X6037351Y6231617D01*
X6063848Y6216319D01*
X6093402Y6208400D01*
X6123998D01*
X6153552Y6216319D01*
X6180049Y6231617D01*
X6201683Y6253251D01*
X6216981Y6279748D01*
X6224900Y6309302D01*
Y6339898D01*
X6216981Y6369452D01*
X6201683Y6395949D01*
X6180049Y6417583D01*
X6153552Y6432881D01*
X6123998Y6440800D01*
X6093402D01*
X6063848Y6432881D01*
X6037351Y6417583D01*
X6015717Y6395949D01*
X6006900Y6380677D01*
X2921000D01*
X2899540Y6376409D01*
X2881347Y6364253D01*
X2737177Y6220082D01*
X2725021Y6201890D01*
X2720752Y6180430D01*
Y3144967D01*
X2725021Y3123507D01*
X2737177Y3105314D01*
X2897644Y2944847D01*
X2915837Y2932691D01*
X2937297Y2928423D01*
X4073662D01*
X4095122Y2932691D01*
X4113314Y2944847D01*
X4130888Y2962421D01*
X4143044Y2980614D01*
X4147313Y3002074D01*
Y3186726D01*
X4147214Y3187224D01*
X4163328Y3203338D01*
X4171950Y3218272D01*
X4184650D01*
X4193272Y3203338D01*
X4219338Y3177272D01*
X4251262Y3158841D01*
X4286869Y3149300D01*
X4323731D01*
X4359338Y3158841D01*
X4391262Y3177272D01*
X4417328Y3203338D01*
X4425950Y3218272D01*
X4438650D01*
X4447272Y3203338D01*
X4473338Y3177272D01*
X4505262Y3158841D01*
X4540869Y3149300D01*
X4577731D01*
X4613338Y3158841D01*
X4645262Y3177272D01*
X4671328Y3203338D01*
X4679950Y3218272D01*
X4692650D01*
X4701272Y3203338D01*
X4727338Y3177272D01*
X4759262Y3158841D01*
X4794869Y3149300D01*
X4831731D01*
X4867338Y3158841D01*
X4899262Y3177272D01*
X4925328Y3203338D01*
X4943759Y3235262D01*
X4953300Y3270869D01*
Y3307731D01*
X4943759Y3343338D01*
X4925328Y3375262D01*
X4899262Y3401328D01*
X4867338Y3419759D01*
X4831731Y3429300D01*
X4794869D01*
X4759262Y3419759D01*
X4727338Y3401328D01*
X4701272Y3375262D01*
X4692650Y3360328D01*
X4679950D01*
X4671328Y3375262D01*
X4645262Y3401328D01*
X4613338Y3419759D01*
X4577731Y3429300D01*
X4540869D01*
X4505262Y3419759D01*
X4473338Y3401328D01*
X4447272Y3375262D01*
X4438650Y3360328D01*
X4425950D01*
X4417328Y3375262D01*
X4391262Y3401328D01*
X4359338Y3419759D01*
X4323731Y3429300D01*
X4286869D01*
X4251262Y3419759D01*
X4219338Y3401328D01*
X4193272Y3375262D01*
X4184650Y3360328D01*
X4171950D01*
X4163328Y3375262D01*
X4137262Y3401328D01*
X4105338Y3419759D01*
X4069731Y3429300D01*
X4032869D01*
X3997262Y3419759D01*
X3965338Y3401328D01*
X3939272Y3375262D01*
X3930650Y3360328D01*
X3917950D01*
X3909328Y3375262D01*
X3883262Y3401328D01*
X3851338Y3419759D01*
X3815731Y3429300D01*
X3778869D01*
X3743262Y3419759D01*
X3711338Y3401328D01*
X3685272Y3375262D01*
X3676650Y3360328D01*
X3663950D01*
X3655328Y3375262D01*
X3629262Y3401328D01*
X3599377Y3418581D01*
Y3494672D01*
X3663048Y3558343D01*
X4975492D01*
X5728687Y2805147D01*
X5746880Y2792991D01*
X5768340Y2788723D01*
X10028126D01*
X10049586Y2792991D01*
X10067779Y2805147D01*
X10187252Y2924621D01*
X10199408Y2942814D01*
X10203677Y2964273D01*
Y3502014D01*
X10203977Y3503521D01*
Y4407909D01*
X10203677Y4409416D01*
Y5388270D01*
X10199408Y5409730D01*
X10190677Y5422797D01*
Y5466722D01*
X10198100D01*
X10219560Y5470991D01*
X10237753Y5483147D01*
X10249909Y5501340D01*
X10254177Y5522800D01*
Y6510226D01*
X10249909Y6531686D01*
X10237753Y6549879D01*
X10220179Y6567453D01*
X10201986Y6579609D01*
X10180526Y6583877D01*
X10000177D01*
Y8209280D01*
X9995909Y8230740D01*
X9983753Y8248933D01*
X9818653Y8414033D01*
X9800460Y8426189D01*
X9779000Y8430457D01*
X9652000D01*
X9630540Y8426189D01*
X9612347Y8414033D01*
X9513287Y8314973D01*
X9501131Y8296780D01*
X9496863Y8275320D01*
Y8226636D01*
X9485129Y8221776D01*
X9056653Y8650253D01*
X9038460Y8662409D01*
X9017000Y8666677D01*
D02*
G37*
G36*
X7647998Y6694800D02*
X7617402D01*
X7587848Y6686881D01*
X7561351Y6671583D01*
X7539717Y6649949D01*
X7524419Y6623452D01*
X7516500Y6593898D01*
Y6563302D01*
X7524419Y6533748D01*
X7539717Y6507251D01*
X7561351Y6485617D01*
X7587848Y6470319D01*
X7617402Y6462400D01*
X7647998D01*
X7677552Y6470319D01*
X7704049Y6485617D01*
X7725683Y6507251D01*
X7740981Y6533748D01*
X7748900Y6563302D01*
Y6593898D01*
X7740981Y6623452D01*
X7725683Y6649949D01*
X7704049Y6671583D01*
X7677552Y6686881D01*
X7647998Y6694800D01*
D02*
G37*
G36*
Y6440800D02*
X7617402D01*
X7587848Y6432881D01*
X7561351Y6417583D01*
X7539717Y6395949D01*
X7524419Y6369452D01*
X7516500Y6339898D01*
Y6309302D01*
X7524419Y6279748D01*
X7539717Y6253251D01*
X7561351Y6231617D01*
X7587848Y6216319D01*
X7617402Y6208400D01*
X7647998D01*
X7677552Y6216319D01*
X7704049Y6231617D01*
X7725683Y6253251D01*
X7740981Y6279748D01*
X7748900Y6309302D01*
Y6339898D01*
X7740981Y6369452D01*
X7725683Y6395949D01*
X7704049Y6417583D01*
X7677552Y6432881D01*
X7647998Y6440800D01*
D02*
G37*
G36*
X9729784Y6382300D02*
X9701216D01*
X9673620Y6374906D01*
X9648880Y6360622D01*
X9628678Y6340420D01*
X9622591Y6329877D01*
X9334500D01*
X9313040Y6325609D01*
X9294847Y6313453D01*
X8092072Y5110677D01*
X7734500D01*
X7725683Y5125949D01*
X7704049Y5147583D01*
X7677552Y5162881D01*
X7647998Y5170800D01*
X7617402D01*
X7587848Y5162881D01*
X7561351Y5147583D01*
X7539717Y5125949D01*
X7524419Y5099452D01*
X7516500Y5069898D01*
Y5039302D01*
X7524419Y5009748D01*
X7539717Y4983251D01*
X7561351Y4961617D01*
X7587848Y4946319D01*
X7617402Y4938400D01*
X7647998D01*
X7677552Y4946319D01*
X7704049Y4961617D01*
X7725683Y4983251D01*
X7734500Y4998523D01*
X8115300D01*
X8136760Y5002791D01*
X8154953Y5014947D01*
X9357728Y6217723D01*
X9622591D01*
X9628678Y6207180D01*
X9648880Y6186978D01*
X9673620Y6172694D01*
X9701216Y6165300D01*
X9729784D01*
X9757380Y6172694D01*
X9782120Y6186978D01*
X9802322Y6207180D01*
X9816606Y6231920D01*
X9824000Y6259516D01*
Y6288084D01*
X9816606Y6315680D01*
X9802322Y6340420D01*
X9782120Y6360622D01*
X9757380Y6374906D01*
X9729784Y6382300D01*
D02*
G37*
G36*
X7647998Y6186800D02*
X7617402D01*
X7587848Y6178881D01*
X7561351Y6163583D01*
X7539717Y6141949D01*
X7524419Y6115452D01*
X7516500Y6085898D01*
Y6055302D01*
X7524419Y6025748D01*
X7539717Y5999251D01*
X7561351Y5977617D01*
X7587848Y5962319D01*
X7617402Y5954400D01*
X7647998D01*
X7677552Y5962319D01*
X7704049Y5977617D01*
X7725683Y5999251D01*
X7740981Y6025748D01*
X7748900Y6055302D01*
Y6085898D01*
X7740981Y6115452D01*
X7725683Y6141949D01*
X7704049Y6163583D01*
X7677552Y6178881D01*
X7647998Y6186800D01*
D02*
G37*
G36*
Y5932800D02*
X7617402D01*
X7587848Y5924881D01*
X7561351Y5909583D01*
X7539717Y5887949D01*
X7524419Y5861452D01*
X7516500Y5831898D01*
Y5801302D01*
X7524419Y5771748D01*
X7539717Y5745251D01*
X7561351Y5723617D01*
X7587848Y5708319D01*
X7617402Y5700400D01*
X7647998D01*
X7677552Y5708319D01*
X7704049Y5723617D01*
X7725683Y5745251D01*
X7740981Y5771748D01*
X7748900Y5801302D01*
Y5831898D01*
X7740981Y5861452D01*
X7725683Y5887949D01*
X7704049Y5909583D01*
X7677552Y5924881D01*
X7647998Y5932800D01*
D02*
G37*
G36*
Y5678800D02*
X7617402D01*
X7587848Y5670881D01*
X7561351Y5655583D01*
X7539717Y5633949D01*
X7524419Y5607452D01*
X7516500Y5577898D01*
Y5547302D01*
X7524419Y5517748D01*
X7539717Y5491251D01*
X7561351Y5469617D01*
X7587848Y5454319D01*
X7617402Y5446400D01*
X7647998D01*
X7677552Y5454319D01*
X7704049Y5469617D01*
X7725683Y5491251D01*
X7740981Y5517748D01*
X7748900Y5547302D01*
Y5577898D01*
X7740981Y5607452D01*
X7725683Y5633949D01*
X7704049Y5655583D01*
X7677552Y5670881D01*
X7647998Y5678800D01*
D02*
G37*
G36*
X6123998D02*
X6093402D01*
X6063848Y5670881D01*
X6037351Y5655583D01*
X6015717Y5633949D01*
X6000419Y5607452D01*
X5992500Y5577898D01*
Y5547302D01*
X6000419Y5517748D01*
X6015717Y5491251D01*
X6037351Y5469617D01*
X6063848Y5454319D01*
X6093402Y5446400D01*
X6123998D01*
X6153552Y5454319D01*
X6180049Y5469617D01*
X6201683Y5491251D01*
X6216981Y5517748D01*
X6224900Y5547302D01*
Y5577898D01*
X6216981Y5607452D01*
X6201683Y5633949D01*
X6180049Y5655583D01*
X6153552Y5670881D01*
X6123998Y5678800D01*
D02*
G37*
G36*
Y5424800D02*
X6093402D01*
X6063848Y5416881D01*
X6037351Y5401583D01*
X6015717Y5379949D01*
X6000419Y5353452D01*
X5992500Y5323898D01*
Y5293302D01*
X6000419Y5263748D01*
X6015717Y5237251D01*
X6037351Y5215617D01*
X6063848Y5200319D01*
X6093402Y5192400D01*
X6123998D01*
X6153552Y5200319D01*
X6180049Y5215617D01*
X6201683Y5237251D01*
X6216981Y5263748D01*
X6224900Y5293302D01*
Y5323898D01*
X6216981Y5353452D01*
X6201683Y5379949D01*
X6180049Y5401583D01*
X6153552Y5416881D01*
X6123998Y5424800D01*
D02*
G37*
G36*
Y5170800D02*
X6093402D01*
X6063848Y5162881D01*
X6037351Y5147583D01*
X6015717Y5125949D01*
X6000419Y5099452D01*
X5992500Y5069898D01*
Y5039302D01*
X6000419Y5009748D01*
X6015717Y4983251D01*
X6037351Y4961617D01*
X6063848Y4946319D01*
X6093402Y4938400D01*
X6123998D01*
X6153552Y4946319D01*
X6180049Y4961617D01*
X6201683Y4983251D01*
X6216981Y5009748D01*
X6224900Y5039302D01*
Y5069898D01*
X6216981Y5099452D01*
X6201683Y5125949D01*
X6180049Y5147583D01*
X6153552Y5162881D01*
X6123998Y5170800D01*
D02*
G37*
G36*
X6316254Y7858231D02*
X4576354D01*
X4554894Y7853962D01*
X4536701Y7841806D01*
X3848744Y7153849D01*
X3836984Y7157000D01*
X3808416D01*
X3780820Y7149606D01*
X3756080Y7135322D01*
X3735878Y7115120D01*
X3721594Y7090380D01*
X3714200Y7062784D01*
Y7034216D01*
X3721594Y7006620D01*
X3735878Y6981880D01*
X3756080Y6961678D01*
X3780820Y6947394D01*
X3808416Y6940000D01*
X3836984D01*
X3864580Y6947394D01*
X3889320Y6961678D01*
X3909522Y6981880D01*
X3923806Y7006620D01*
X3931200Y7034216D01*
Y7062784D01*
X3928049Y7074544D01*
X4599582Y7746076D01*
X6293026D01*
X7208323Y6830779D01*
Y4648200D01*
X7212591Y4626740D01*
X7224747Y4608547D01*
X7326347Y4506947D01*
X7344540Y4494791D01*
X7366000Y4490523D01*
X7530900D01*
X7539717Y4475251D01*
X7561351Y4453617D01*
X7587848Y4438319D01*
X7617402Y4430400D01*
X7647998D01*
X7677552Y4438319D01*
X7704049Y4453617D01*
X7725683Y4475251D01*
X7740981Y4501748D01*
X7748900Y4531302D01*
Y4561898D01*
X7740981Y4591452D01*
X7725683Y4617949D01*
X7704049Y4639583D01*
X7677552Y4654881D01*
X7647998Y4662800D01*
X7617402D01*
X7587848Y4654881D01*
X7561351Y4639583D01*
X7539717Y4617949D01*
X7530900Y4602677D01*
X7389228D01*
X7320477Y4671428D01*
Y6854007D01*
X7316209Y6875467D01*
X7304053Y6893660D01*
X6355906Y7841806D01*
X6337714Y7853962D01*
X6316254Y7858231D01*
D02*
G37*
G36*
X7647998Y4408800D02*
X7617402D01*
X7587848Y4400881D01*
X7561351Y4385583D01*
X7539717Y4363949D01*
X7524419Y4337452D01*
X7516500Y4307898D01*
Y4277302D01*
X7524419Y4247748D01*
X7539717Y4221251D01*
X7561351Y4199617D01*
X7587848Y4184319D01*
X7617402Y4176400D01*
X7647998D01*
X7677552Y4184319D01*
X7704049Y4199617D01*
X7725683Y4221251D01*
X7740981Y4247748D01*
X7748900Y4277302D01*
Y4307898D01*
X7740981Y4337452D01*
X7725683Y4363949D01*
X7704049Y4385583D01*
X7677552Y4400881D01*
X7647998Y4408800D01*
D02*
G37*
G36*
Y4916800D02*
X7617402D01*
X7587848Y4908881D01*
X7561351Y4893583D01*
X7539717Y4871949D01*
X7524419Y4845452D01*
X7516500Y4815898D01*
Y4785302D01*
X7524419Y4755748D01*
X7539717Y4729251D01*
X7561351Y4707617D01*
X7587848Y4692319D01*
X7617402Y4684400D01*
X7647998D01*
X7677552Y4692319D01*
X7704049Y4707617D01*
X7725683Y4729251D01*
X7734500Y4744523D01*
X8130172D01*
X8786847Y4087847D01*
X8805040Y4075691D01*
X8826500Y4071423D01*
X8935523D01*
Y3898900D01*
X8939791Y3877440D01*
X8951947Y3859247D01*
X8964711Y3846483D01*
X8964712Y3846483D01*
X8977348Y3833847D01*
X8995540Y3821691D01*
X9017000Y3817423D01*
X9584491D01*
X9590578Y3806880D01*
X9610780Y3786678D01*
X9635520Y3772394D01*
X9663116Y3765000D01*
X9691684D01*
X9719280Y3772394D01*
X9744020Y3786678D01*
X9764222Y3806880D01*
X9778506Y3831620D01*
X9785900Y3859216D01*
Y3887784D01*
X9778506Y3915380D01*
X9764222Y3940120D01*
X9744020Y3960322D01*
X9719280Y3974606D01*
X9691684Y3982000D01*
X9663116D01*
X9635520Y3974606D01*
X9610780Y3960322D01*
X9590578Y3940120D01*
X9584491Y3929577D01*
X9047677D01*
Y4071423D01*
X9584491D01*
X9590578Y4060880D01*
X9610780Y4040678D01*
X9635520Y4026394D01*
X9663116Y4019000D01*
X9691684D01*
X9719280Y4026394D01*
X9744020Y4040678D01*
X9764222Y4060880D01*
X9778506Y4085620D01*
X9785900Y4113216D01*
Y4141784D01*
X9778506Y4169380D01*
X9764222Y4194120D01*
X9744020Y4214322D01*
X9719280Y4228606D01*
X9691684Y4236000D01*
X9663116D01*
X9635520Y4228606D01*
X9610780Y4214322D01*
X9590578Y4194120D01*
X9584491Y4183577D01*
X8849728D01*
X8193053Y4840253D01*
X8174860Y4852409D01*
X8153400Y4856677D01*
X7734500D01*
X7725683Y4871949D01*
X7704049Y4893583D01*
X7677552Y4908881D01*
X7647998Y4916800D01*
D02*
G37*
%LPD*%
G36*
X3954184Y6065489D02*
X3849063Y5960369D01*
X3815731Y5969300D01*
X3778869D01*
X3743262Y5959759D01*
X3711338Y5941328D01*
X3685272Y5915262D01*
X3676650Y5900328D01*
X3663950D01*
X3655328Y5915262D01*
X3629262Y5941328D01*
X3599377Y5958581D01*
Y5996572D01*
X3680028Y6077223D01*
X3949324D01*
X3954184Y6065489D01*
D02*
G37*
G36*
X3559684Y6115489D02*
X3503647Y6059453D01*
X3491491Y6041260D01*
X3487223Y6019800D01*
Y5958581D01*
X3457338Y5941328D01*
X3431272Y5915262D01*
X3422650Y5900328D01*
X3409950D01*
X3401328Y5915262D01*
X3375262Y5941328D01*
X3345377Y5958581D01*
Y6072772D01*
X3399828Y6127222D01*
X3554823D01*
X3559684Y6115489D01*
D02*
G37*
G36*
X3279484Y6165489D02*
X3249647Y6135653D01*
X3237491Y6117460D01*
X3233223Y6096000D01*
Y5958581D01*
X3203338Y5941328D01*
X3177272Y5915262D01*
X3168650Y5900328D01*
X3155950D01*
X3147328Y5915262D01*
X3121262Y5941328D01*
X3089338Y5959759D01*
X3053731Y5969300D01*
X3016869D01*
X2981262Y5959759D01*
X2949338Y5941328D01*
X2945631Y5937620D01*
X2933897Y5942480D01*
Y6072772D01*
X3038348Y6177222D01*
X3274623D01*
X3279484Y6165489D01*
D02*
G37*
G36*
X5317126Y4520097D02*
X5321394Y4498637D01*
X5333550Y4480444D01*
X5997064Y3816930D01*
X5992500Y3799898D01*
Y3769302D01*
X6000419Y3739748D01*
X6015717Y3713251D01*
X6037351Y3691617D01*
X6063848Y3676319D01*
X6093402Y3668400D01*
X6123998D01*
X6153552Y3676319D01*
X6180049Y3691617D01*
X6201683Y3713251D01*
X6216981Y3739748D01*
X6224900Y3769302D01*
Y3799898D01*
X6216981Y3829452D01*
X6201683Y3855949D01*
X6180049Y3877583D01*
X6153552Y3892881D01*
X6123998Y3900800D01*
X6093402D01*
X6076369Y3896236D01*
X6047529Y3925076D01*
X6055327Y3935239D01*
X6063848Y3930319D01*
X6093402Y3922400D01*
X6123998D01*
X6153552Y3930319D01*
X6180049Y3945617D01*
X6201683Y3967251D01*
X6216981Y3993748D01*
X6224900Y4023302D01*
Y4053898D01*
X6216981Y4083452D01*
X6201683Y4109949D01*
X6180049Y4131583D01*
X6153552Y4146881D01*
X6123998Y4154800D01*
X6093402D01*
X6076369Y4150236D01*
X6047530Y4179076D01*
X6055328Y4189238D01*
X6063848Y4184319D01*
X6093402Y4176400D01*
X6123998D01*
X6153552Y4184319D01*
X6180049Y4199617D01*
X6201683Y4221251D01*
X6216981Y4247748D01*
X6224900Y4277302D01*
Y4307898D01*
X6216981Y4337452D01*
X6201683Y4363949D01*
X6180049Y4385583D01*
X6153552Y4400881D01*
X6123998Y4408800D01*
X6093402D01*
X6076369Y4404236D01*
X6047530Y4433076D01*
X6055328Y4443238D01*
X6063848Y4438319D01*
X6093402Y4430400D01*
X6123998D01*
X6153552Y4438319D01*
X6180049Y4453617D01*
X6201683Y4475251D01*
X6216981Y4501748D01*
X6224900Y4531302D01*
Y4561898D01*
X6216981Y4591452D01*
X6201683Y4617949D01*
X6180049Y4639583D01*
X6153552Y4654881D01*
X6123998Y4662800D01*
X6093402D01*
X6076369Y4658236D01*
X6047530Y4687076D01*
X6055328Y4697238D01*
X6063848Y4692319D01*
X6093402Y4684400D01*
X6123998D01*
X6153552Y4692319D01*
X6180049Y4707617D01*
X6201683Y4729251D01*
X6210500Y4744523D01*
X6263272D01*
X6306623Y4701172D01*
Y3205677D01*
X5814428D01*
X5504377Y3515728D01*
Y3617300D01*
X5564800D01*
Y3850300D01*
X5331800D01*
Y3617300D01*
X5392223D01*
Y3492500D01*
X5396491Y3471040D01*
X5408647Y3452847D01*
X5751547Y3109947D01*
X5769740Y3097791D01*
X5791200Y3093523D01*
X6345126D01*
X6366586Y3097791D01*
X6384779Y3109947D01*
X6402353Y3127521D01*
X6414509Y3145714D01*
X6418777Y3167174D01*
Y4414944D01*
X6430511Y4419804D01*
X7814204Y3036111D01*
X7809344Y3024377D01*
X5792528D01*
X4107377Y4709528D01*
Y5700019D01*
X4137262Y5717272D01*
X4163328Y5743338D01*
X4171950Y5758272D01*
X4184650D01*
X4193272Y5743338D01*
X4219338Y5717272D01*
X4251262Y5698841D01*
X4286869Y5689300D01*
X4323731D01*
X4359338Y5698841D01*
X4391262Y5717272D01*
X4417328Y5743338D01*
X4425950Y5758272D01*
X4438650D01*
X4447272Y5743338D01*
X4473338Y5717272D01*
X4505262Y5698841D01*
X4540869Y5689300D01*
X4577731D01*
X4613338Y5698841D01*
X4645262Y5717272D01*
X4671328Y5743338D01*
X4679950Y5758272D01*
X4692650D01*
X4701272Y5743338D01*
X4727338Y5717272D01*
X4759262Y5698841D01*
X4794869Y5689300D01*
X4831731D01*
X4867338Y5698841D01*
X4899262Y5717272D01*
X4925328Y5743338D01*
X4943759Y5775262D01*
X4953300Y5810869D01*
Y5847731D01*
X4943759Y5883338D01*
X4925328Y5915262D01*
X4899262Y5941328D01*
X4867338Y5959759D01*
X4831731Y5969300D01*
X4794869D01*
X4759262Y5959759D01*
X4727338Y5941328D01*
X4701272Y5915262D01*
X4692650Y5900328D01*
X4679950D01*
X4671328Y5915262D01*
X4645262Y5941328D01*
X4613338Y5959759D01*
X4577731Y5969300D01*
X4540869D01*
X4505262Y5959759D01*
X4473338Y5941328D01*
X4447272Y5915262D01*
X4438650Y5900328D01*
X4425950D01*
X4417328Y5915262D01*
X4391262Y5941328D01*
X4359338Y5959759D01*
X4323731Y5969300D01*
X4286869D01*
X4251262Y5959759D01*
X4219338Y5941328D01*
X4193272Y5915262D01*
X4184650Y5900328D01*
X4171950D01*
X4163328Y5915262D01*
X4137262Y5941328D01*
X4105338Y5959759D01*
X4069731Y5969300D01*
X4034566D01*
X4027627Y5978378D01*
X4026916Y5979611D01*
X4074528Y6027223D01*
X5317126D01*
Y4520097D01*
D02*
G37*
G36*
X3939272Y5743338D02*
X3965338Y5717272D01*
X3995223Y5700019D01*
Y4686300D01*
X3999491Y4664840D01*
X4011647Y4646648D01*
X4976064Y3682231D01*
X4971204Y3670497D01*
X3639820D01*
X3618360Y3666229D01*
X3600167Y3654073D01*
X3503647Y3557553D01*
X3491491Y3539360D01*
X3487223Y3517900D01*
Y3418581D01*
X3457338Y3401328D01*
X3431272Y3375262D01*
X3412841Y3343338D01*
X3403300Y3307731D01*
Y3270869D01*
X3412841Y3235262D01*
X3431272Y3203338D01*
X3457338Y3177272D01*
X3489262Y3158841D01*
X3504055Y3154877D01*
X3502383Y3142177D01*
X3076217D01*
X3074545Y3154877D01*
X3089338Y3158841D01*
X3121262Y3177272D01*
X3147328Y3203338D01*
X3165759Y3235262D01*
X3175300Y3270869D01*
Y3307731D01*
X3165759Y3343338D01*
X3147328Y3375262D01*
X3121262Y3401328D01*
X3089338Y3419759D01*
X3053731Y3429300D01*
X3016869D01*
X2981262Y3419759D01*
X2949338Y3401328D01*
X2945631Y3397620D01*
X2933897Y3402480D01*
Y5716120D01*
X2945631Y5720980D01*
X2949338Y5717272D01*
X2981262Y5698841D01*
X3016869Y5689300D01*
X3053731D01*
X3089338Y5698841D01*
X3121262Y5717272D01*
X3147328Y5743338D01*
X3155950Y5758272D01*
X3168650D01*
X3177272Y5743338D01*
X3203338Y5717272D01*
X3235262Y5698841D01*
X3270869Y5689300D01*
X3307731D01*
X3343338Y5698841D01*
X3375262Y5717272D01*
X3401328Y5743338D01*
X3409950Y5758272D01*
X3422650D01*
X3431272Y5743338D01*
X3457338Y5717272D01*
X3489262Y5698841D01*
X3524869Y5689300D01*
X3561731D01*
X3597338Y5698841D01*
X3629262Y5717272D01*
X3655328Y5743338D01*
X3663950Y5758272D01*
X3676650D01*
X3685272Y5743338D01*
X3711338Y5717272D01*
X3743262Y5698841D01*
X3778869Y5689300D01*
X3815731D01*
X3851338Y5698841D01*
X3883262Y5717272D01*
X3909328Y5743338D01*
X3917950Y5758272D01*
X3930650D01*
X3939272Y5743338D01*
D02*
G37*
G36*
X10021523Y5336047D02*
Y4958776D01*
X10009789Y4953916D01*
X9856753Y5106953D01*
X9838560Y5119109D01*
X9817100Y5123377D01*
X9779546D01*
X9770623Y5138833D01*
X9748933Y5160523D01*
X9722367Y5175861D01*
X9692738Y5183800D01*
X9662062D01*
X9632433Y5175861D01*
X9610619Y5163266D01*
X9598017Y5169566D01*
X9601607Y5396723D01*
X9844395D01*
X9844400Y5396724D01*
X9960846D01*
X10021523Y5336047D01*
D02*
G37*
G36*
X9951523Y4853572D02*
Y4580852D01*
X9939789Y4575991D01*
X9594706Y4921075D01*
Y4960120D01*
X9594849Y4969162D01*
X9607612Y4973069D01*
X9632433Y4958739D01*
X9662062Y4950800D01*
X9692738D01*
X9722367Y4958739D01*
X9748933Y4974077D01*
X9770623Y4995767D01*
X9779546Y5011223D01*
X9793872D01*
X9951523Y4853572D01*
D02*
G37*
G36*
X5997064Y4578931D02*
X5992500Y4561898D01*
Y4531302D01*
X6000419Y4501748D01*
X6005338Y4493228D01*
X5995176Y4485430D01*
X5664128Y4816477D01*
Y4897072D01*
X5676828Y4899166D01*
X5997064Y4578931D01*
D02*
G37*
G36*
X9502097Y5454022D02*
X9500412Y5451500D01*
X9494437Y5442858D01*
X9494342Y5442416D01*
X9494092Y5442041D01*
X9492041Y5431734D01*
X9489830Y5421468D01*
X9482558Y4961443D01*
X9482639Y4960999D01*
X9482551Y4960556D01*
Y4897847D01*
X9486820Y4876387D01*
X9498976Y4858194D01*
X9881523Y4475647D01*
Y4374206D01*
X9869790Y4369346D01*
X9809812Y4429323D01*
X9791619Y4441479D01*
X9770160Y4445748D01*
X8933377D01*
Y5196472D01*
X9203628Y5466722D01*
X9495308D01*
X9502097Y5454022D01*
D02*
G37*
G36*
X5556242Y4771789D02*
X5568398Y4753597D01*
X5997064Y4324931D01*
X5992500Y4307898D01*
Y4277302D01*
X6000419Y4247748D01*
X6005338Y4239228D01*
X5995176Y4231430D01*
X5542477Y4684128D01*
Y4775891D01*
X5555177Y4777142D01*
X5556242Y4771789D01*
D02*
G37*
G36*
X5446747Y4621247D02*
X5997064Y4070931D01*
X5992500Y4053898D01*
Y4023302D01*
X6000419Y3993748D01*
X6005339Y3985227D01*
X5995176Y3977429D01*
X5429280Y4543325D01*
Y4624529D01*
X5441980Y4628381D01*
X5446747Y4621247D01*
D02*
G37*
G36*
X3939272Y3203338D02*
X3965338Y3177272D01*
X3997262Y3158841D01*
X4032869Y3149300D01*
X4035158D01*
Y3040577D01*
X3760143D01*
X3754883Y3053277D01*
X3823827Y3122221D01*
X3835983Y3140414D01*
X3838990Y3155532D01*
X3851338Y3158841D01*
X3883262Y3177272D01*
X3909328Y3203338D01*
X3917950Y3218272D01*
X3930650D01*
X3939272Y3203338D01*
D02*
G37*
G36*
X10091522Y3128971D02*
Y2987502D01*
X10004898Y2900877D01*
X9861404D01*
X9858619Y2910057D01*
X9858372Y2913577D01*
X9871100Y2926305D01*
X9874605Y2928647D01*
X10079789Y3133831D01*
X10091522Y3128971D01*
D02*
G37*
%LPC*%
G36*
X6124834Y3653150D02*
X6092566D01*
X6061398Y3644798D01*
X6033453Y3628664D01*
X6010636Y3605847D01*
X5994502Y3577902D01*
X5986150Y3546734D01*
Y3514466D01*
X5994502Y3483298D01*
X6010636Y3455353D01*
X6033453Y3432536D01*
X6061398Y3416402D01*
X6092566Y3408050D01*
X6124834D01*
X6156002Y3416402D01*
X6183947Y3432536D01*
X6206764Y3455353D01*
X6222898Y3483298D01*
X6231250Y3514466D01*
Y3546734D01*
X6222898Y3577902D01*
X6206764Y3605847D01*
X6183947Y3628664D01*
X6156002Y3644798D01*
X6124834Y3653150D01*
D02*
G37*
%LPD*%
D11*
X4813300Y5829300D02*
D03*
X3035300D02*
D03*
X4813300Y3289300D02*
D03*
X3035300D02*
D03*
X4559300Y5829300D02*
D03*
X4305300D02*
D03*
X4051300D02*
D03*
X3797300D02*
D03*
X3543300D02*
D03*
X3289300D02*
D03*
X4559300Y3289300D02*
D03*
X4305300D02*
D03*
X4051300D02*
D03*
X3797300D02*
D03*
X3543300D02*
D03*
X3289300D02*
D03*
D12*
X8064500Y8305800D02*
D03*
X5448300Y3987800D02*
D03*
X9677400Y5067300D02*
D03*
D13*
X7810500Y8305800D02*
D03*
D14*
X4076700Y7048500D02*
D03*
D15*
X3822700D02*
D03*
X3568700D02*
D03*
X9677400Y4127500D02*
D03*
Y3873500D02*
D03*
Y3619500D02*
D03*
X9715500Y6273800D02*
D03*
Y6527800D02*
D03*
X9677400Y7950200D02*
D03*
Y8204200D02*
D03*
D16*
X5448300Y3733800D02*
D03*
X9677400Y5321300D02*
D03*
D17*
Y3365500D02*
D03*
X9715500Y6781800D02*
D03*
X9677400Y7696200D02*
D03*
D18*
X7632700Y3784600D02*
D03*
D19*
Y4038600D02*
D03*
Y4292600D02*
D03*
Y4546600D02*
D03*
Y4800600D02*
D03*
Y5054600D02*
D03*
Y5308600D02*
D03*
Y5562600D02*
D03*
Y5816600D02*
D03*
Y6070600D02*
D03*
Y6324600D02*
D03*
Y6578600D02*
D03*
Y6832600D02*
D03*
Y7086600D02*
D03*
Y7340600D02*
D03*
X6108700D02*
D03*
Y7086600D02*
D03*
Y6832600D02*
D03*
Y6578600D02*
D03*
Y6324600D02*
D03*
Y6070600D02*
D03*
Y5816600D02*
D03*
Y5562600D02*
D03*
Y5308600D02*
D03*
Y5054600D02*
D03*
Y4800600D02*
D03*
Y4546600D02*
D03*
Y4292600D02*
D03*
Y4038600D02*
D03*
Y3784600D02*
D03*
D20*
X7632700Y3530600D02*
D03*
X6108700D02*
D03*
Y7594600D02*
D03*
X7632700D02*
D03*
D21*
X4998720Y3614420D02*
X5768340Y2844800D01*
X10028126D02*
X10147600Y2964273D01*
X5768340Y2844800D02*
X10028126D01*
X9760100Y3092600D02*
X9937600Y3270100D01*
X8927090Y3092600D02*
X9760100D01*
X8235090Y3784600D02*
X8927090Y3092600D01*
X6432700Y4496920D02*
X7907020Y3022600D01*
X7878025Y2952600D02*
X9818090D01*
X9833789Y2968300D01*
X7862325D02*
X7878025Y2952600D01*
X7907020Y3022600D02*
X9789095D01*
X10007600Y3241105D01*
X9833789Y2968300D02*
X9834952D01*
X4051300Y4686300D02*
Y5829300D01*
X5769300Y2968300D02*
X7862325D01*
X4051300Y4686300D02*
X5769300Y2968300D01*
X2921000Y6324600D02*
X6108700D01*
X2776830Y6180430D02*
X2921000Y6324600D01*
X5393426Y6133300D02*
X5486400Y6040326D01*
X3656800Y6133300D02*
X5393426D01*
X5373203Y4520097D02*
Y6065726D01*
X3289300Y6096000D02*
X3376600Y6183300D01*
X4051300Y6083300D02*
X5355629D01*
X5666600Y6233300D02*
X5715000Y6184900D01*
X5548897Y6183300D02*
X5608051Y6124146D01*
X3376600Y6183300D02*
X5548897D01*
X3543300Y6019800D02*
X3656800Y6133300D01*
X3797300Y5829300D02*
X4051300Y6083300D01*
X2877820Y6096000D02*
X3015120Y6233300D01*
X5666600D01*
X5355629Y6083300D02*
X5373203Y6065726D01*
X9834952Y2968300D02*
X10077600Y3210947D01*
X10077900Y3550089D02*
Y4378914D01*
X9850326Y3619500D02*
X9867900Y3637074D01*
X10147600Y3503221D02*
X10147899Y3503521D01*
X9937600Y3607779D02*
X9937900Y3608079D01*
X10077600Y4379214D02*
Y5359275D01*
Y4379214D02*
X10077900Y4378914D01*
X10007600Y3241105D02*
Y3578784D01*
X10147899Y3503521D02*
Y4407909D01*
X10007600Y4350219D02*
Y4876800D01*
X10147600Y2964273D02*
Y3503221D01*
X9937600Y4321224D02*
X9937900Y4320925D01*
X10007600Y3578784D02*
X10007900Y3579084D01*
X9937900Y3608079D02*
Y4320925D01*
X10007900Y3579084D02*
Y4349919D01*
X10077600Y3549789D02*
X10077900Y3550089D01*
X9937600Y4321224D02*
Y4498875D01*
X10147600Y4408209D02*
Y5388270D01*
X9770160Y4389670D02*
X9867900Y4291930D01*
X10077600Y3210947D02*
Y3549789D01*
X9867900Y3637074D02*
Y4291930D01*
X10147600Y4408209D02*
X10147899Y4407909D01*
X9937600Y3270100D02*
Y3607779D01*
X10007600Y4350219D02*
X10007900Y4349919D01*
X9677400Y3619500D02*
X9850326D01*
X9538629Y4897847D02*
X9937600Y4498875D01*
X10134600Y5401270D02*
X10147600Y5388270D01*
X9817100Y5067300D02*
X10007600Y4876800D01*
X9984074Y5452801D02*
X10077600Y5359275D01*
X10134600Y5401270D02*
Y5522800D01*
X10198100D01*
X9180400D02*
X10134600D01*
X9677400Y5067300D02*
X9817100D01*
X9538629Y4897847D02*
Y4960556D01*
X9844395Y5452800D02*
X9844396Y5452801D01*
X9545900Y5420581D02*
X9578119Y5452800D01*
X9844396Y5452801D02*
X9984074D01*
X9578119Y5452800D02*
X9844395D01*
X9538629Y4960556D02*
X9545900Y5420581D01*
X8890000Y4389670D02*
X9770160D01*
X9059673Y3619500D02*
X9677400D01*
X7632700Y4038600D02*
X8640573D01*
X9059673Y3619500D01*
X7632700Y3784600D02*
X8235090D01*
X5486400Y4660900D02*
Y6040326D01*
X7129574Y7340600D02*
X7632700D01*
X7112000Y7358174D02*
X7129574Y7340600D01*
X7112000Y7358174D02*
Y8166100D01*
X7251700Y8305800D01*
X7810500D01*
X3568700Y7048500D02*
X5130800Y8610600D01*
X9017000D01*
X9552940Y8074660D02*
X9677400Y7950200D01*
X9017000Y8610600D02*
X9552940Y8074660D01*
X3822700Y7048500D02*
X4576354Y7802154D01*
X6316254D01*
X7264400Y6854007D01*
Y4648200D02*
Y6854007D01*
Y4648200D02*
X7366000Y4546600D01*
X7632700D01*
X5448300Y3492500D02*
Y3733800D01*
X6362700Y3167174D02*
Y4724400D01*
X6345126Y3149600D02*
X6362700Y3167174D01*
X5791200Y3149600D02*
X6345126D01*
X5448300Y3492500D02*
X5791200Y3149600D01*
X6426200Y4759894D02*
Y5753100D01*
X6432700Y4496920D02*
Y4753395D01*
X6426200Y4759894D02*
X6432700Y4753395D01*
X6299136Y4787964D02*
X6362700Y4724400D01*
X6286500Y4800600D02*
X6299136Y4787964D01*
X6108700Y4800600D02*
X6286500D01*
X2877820Y3205480D02*
X2997200Y3086100D01*
X3708400D01*
X3784174Y3161874D01*
X2776830Y3144967D02*
X2937297Y2984500D01*
X4073662D02*
X4091235Y3002074D01*
Y3186726D01*
X2937297Y2984500D02*
X4073662D01*
X3784174Y3161874D02*
Y3276174D01*
X3797300Y3289300D01*
X4083828Y3194134D02*
Y3256772D01*
Y3194134D02*
X4091235Y3186726D01*
X4051300Y3289300D02*
X4083828Y3256772D01*
X3639820Y3614420D02*
X4998720D01*
X3543300Y3289300D02*
Y3517900D01*
X3639820Y3614420D01*
X3543300Y5829300D02*
Y6019800D01*
X3289300Y5829300D02*
Y6096000D01*
X8877300Y4402370D02*
X8890000Y4389670D01*
X8877300Y5219700D02*
X9180400Y5522800D01*
X8877300Y4402370D02*
Y5219700D01*
X10198100Y5522800D02*
Y6510226D01*
X9944100Y6527800D02*
X10180526D01*
X10198100Y6510226D01*
X9944100Y6527800D02*
Y8209280D01*
X9944100Y6527800D02*
X9944100Y6527800D01*
X9715500Y6527800D02*
X9944100D01*
X6108700Y6070600D02*
X6426200Y5753100D01*
X9686600Y6905300D02*
X9872980Y7091680D01*
X9624218Y6905300D02*
X9686600D01*
X7632700Y5308600D02*
X8089900D01*
X9872980Y7091680D02*
Y8008620D01*
X8089900Y5308600D02*
X9592000Y6810700D01*
Y6873082D02*
X9624218Y6905300D01*
X9592000Y6810700D02*
Y6873082D01*
X7632700Y5054600D02*
X8115300D01*
X9334500Y6273800D02*
X9715500D01*
X8115300Y5054600D02*
X9334500Y6273800D01*
X7632700Y4800600D02*
X8153400D01*
X8826500Y4127500D02*
X8991600D01*
X8153400Y4800600D02*
X8826500Y4127500D01*
X5373203Y4520097D02*
X6108700Y3784600D01*
X5486400Y4660900D02*
X6108700Y4038600D01*
X5715000Y4940300D02*
X6108700Y4546600D01*
X5715000Y4940300D02*
Y6184900D01*
X5608051Y4793249D02*
Y6124146D01*
Y4793249D02*
X6108700Y4292600D01*
X8991600Y4127500D02*
X9677400D01*
X8991600Y3898900D02*
X9004364Y3886136D01*
X8991600Y3898900D02*
Y4127500D01*
X9004364Y3886136D02*
X9017000Y3873500D01*
X9677400D01*
Y8204200D02*
X9872980Y8008620D01*
X2776830Y3144967D02*
Y6180430D01*
X2877820Y3205480D02*
Y6096000D01*
X9779000Y8374380D02*
X9944100Y8209280D01*
X9652000Y8374380D02*
X9779000D01*
X9552940Y8275320D02*
X9652000Y8374380D01*
X9552940Y8074660D02*
Y8275320D01*
%TF.MD5,46e97818f08695427584776751328e8f*%
M02*
