%TF.GenerationSoftware,Altium Limited,Altium Designer,23.1.1 (15)*%
G04 Layer_Physical_Order=1*
G04 Layer_Color=255*
%FSLAX45Y45*%
%MOMM*%
%TF.SameCoordinates,01669E30-921B-4111-9988-DD99B11C2B28*%
%TF.FilePolarity,Positive*%
%TF.FileFunction,Copper,L1,Top,Signal*%
%TF.Part,Single*%
G01*
G75*
%TA.AperFunction,NonConductor*%
%ADD10C,0.25400*%
%TA.AperFunction,ComponentPad*%
%ADD11C,2.00000*%
%ADD12C,1.53000*%
%ADD13R,1.53000X1.53000*%
%ADD14R,1.37000X1.37000*%
%ADD15C,1.37000*%
%ADD16R,1.53000X1.53000*%
%ADD17R,1.37000X1.37000*%
%ADD18R,1.52400X1.52400*%
%ADD19C,1.52400*%
%ADD20C,1.65100*%
G36*
X7794835Y37099D02*
X53699D01*
Y6317734D01*
X7794835D01*
Y37099D01*
D02*
G37*
%LPC*%
G36*
X5386967Y5852966D02*
X5153967D01*
Y5619967D01*
X5386967D01*
Y5852966D01*
D02*
G37*
G36*
X7151651Y5743366D02*
X7123083D01*
X7095487Y5735972D01*
X7070747Y5721688D01*
X7050545Y5701487D01*
X7036261Y5676746D01*
X7028867Y5649151D01*
Y5620582D01*
X7036261Y5592987D01*
X7050545Y5568246D01*
X7070747Y5548045D01*
X7095487Y5533761D01*
X7123083Y5526367D01*
X7151651D01*
X7179247Y5533761D01*
X7203987Y5548045D01*
X7224188Y5568246D01*
X7238473Y5592987D01*
X7245867Y5620582D01*
Y5649151D01*
X7238473Y5676746D01*
X7224188Y5701487D01*
X7203987Y5721688D01*
X7179247Y5735972D01*
X7151651Y5743366D01*
D02*
G37*
G36*
Y5489366D02*
X7123083D01*
X7095487Y5481972D01*
X7070747Y5467688D01*
X7050545Y5447487D01*
X7036261Y5422746D01*
X7028867Y5395151D01*
Y5366582D01*
X7036261Y5338987D01*
X7050545Y5314246D01*
X7070747Y5294045D01*
X7095487Y5279761D01*
X7123083Y5272367D01*
X7151651D01*
X7179247Y5279761D01*
X7203987Y5294045D01*
X7224188Y5314246D01*
X7238473Y5338987D01*
X7245867Y5366582D01*
Y5395151D01*
X7238473Y5422746D01*
X7224188Y5447487D01*
X7203987Y5467688D01*
X7179247Y5481972D01*
X7151651Y5489366D01*
D02*
G37*
G36*
X5108801Y5147816D02*
X5076533D01*
X5045365Y5139465D01*
X5017420Y5123331D01*
X4994603Y5100514D01*
X4978469Y5072569D01*
X4970117Y5041401D01*
Y5009132D01*
X4978469Y4977964D01*
X4994603Y4950019D01*
X5017420Y4927202D01*
X5045365Y4911068D01*
X5076533Y4902717D01*
X5108801D01*
X5139969Y4911068D01*
X5167914Y4927202D01*
X5190731Y4950019D01*
X5206865Y4977964D01*
X5215217Y5009132D01*
Y5041401D01*
X5206865Y5072569D01*
X5190731Y5100514D01*
X5167914Y5123331D01*
X5139969Y5139465D01*
X5108801Y5147816D01*
D02*
G37*
G36*
X3584801D02*
X3552533D01*
X3521365Y5139465D01*
X3493420Y5123331D01*
X3470603Y5100514D01*
X3454469Y5072569D01*
X3446117Y5041401D01*
Y5009132D01*
X3454469Y4977964D01*
X3470603Y4950019D01*
X3493420Y4927202D01*
X3521365Y4911068D01*
X3552533Y4902717D01*
X3584801D01*
X3615969Y4911068D01*
X3643914Y4927202D01*
X3666731Y4950019D01*
X3682865Y4977964D01*
X3691217Y5009132D01*
Y5041401D01*
X3682865Y5072569D01*
X3666731Y5100514D01*
X3643914Y5123331D01*
X3615969Y5139465D01*
X3584801Y5147816D01*
D02*
G37*
G36*
X5107965Y4887466D02*
X5077369D01*
X5047815Y4879548D01*
X5021318Y4864250D01*
X4999684Y4842615D01*
X4984386Y4816118D01*
X4976467Y4786564D01*
Y4755969D01*
X4984386Y4726415D01*
X4999684Y4699918D01*
X5021318Y4678284D01*
X5047815Y4662985D01*
X5077369Y4655067D01*
X5107965D01*
X5137519Y4662985D01*
X5164016Y4678284D01*
X5185650Y4699918D01*
X5200948Y4726415D01*
X5208867Y4755969D01*
Y4786564D01*
X5200948Y4816118D01*
X5185650Y4842615D01*
X5164016Y4864250D01*
X5137519Y4879548D01*
X5107965Y4887466D01*
D02*
G37*
G36*
X3583965D02*
X3553369D01*
X3523815Y4879548D01*
X3497318Y4864250D01*
X3475684Y4842615D01*
X3460386Y4816118D01*
X3452467Y4786564D01*
Y4755969D01*
X3460386Y4726415D01*
X3475684Y4699918D01*
X3497318Y4678284D01*
X3523815Y4662985D01*
X3553369Y4655067D01*
X3583965D01*
X3613519Y4662985D01*
X3640016Y4678284D01*
X3661650Y4699918D01*
X3676948Y4726415D01*
X3684867Y4755969D01*
Y4786564D01*
X3676948Y4816118D01*
X3661650Y4842615D01*
X3640016Y4864250D01*
X3613519Y4879548D01*
X3583965Y4887466D01*
D02*
G37*
G36*
Y4633466D02*
X3553369D01*
X3523815Y4625548D01*
X3497318Y4610250D01*
X3475684Y4588615D01*
X3460386Y4562118D01*
X3452467Y4532564D01*
Y4501969D01*
X3460386Y4472415D01*
X3475684Y4445918D01*
X3497318Y4424284D01*
X3523815Y4408985D01*
X3553369Y4401067D01*
X3583965D01*
X3613519Y4408985D01*
X3640016Y4424284D01*
X3661650Y4445918D01*
X3676948Y4472415D01*
X3684867Y4501969D01*
Y4532564D01*
X3676948Y4562118D01*
X3661650Y4588615D01*
X3640016Y4610250D01*
X3613519Y4625548D01*
X3583965Y4633466D01*
D02*
G37*
G36*
X1296951Y4587666D02*
X1268383D01*
X1240787Y4580272D01*
X1216047Y4565988D01*
X1195845Y4545787D01*
X1181561Y4521046D01*
X1174167Y4493451D01*
Y4464882D01*
X1181561Y4437287D01*
X1195845Y4412546D01*
X1216047Y4392345D01*
X1240787Y4378061D01*
X1268383Y4370667D01*
X1296951D01*
X1324546Y4378061D01*
X1349287Y4392345D01*
X1369488Y4412546D01*
X1383773Y4437287D01*
X1391167Y4464882D01*
Y4493451D01*
X1383773Y4521046D01*
X1369488Y4545787D01*
X1349287Y4565988D01*
X1324546Y4580272D01*
X1296951Y4587666D01*
D02*
G37*
G36*
X1042951D02*
X1014383D01*
X986787Y4580272D01*
X962047Y4565988D01*
X941845Y4545787D01*
X927561Y4521046D01*
X920167Y4493451D01*
Y4464882D01*
X927561Y4437287D01*
X941845Y4412546D01*
X962047Y4392345D01*
X986787Y4378061D01*
X1014383Y4370667D01*
X1042951D01*
X1070547Y4378061D01*
X1095287Y4392345D01*
X1115488Y4412546D01*
X1129773Y4437287D01*
X1137167Y4464882D01*
Y4493451D01*
X1129773Y4521046D01*
X1115488Y4545787D01*
X1095287Y4565988D01*
X1070547Y4580272D01*
X1042951Y4587666D01*
D02*
G37*
G36*
X5107965Y4379466D02*
X5077369D01*
X5047815Y4371548D01*
X5021318Y4356250D01*
X4999684Y4334615D01*
X4984386Y4308118D01*
X4976467Y4278564D01*
Y4247969D01*
X4984386Y4218415D01*
X4999684Y4191918D01*
X5021318Y4170284D01*
X5047815Y4154985D01*
X5077369Y4147067D01*
X5107965D01*
X5137519Y4154985D01*
X5164016Y4170284D01*
X5185650Y4191918D01*
X5200948Y4218415D01*
X5208867Y4247969D01*
Y4278564D01*
X5200948Y4308118D01*
X5185650Y4334615D01*
X5164016Y4356250D01*
X5137519Y4371548D01*
X5107965Y4379466D01*
D02*
G37*
G36*
X3583965D02*
X3553369D01*
X3523815Y4371548D01*
X3497318Y4356250D01*
X3475684Y4334615D01*
X3460386Y4308118D01*
X3452467Y4278564D01*
Y4247969D01*
X3460386Y4218415D01*
X3475684Y4191918D01*
X3497318Y4170284D01*
X3523815Y4154985D01*
X3553369Y4147067D01*
X3583965D01*
X3613519Y4154985D01*
X3640016Y4170284D01*
X3661650Y4191918D01*
X3676948Y4218415D01*
X3684867Y4247969D01*
Y4278564D01*
X3676948Y4308118D01*
X3661650Y4334615D01*
X3640016Y4356250D01*
X3613519Y4371548D01*
X3583965Y4379466D01*
D02*
G37*
G36*
X5107965Y4125466D02*
X5077369D01*
X5047815Y4117548D01*
X5021318Y4102250D01*
X4999684Y4080615D01*
X4984386Y4054118D01*
X4976467Y4024564D01*
Y3993969D01*
X4984386Y3964415D01*
X4999684Y3937918D01*
X5021318Y3916284D01*
X5047815Y3900985D01*
X5077369Y3893067D01*
X5107965D01*
X5137519Y3900985D01*
X5164016Y3916284D01*
X5185650Y3937918D01*
X5200948Y3964415D01*
X5208867Y3993969D01*
Y4024564D01*
X5200948Y4054118D01*
X5185650Y4080615D01*
X5164016Y4102250D01*
X5137519Y4117548D01*
X5107965Y4125466D01*
D02*
G37*
G36*
X7189751Y4066966D02*
X7161183D01*
X7133587Y4059572D01*
X7108847Y4045288D01*
X7088645Y4025087D01*
X7074361Y4000346D01*
X7066967Y3972751D01*
Y3944182D01*
X7074361Y3916587D01*
X7088645Y3891846D01*
X7108847Y3871645D01*
X7133587Y3857361D01*
X7161183Y3849967D01*
X7189751D01*
X7217347Y3857361D01*
X7242087Y3871645D01*
X7262288Y3891846D01*
X7276573Y3916587D01*
X7283967Y3944182D01*
Y3972751D01*
X7276573Y4000346D01*
X7262288Y4025087D01*
X7242087Y4045288D01*
X7217347Y4059572D01*
X7189751Y4066966D01*
D02*
G37*
G36*
X5107965Y3871466D02*
X5077369D01*
X5047815Y3863548D01*
X5021318Y3848250D01*
X4999684Y3826615D01*
X4984386Y3800118D01*
X4976467Y3770564D01*
Y3739969D01*
X4984386Y3710415D01*
X4999684Y3683918D01*
X5021318Y3662284D01*
X5047815Y3646985D01*
X5077369Y3639067D01*
X5107965D01*
X5137519Y3646985D01*
X5164016Y3662284D01*
X5185650Y3683918D01*
X5200948Y3710415D01*
X5208867Y3739969D01*
Y3770564D01*
X5200948Y3800118D01*
X5185650Y3826615D01*
X5164016Y3848250D01*
X5137519Y3863548D01*
X5107965Y3871466D01*
D02*
G37*
G36*
X3583965D02*
X3553369D01*
X3523815Y3863548D01*
X3497318Y3848250D01*
X3475684Y3826615D01*
X3460386Y3800118D01*
X3452467Y3770564D01*
Y3739969D01*
X3460386Y3710415D01*
X3475684Y3683918D01*
X3497318Y3662284D01*
X3523815Y3646985D01*
X3553369Y3639067D01*
X3583965D01*
X3613519Y3646985D01*
X3640016Y3662284D01*
X3661650Y3683918D01*
X3676948Y3710415D01*
X3684867Y3739969D01*
Y3770564D01*
X3676948Y3800118D01*
X3661650Y3826615D01*
X3640016Y3848250D01*
X3613519Y3863548D01*
X3583965Y3871466D01*
D02*
G37*
G36*
X7189751Y3812966D02*
X7161183D01*
X7133587Y3805572D01*
X7108847Y3791288D01*
X7088645Y3771087D01*
X7074361Y3746346D01*
X7066967Y3718751D01*
Y3690182D01*
X7074361Y3662587D01*
X7088645Y3637846D01*
X7108847Y3617645D01*
X7133587Y3603361D01*
X7161183Y3595967D01*
X7189751D01*
X7217347Y3603361D01*
X7242087Y3617645D01*
X7262288Y3637846D01*
X7276573Y3662587D01*
X7283967Y3690182D01*
Y3718751D01*
X7276573Y3746346D01*
X7262288Y3771087D01*
X7242087Y3791288D01*
X7217347Y3805572D01*
X7189751Y3812966D01*
D02*
G37*
G36*
X5107965Y3617466D02*
X5077369D01*
X5047815Y3609548D01*
X5021318Y3594250D01*
X4999684Y3572615D01*
X4984386Y3546118D01*
X4976467Y3516564D01*
Y3485969D01*
X4984386Y3456415D01*
X4999684Y3429918D01*
X5021318Y3408284D01*
X5047815Y3392985D01*
X5077369Y3385067D01*
X5107965D01*
X5137519Y3392985D01*
X5164016Y3408284D01*
X5185650Y3429918D01*
X5200948Y3456415D01*
X5208867Y3485969D01*
Y3516564D01*
X5200948Y3546118D01*
X5185650Y3572615D01*
X5164016Y3594250D01*
X5137519Y3609548D01*
X5107965Y3617466D01*
D02*
G37*
G36*
X3583965D02*
X3553369D01*
X3523815Y3609548D01*
X3497318Y3594250D01*
X3475684Y3572615D01*
X3460386Y3546118D01*
X3452467Y3516564D01*
Y3485969D01*
X3460386Y3456415D01*
X3475684Y3429918D01*
X3497318Y3408284D01*
X3523815Y3392985D01*
X3553369Y3385067D01*
X3583965D01*
X3613519Y3392985D01*
X3640016Y3408284D01*
X3661650Y3429918D01*
X3676948Y3456415D01*
X3684867Y3485969D01*
Y3516564D01*
X3676948Y3546118D01*
X3661650Y3572615D01*
X3640016Y3594250D01*
X3613519Y3609548D01*
X3583965Y3617466D01*
D02*
G37*
G36*
X2291698Y3399966D02*
X2254836D01*
X2219229Y3390426D01*
X2187305Y3371994D01*
X2161239Y3345928D01*
X2152617Y3330994D01*
X2139917D01*
X2131295Y3345928D01*
X2105229Y3371994D01*
X2073305Y3390426D01*
X2037698Y3399966D01*
X2000836D01*
X1965229Y3390426D01*
X1933305Y3371994D01*
X1907239Y3345928D01*
X1898617Y3330994D01*
X1885917D01*
X1877295Y3345928D01*
X1851229Y3371994D01*
X1819305Y3390426D01*
X1783698Y3399966D01*
X1746836D01*
X1711229Y3390426D01*
X1679305Y3371994D01*
X1653239Y3345928D01*
X1644617Y3330994D01*
X1631917D01*
X1623295Y3345928D01*
X1597229Y3371994D01*
X1565305Y3390426D01*
X1529698Y3399966D01*
X1492836D01*
X1457229Y3390426D01*
X1425305Y3371994D01*
X1399239Y3345928D01*
X1390617Y3330994D01*
X1377917D01*
X1369295Y3345928D01*
X1343229Y3371994D01*
X1311305Y3390426D01*
X1275698Y3399966D01*
X1238836D01*
X1203229Y3390426D01*
X1171305Y3371994D01*
X1145239Y3345928D01*
X1136617Y3330994D01*
X1123917D01*
X1115295Y3345928D01*
X1089229Y3371994D01*
X1057305Y3390426D01*
X1021698Y3399966D01*
X984836D01*
X949229Y3390426D01*
X917305Y3371994D01*
X891239Y3345928D01*
X882617Y3330994D01*
X869917D01*
X861295Y3345928D01*
X835229Y3371994D01*
X803305Y3390426D01*
X767698Y3399966D01*
X730836D01*
X695229Y3390426D01*
X663305Y3371994D01*
X637239Y3345928D01*
X628617Y3330994D01*
X615917D01*
X607295Y3345928D01*
X581229Y3371994D01*
X549305Y3390426D01*
X513698Y3399966D01*
X476836D01*
X441229Y3390426D01*
X409305Y3371994D01*
X383239Y3345928D01*
X364808Y3314004D01*
X355267Y3278398D01*
Y3241535D01*
X364808Y3205929D01*
X383239Y3174005D01*
X409305Y3147939D01*
X441229Y3129508D01*
X476836Y3119967D01*
X513698D01*
X549305Y3129508D01*
X581229Y3147939D01*
X607295Y3174005D01*
X615917Y3188939D01*
X628617D01*
X637239Y3174005D01*
X663305Y3147939D01*
X695229Y3129508D01*
X730836Y3119967D01*
X767698D01*
X803305Y3129508D01*
X835229Y3147939D01*
X861295Y3174005D01*
X869917Y3188939D01*
X882617D01*
X891239Y3174005D01*
X917305Y3147939D01*
X949229Y3129508D01*
X984836Y3119967D01*
X1021698D01*
X1057305Y3129508D01*
X1089229Y3147939D01*
X1115295Y3174005D01*
X1123917Y3188939D01*
X1136617D01*
X1145239Y3174005D01*
X1171305Y3147939D01*
X1203229Y3129508D01*
X1238836Y3119967D01*
X1275698D01*
X1311305Y3129508D01*
X1343229Y3147939D01*
X1369295Y3174005D01*
X1377917Y3188939D01*
X1390617D01*
X1399239Y3174005D01*
X1425305Y3147939D01*
X1457229Y3129508D01*
X1492836Y3119967D01*
X1529698D01*
X1565305Y3129508D01*
X1597229Y3147939D01*
X1623295Y3174005D01*
X1631917Y3188939D01*
X1644617D01*
X1653239Y3174005D01*
X1679305Y3147939D01*
X1711229Y3129508D01*
X1746836Y3119967D01*
X1783698D01*
X1819305Y3129508D01*
X1851229Y3147939D01*
X1877295Y3174005D01*
X1885917Y3188939D01*
X1898617D01*
X1907239Y3174005D01*
X1933305Y3147939D01*
X1965229Y3129508D01*
X2000836Y3119967D01*
X2037698D01*
X2073305Y3129508D01*
X2105229Y3147939D01*
X2131295Y3174005D01*
X2139917Y3188939D01*
X2152617D01*
X2161239Y3174005D01*
X2187305Y3147939D01*
X2219229Y3129508D01*
X2254836Y3119967D01*
X2291698D01*
X2327305Y3129508D01*
X2359229Y3147939D01*
X2385295Y3174005D01*
X2403726Y3205929D01*
X2413267Y3241535D01*
Y3278398D01*
X2403726Y3314004D01*
X2385295Y3345928D01*
X2359229Y3371994D01*
X2327305Y3390426D01*
X2291698Y3399966D01*
D02*
G37*
G36*
X5107965Y3363466D02*
X5077369D01*
X5047815Y3355548D01*
X5021318Y3340250D01*
X4999684Y3318615D01*
X4984386Y3292118D01*
X4976467Y3262564D01*
Y3231969D01*
X4984386Y3202415D01*
X4999684Y3175918D01*
X5021318Y3154284D01*
X5047815Y3138985D01*
X5077369Y3131067D01*
X5107965D01*
X5137519Y3138985D01*
X5164016Y3154284D01*
X5185650Y3175918D01*
X5200948Y3202415D01*
X5208867Y3231969D01*
Y3262564D01*
X5200948Y3292118D01*
X5185650Y3318615D01*
X5164016Y3340250D01*
X5137519Y3355548D01*
X5107965Y3363466D01*
D02*
G37*
G36*
X3583965D02*
X3553369D01*
X3523815Y3355548D01*
X3497318Y3340250D01*
X3475684Y3318615D01*
X3460386Y3292118D01*
X3452467Y3262564D01*
Y3231969D01*
X3460386Y3202415D01*
X3475684Y3175918D01*
X3497318Y3154284D01*
X3523815Y3138985D01*
X3553369Y3131067D01*
X3583965D01*
X3613519Y3138985D01*
X3640016Y3154284D01*
X3661650Y3175918D01*
X3676948Y3202415D01*
X3684867Y3231969D01*
Y3262564D01*
X3676948Y3292118D01*
X3661650Y3318615D01*
X3640016Y3340250D01*
X3613519Y3355548D01*
X3583965Y3363466D01*
D02*
G37*
G36*
X5107965Y3109466D02*
X5077369D01*
X5047815Y3101548D01*
X5021318Y3086250D01*
X4999684Y3064615D01*
X4984386Y3038118D01*
X4976467Y3008564D01*
Y2977969D01*
X4984386Y2948415D01*
X4999684Y2921918D01*
X5021318Y2900284D01*
X5047815Y2884985D01*
X5077369Y2877067D01*
X5107965D01*
X5137519Y2884985D01*
X5164016Y2900284D01*
X5185650Y2921918D01*
X5200948Y2948415D01*
X5208867Y2977969D01*
Y3008564D01*
X5200948Y3038118D01*
X5185650Y3064615D01*
X5164016Y3086250D01*
X5137519Y3101548D01*
X5107965Y3109466D01*
D02*
G37*
G36*
X3583965D02*
X3553369D01*
X3523815Y3101548D01*
X3497318Y3086250D01*
X3475684Y3064615D01*
X3460386Y3038118D01*
X3452467Y3008564D01*
Y2977969D01*
X3460386Y2948415D01*
X3475684Y2921918D01*
X3497318Y2900284D01*
X3523815Y2884985D01*
X3553369Y2877067D01*
X3583965D01*
X3613519Y2884985D01*
X3640016Y2900284D01*
X3661650Y2921918D01*
X3676948Y2948415D01*
X3684867Y2977969D01*
Y3008564D01*
X3676948Y3038118D01*
X3661650Y3064615D01*
X3640016Y3086250D01*
X3613519Y3101548D01*
X3583965Y3109466D01*
D02*
G37*
G36*
X5107965Y2855466D02*
X5077369D01*
X5047815Y2847548D01*
X5021318Y2832250D01*
X4999684Y2810615D01*
X4984386Y2784118D01*
X4976467Y2754564D01*
Y2723969D01*
X4984386Y2694415D01*
X4999684Y2667918D01*
X5021318Y2646284D01*
X5047815Y2630985D01*
X5077369Y2623067D01*
X5107965D01*
X5137519Y2630985D01*
X5164016Y2646284D01*
X5185650Y2667918D01*
X5200948Y2694415D01*
X5208867Y2723969D01*
Y2754564D01*
X5200948Y2784118D01*
X5185650Y2810615D01*
X5164016Y2832250D01*
X5137519Y2847548D01*
X5107965Y2855466D01*
D02*
G37*
G36*
X3583965D02*
X3553369D01*
X3523815Y2847548D01*
X3497318Y2832250D01*
X3475684Y2810615D01*
X3460386Y2784118D01*
X3452467Y2754564D01*
Y2723969D01*
X3460386Y2694415D01*
X3475684Y2667918D01*
X3497318Y2646284D01*
X3523815Y2630985D01*
X3553369Y2623067D01*
X3583965D01*
X3613519Y2630985D01*
X3640016Y2646284D01*
X3661650Y2667918D01*
X3676948Y2694415D01*
X3684867Y2723969D01*
Y2754564D01*
X3676948Y2784118D01*
X3661650Y2810615D01*
X3640016Y2832250D01*
X3613519Y2847548D01*
X3583965Y2855466D01*
D02*
G37*
G36*
X7152705Y2614466D02*
X7122029D01*
X7092400Y2606527D01*
X7065834Y2591190D01*
X7044144Y2569499D01*
X7028806Y2542934D01*
X7020867Y2513304D01*
Y2482629D01*
X7028806Y2452999D01*
X7044144Y2426434D01*
X7065834Y2404743D01*
X7092400Y2389406D01*
X7122029Y2381467D01*
X7152705D01*
X7182334Y2389406D01*
X7208900Y2404743D01*
X7230590Y2426434D01*
X7245928Y2452999D01*
X7253867Y2482629D01*
Y2513304D01*
X7245928Y2542934D01*
X7230590Y2569499D01*
X7208900Y2591190D01*
X7182334Y2606527D01*
X7152705Y2614466D01*
D02*
G37*
G36*
X5107965Y2601466D02*
X5077369D01*
X5047815Y2593548D01*
X5021318Y2578250D01*
X4999684Y2556615D01*
X4984386Y2530118D01*
X4976467Y2500564D01*
Y2469969D01*
X4984386Y2440415D01*
X4999684Y2413918D01*
X5021318Y2392284D01*
X5047815Y2376985D01*
X5077369Y2369067D01*
X5107965D01*
X5137519Y2376985D01*
X5164016Y2392284D01*
X5185650Y2413918D01*
X5200948Y2440415D01*
X5208867Y2469969D01*
Y2500564D01*
X5200948Y2530118D01*
X5185650Y2556615D01*
X5164016Y2578250D01*
X5137519Y2593548D01*
X5107965Y2601466D01*
D02*
G37*
G36*
X3583965D02*
X3553369D01*
X3523815Y2593548D01*
X3497318Y2578250D01*
X3475684Y2556615D01*
X3460386Y2530118D01*
X3452467Y2500564D01*
Y2469969D01*
X3460386Y2440415D01*
X3475684Y2413918D01*
X3497318Y2392284D01*
X3523815Y2376985D01*
X3553369Y2369067D01*
X3583965D01*
X3613519Y2376985D01*
X3640016Y2392284D01*
X3661650Y2413918D01*
X3676948Y2440415D01*
X3684867Y2469969D01*
Y2500564D01*
X3676948Y2530118D01*
X3661650Y2556615D01*
X3640016Y2578250D01*
X3613519Y2593548D01*
X3583965Y2601466D01*
D02*
G37*
G36*
X5107965Y2347466D02*
X5077369D01*
X5047815Y2339548D01*
X5021318Y2324250D01*
X4999684Y2302615D01*
X4984386Y2276118D01*
X4976467Y2246564D01*
Y2215969D01*
X4984386Y2186415D01*
X4999684Y2159918D01*
X5021318Y2138284D01*
X5047815Y2122985D01*
X5077369Y2115067D01*
X5107965D01*
X5137519Y2122985D01*
X5164016Y2138284D01*
X5185650Y2159918D01*
X5200948Y2186415D01*
X5208867Y2215969D01*
Y2246564D01*
X5200948Y2276118D01*
X5185650Y2302615D01*
X5164016Y2324250D01*
X5137519Y2339548D01*
X5107965Y2347466D01*
D02*
G37*
G36*
X3583965D02*
X3553369D01*
X3523815Y2339548D01*
X3497318Y2324250D01*
X3475684Y2302615D01*
X3460386Y2276118D01*
X3452467Y2246564D01*
Y2215969D01*
X3460386Y2186415D01*
X3475684Y2159918D01*
X3497318Y2138284D01*
X3523815Y2122985D01*
X3553369Y2115067D01*
X3583965D01*
X3613519Y2122985D01*
X3640016Y2138284D01*
X3661650Y2159918D01*
X3676948Y2186415D01*
X3684867Y2215969D01*
Y2246564D01*
X3676948Y2276118D01*
X3661650Y2302615D01*
X3640016Y2324250D01*
X3613519Y2339548D01*
X3583965Y2347466D01*
D02*
G37*
G36*
X5107965Y2093466D02*
X5077369D01*
X5047815Y2085548D01*
X5021318Y2070250D01*
X4999684Y2048615D01*
X4984386Y2022118D01*
X4976467Y1992564D01*
Y1961969D01*
X4984386Y1932415D01*
X4999684Y1905918D01*
X5021318Y1884284D01*
X5047815Y1868985D01*
X5077369Y1861067D01*
X5107965D01*
X5137519Y1868985D01*
X5164016Y1884284D01*
X5185650Y1905918D01*
X5200948Y1932415D01*
X5208867Y1961969D01*
Y1992564D01*
X5200948Y2022118D01*
X5185650Y2048615D01*
X5164016Y2070250D01*
X5137519Y2085548D01*
X5107965Y2093466D01*
D02*
G37*
G36*
X3583965D02*
X3553369D01*
X3523815Y2085548D01*
X3497318Y2070250D01*
X3475684Y2048615D01*
X3460386Y2022118D01*
X3452467Y1992564D01*
Y1961969D01*
X3460386Y1932415D01*
X3475684Y1905918D01*
X3497318Y1884284D01*
X3523815Y1868985D01*
X3553369Y1861067D01*
X3583965D01*
X3613519Y1868985D01*
X3640016Y1884284D01*
X3661650Y1905918D01*
X3676948Y1932415D01*
X3684867Y1961969D01*
Y1992564D01*
X3676948Y2022118D01*
X3661650Y2048615D01*
X3640016Y2070250D01*
X3613519Y2085548D01*
X3583965Y2093466D01*
D02*
G37*
G36*
X5107965Y1839466D02*
X5077369D01*
X5047815Y1831548D01*
X5021318Y1816250D01*
X4999684Y1794615D01*
X4984386Y1768118D01*
X4976467Y1738564D01*
Y1707969D01*
X4984386Y1678415D01*
X4999684Y1651918D01*
X5021318Y1630284D01*
X5047815Y1614985D01*
X5077369Y1607067D01*
X5107965D01*
X5137519Y1614985D01*
X5164016Y1630284D01*
X5185650Y1651918D01*
X5200948Y1678415D01*
X5208867Y1707969D01*
Y1738564D01*
X5200948Y1768118D01*
X5185650Y1794615D01*
X5164016Y1816250D01*
X5137519Y1831548D01*
X5107965Y1839466D01*
D02*
G37*
G36*
X3583965D02*
X3553369D01*
X3523815Y1831548D01*
X3497318Y1816250D01*
X3475684Y1794615D01*
X3460386Y1768118D01*
X3452467Y1738564D01*
Y1707969D01*
X3460386Y1678415D01*
X3475684Y1651918D01*
X3497318Y1630284D01*
X3523815Y1614985D01*
X3553369Y1607067D01*
X3583965D01*
X3613519Y1614985D01*
X3640016Y1630284D01*
X3661650Y1651918D01*
X3676948Y1678415D01*
X3684867Y1707969D01*
Y1738564D01*
X3676948Y1768118D01*
X3661650Y1794615D01*
X3640016Y1816250D01*
X3613519Y1831548D01*
X3583965Y1839466D01*
D02*
G37*
G36*
X7151651Y1666666D02*
X7123083D01*
X7095487Y1659272D01*
X7070747Y1644988D01*
X7050545Y1624787D01*
X7036261Y1600046D01*
X7028867Y1572451D01*
Y1543882D01*
X7036261Y1516287D01*
X7050545Y1491546D01*
X7070747Y1471345D01*
X7095487Y1457061D01*
X7123083Y1449667D01*
X7151651D01*
X7179247Y1457061D01*
X7203987Y1471345D01*
X7224188Y1491546D01*
X7238473Y1516287D01*
X7245867Y1543882D01*
Y1572451D01*
X7238473Y1600046D01*
X7224188Y1624787D01*
X7203987Y1644988D01*
X7179247Y1659272D01*
X7151651Y1666666D01*
D02*
G37*
G36*
X5107965Y1585466D02*
X5077369D01*
X5047815Y1577548D01*
X5021318Y1562250D01*
X4999684Y1540615D01*
X4984386Y1514118D01*
X4976467Y1484564D01*
Y1453969D01*
X4984386Y1424415D01*
X4999684Y1397918D01*
X5021318Y1376284D01*
X5047815Y1360985D01*
X5077369Y1353067D01*
X5107965D01*
X5137519Y1360985D01*
X5164016Y1376284D01*
X5185650Y1397918D01*
X5200948Y1424415D01*
X5208867Y1453969D01*
Y1484564D01*
X5200948Y1514118D01*
X5185650Y1540615D01*
X5164016Y1562250D01*
X5137519Y1577548D01*
X5107965Y1585466D01*
D02*
G37*
G36*
X3583965D02*
X3553369D01*
X3523815Y1577548D01*
X3497318Y1562250D01*
X3475684Y1540615D01*
X3460386Y1514118D01*
X3452467Y1484564D01*
Y1453969D01*
X3460386Y1424415D01*
X3475684Y1397918D01*
X3497318Y1376284D01*
X3523815Y1360985D01*
X3553369Y1353067D01*
X3583965D01*
X3613519Y1360985D01*
X3640016Y1376284D01*
X3661650Y1397918D01*
X3676948Y1424415D01*
X3684867Y1453969D01*
Y1484564D01*
X3676948Y1514118D01*
X3661650Y1540615D01*
X3640016Y1562250D01*
X3613519Y1577548D01*
X3583965Y1585466D01*
D02*
G37*
G36*
X7151651Y1412666D02*
X7123083D01*
X7095487Y1405272D01*
X7070747Y1390988D01*
X7050545Y1370787D01*
X7036261Y1346046D01*
X7028867Y1318451D01*
Y1289882D01*
X7036261Y1262287D01*
X7050545Y1237546D01*
X7070747Y1217345D01*
X7095487Y1203061D01*
X7123083Y1195667D01*
X7151651D01*
X7179247Y1203061D01*
X7203987Y1217345D01*
X7224188Y1237546D01*
X7238473Y1262287D01*
X7245867Y1289882D01*
Y1318451D01*
X7238473Y1346046D01*
X7224188Y1370787D01*
X7203987Y1390988D01*
X7179247Y1405272D01*
X7151651Y1412666D01*
D02*
G37*
G36*
X5208867Y1331466D02*
X4976467D01*
Y1099067D01*
X5208867D01*
Y1331466D01*
D02*
G37*
G36*
X3583965D02*
X3553369D01*
X3523815Y1323548D01*
X3497318Y1308250D01*
X3475684Y1286615D01*
X3460386Y1260118D01*
X3452467Y1230564D01*
Y1199969D01*
X3460386Y1170415D01*
X3475684Y1143918D01*
X3497318Y1122284D01*
X3523815Y1106985D01*
X3553369Y1099067D01*
X3583965D01*
X3613519Y1106985D01*
X3640016Y1122284D01*
X3661650Y1143918D01*
X3676948Y1170415D01*
X3684867Y1199969D01*
Y1230564D01*
X3676948Y1260118D01*
X3661650Y1286615D01*
X3640016Y1308250D01*
X3613519Y1323548D01*
X3583965Y1331466D01*
D02*
G37*
G36*
X3024767Y1280966D02*
X2791767D01*
Y1047967D01*
X3024767D01*
Y1280966D01*
D02*
G37*
G36*
X7151651Y1158666D02*
X7123083D01*
X7095487Y1151272D01*
X7070747Y1136988D01*
X7050545Y1116787D01*
X7036261Y1092046D01*
X7028867Y1064451D01*
Y1035882D01*
X7036261Y1008287D01*
X7050545Y983546D01*
X7070747Y963345D01*
X7095487Y949061D01*
X7123083Y941667D01*
X7151651D01*
X7179247Y949061D01*
X7203987Y963345D01*
X7224188Y983546D01*
X7238473Y1008287D01*
X7245867Y1035882D01*
Y1064451D01*
X7238473Y1092046D01*
X7224188Y1116787D01*
X7203987Y1136988D01*
X7179247Y1151272D01*
X7151651Y1158666D01*
D02*
G37*
G36*
X5108801Y1083816D02*
X5076533D01*
X5045365Y1075465D01*
X5017420Y1059331D01*
X4994603Y1036514D01*
X4978469Y1008569D01*
X4970117Y977401D01*
Y945132D01*
X4978469Y913964D01*
X4994603Y886019D01*
X5017420Y863202D01*
X5045365Y847068D01*
X5076533Y838717D01*
X5108801D01*
X5139969Y847068D01*
X5167914Y863202D01*
X5190731Y886019D01*
X5206865Y913964D01*
X5215217Y945132D01*
Y977401D01*
X5206865Y1008569D01*
X5190731Y1036514D01*
X5167914Y1059331D01*
X5139969Y1075465D01*
X5108801Y1083816D01*
D02*
G37*
G36*
X3584801D02*
X3552533D01*
X3521365Y1075465D01*
X3493420Y1059331D01*
X3470603Y1036514D01*
X3454469Y1008569D01*
X3446117Y977401D01*
Y945132D01*
X3454469Y913964D01*
X3470603Y886019D01*
X3493420Y863202D01*
X3521365Y847068D01*
X3552533Y838717D01*
X3584801D01*
X3615969Y847068D01*
X3643914Y863202D01*
X3666731Y886019D01*
X3682865Y913964D01*
X3691217Y945132D01*
Y977401D01*
X3682865Y1008569D01*
X3666731Y1036514D01*
X3643914Y1059331D01*
X3615969Y1075465D01*
X3584801Y1083816D01*
D02*
G37*
G36*
X2291698Y859966D02*
X2254836D01*
X2219229Y850426D01*
X2187305Y831994D01*
X2161239Y805928D01*
X2152617Y790994D01*
X2139917D01*
X2131295Y805928D01*
X2105229Y831994D01*
X2073305Y850426D01*
X2037698Y859966D01*
X2000836D01*
X1965229Y850426D01*
X1933305Y831994D01*
X1907239Y805928D01*
X1898617Y790994D01*
X1885917D01*
X1877295Y805928D01*
X1851229Y831994D01*
X1819305Y850426D01*
X1783698Y859966D01*
X1746836D01*
X1711229Y850426D01*
X1679305Y831994D01*
X1653239Y805928D01*
X1644617Y790994D01*
X1631917D01*
X1623295Y805928D01*
X1597229Y831994D01*
X1565305Y850426D01*
X1529698Y859966D01*
X1492836D01*
X1457229Y850426D01*
X1425305Y831994D01*
X1399239Y805928D01*
X1390617Y790994D01*
X1377917D01*
X1369295Y805928D01*
X1343229Y831994D01*
X1311305Y850426D01*
X1275698Y859966D01*
X1238836D01*
X1203229Y850426D01*
X1171305Y831994D01*
X1145239Y805928D01*
X1136617Y790994D01*
X1123917D01*
X1115295Y805928D01*
X1089229Y831994D01*
X1057305Y850426D01*
X1021698Y859966D01*
X984836D01*
X949229Y850426D01*
X917305Y831994D01*
X891239Y805928D01*
X872808Y774004D01*
X863267Y738398D01*
Y701535D01*
X872808Y665929D01*
X891239Y634005D01*
X917305Y607939D01*
X949229Y589508D01*
X984836Y579967D01*
X1021698D01*
X1057305Y589508D01*
X1089229Y607939D01*
X1115295Y634005D01*
X1123917Y648939D01*
X1136617D01*
X1145239Y634005D01*
X1171305Y607939D01*
X1203229Y589508D01*
X1238836Y579967D01*
X1275698D01*
X1311305Y589508D01*
X1343229Y607939D01*
X1369295Y634005D01*
X1377917Y648939D01*
X1390617D01*
X1399239Y634005D01*
X1425305Y607939D01*
X1457229Y589508D01*
X1492836Y579967D01*
X1529698D01*
X1565305Y589508D01*
X1597229Y607939D01*
X1623295Y634005D01*
X1631917Y648939D01*
X1644617D01*
X1653239Y634005D01*
X1679305Y607939D01*
X1711229Y589508D01*
X1746836Y579967D01*
X1783698D01*
X1819305Y589508D01*
X1851229Y607939D01*
X1877295Y634005D01*
X1885917Y648939D01*
X1898617D01*
X1907239Y634005D01*
X1933305Y607939D01*
X1965229Y589508D01*
X2000836Y579967D01*
X2037698D01*
X2073305Y589508D01*
X2105229Y607939D01*
X2131295Y634005D01*
X2139917Y648939D01*
X2152617D01*
X2161239Y634005D01*
X2187305Y607939D01*
X2219229Y589508D01*
X2254836Y579967D01*
X2291698D01*
X2327305Y589508D01*
X2359229Y607939D01*
X2385295Y634005D01*
X2403726Y665929D01*
X2413267Y701535D01*
Y738398D01*
X2403726Y774004D01*
X2385295Y805928D01*
X2359229Y831994D01*
X2327305Y850426D01*
X2291698Y859966D01*
D02*
G37*
G36*
X513698D02*
X476836D01*
X441229Y850426D01*
X409305Y831994D01*
X383239Y805928D01*
X364808Y774004D01*
X355267Y738398D01*
Y701535D01*
X364808Y665929D01*
X383239Y634005D01*
X409305Y607939D01*
X441229Y589508D01*
X476836Y579967D01*
X513698D01*
X549305Y589508D01*
X581229Y607939D01*
X607295Y634005D01*
X625726Y665929D01*
X635267Y701535D01*
Y738398D01*
X625726Y774004D01*
X607295Y805928D01*
X581229Y831994D01*
X549305Y850426D01*
X513698Y859966D01*
D02*
G37*
%LPD*%
D10*
X-33Y-16633D02*
X7848567D01*
X-33Y6371467D02*
X7848567D01*
Y-16633D02*
Y6371467D01*
X-33Y-16633D02*
Y6371467D01*
D11*
X2273267Y3259967D02*
D03*
X495267D02*
D03*
X2273267Y719967D02*
D03*
X495267D02*
D03*
X2019267Y3259967D02*
D03*
X1765267D02*
D03*
X1511267D02*
D03*
X1257267D02*
D03*
X1003267D02*
D03*
X749267D02*
D03*
X2019267Y719967D02*
D03*
X1765267D02*
D03*
X1511267D02*
D03*
X1257267D02*
D03*
X1003267D02*
D03*
X749267D02*
D03*
D12*
X5524467Y5736467D02*
D03*
X2908267Y1418467D02*
D03*
X7137367Y2497967D02*
D03*
D13*
X5270467Y5736467D02*
D03*
D14*
X1536667Y4479167D02*
D03*
D15*
X1282667D02*
D03*
X1028667D02*
D03*
X7137367Y1558167D02*
D03*
Y1304167D02*
D03*
Y1050167D02*
D03*
X7175467Y3704467D02*
D03*
Y3958467D02*
D03*
X7137367Y5380867D02*
D03*
Y5634867D02*
D03*
D16*
X2908267Y1164467D02*
D03*
X7137367Y2751967D02*
D03*
D17*
Y796167D02*
D03*
X7175467Y4212467D02*
D03*
X7137367Y5126867D02*
D03*
D18*
X5092667Y1215267D02*
D03*
D19*
Y1469267D02*
D03*
Y1723267D02*
D03*
Y1977267D02*
D03*
Y2231267D02*
D03*
Y2485267D02*
D03*
Y2739267D02*
D03*
Y2993267D02*
D03*
Y3247267D02*
D03*
Y3501267D02*
D03*
Y3755267D02*
D03*
Y4009267D02*
D03*
Y4263267D02*
D03*
Y4517267D02*
D03*
Y4771267D02*
D03*
X3568667D02*
D03*
Y4517267D02*
D03*
Y4263267D02*
D03*
Y4009267D02*
D03*
Y3755267D02*
D03*
Y3501267D02*
D03*
Y3247267D02*
D03*
Y2993267D02*
D03*
Y2739267D02*
D03*
Y2485267D02*
D03*
Y2231267D02*
D03*
Y1977267D02*
D03*
Y1723267D02*
D03*
Y1469267D02*
D03*
Y1215267D02*
D03*
D20*
X5092667Y961267D02*
D03*
X3568667D02*
D03*
Y5025267D02*
D03*
X5092667D02*
D03*
%TF.MD5,13e253debde77cbe8b3f3a375501732e*%
M02*
