%TF.GenerationSoftware,Altium Limited,Altium Designer,24.3.1 (35)*%
G04 Layer_Physical_Order=1*
G04 Layer_Color=255*
%FSLAX45Y45*%
%MOMM*%
%TF.SameCoordinates,78D6B365-3563-45E3-A517-92931350FA59*%
%TF.FilePolarity,Positive*%
%TF.FileFunction,Copper,L1,Top,Signal*%
%TF.Part,Single*%
G01*
G75*
%TA.AperFunction,NonConductor*%
%ADD10C,0.25400*%
%TA.AperFunction,ComponentPad*%
%ADD11C,2.00000*%
%ADD12C,1.53000*%
%ADD13R,1.53000X1.53000*%
%ADD14R,1.37000X1.37000*%
%ADD15C,1.37000*%
%ADD16R,1.53000X1.53000*%
%ADD17R,1.37000X1.37000*%
%ADD18R,1.52400X1.52400*%
%ADD19C,1.52400*%
%ADD20C,1.65100*%
G36*
X10334868Y2606432D02*
X2593732D01*
Y8887068D01*
X10334868D01*
Y2606432D01*
D02*
G37*
%LPC*%
G36*
X7927000Y8422300D02*
X7694000D01*
Y8189300D01*
X7927000D01*
Y8422300D01*
D02*
G37*
G36*
X9691684Y8312700D02*
X9663116D01*
X9635520Y8305306D01*
X9610780Y8291022D01*
X9590578Y8270820D01*
X9576294Y8246080D01*
X9568900Y8218484D01*
Y8189916D01*
X9576294Y8162320D01*
X9590578Y8137580D01*
X9610780Y8117378D01*
X9635520Y8103094D01*
X9663116Y8095700D01*
X9691684D01*
X9719280Y8103094D01*
X9744020Y8117378D01*
X9764222Y8137580D01*
X9778506Y8162320D01*
X9785900Y8189916D01*
Y8218484D01*
X9778506Y8246080D01*
X9764222Y8270820D01*
X9744020Y8291022D01*
X9719280Y8305306D01*
X9691684Y8312700D01*
D02*
G37*
G36*
Y8058700D02*
X9663116D01*
X9635520Y8051306D01*
X9610780Y8037022D01*
X9590578Y8016820D01*
X9576294Y7992080D01*
X9568900Y7964484D01*
Y7935916D01*
X9576294Y7908320D01*
X9590578Y7883580D01*
X9610780Y7863378D01*
X9635520Y7849094D01*
X9663116Y7841700D01*
X9691684D01*
X9719280Y7849094D01*
X9744020Y7863378D01*
X9764222Y7883580D01*
X9778506Y7908320D01*
X9785900Y7935916D01*
Y7964484D01*
X9778506Y7992080D01*
X9764222Y8016820D01*
X9744020Y8037022D01*
X9719280Y8051306D01*
X9691684Y8058700D01*
D02*
G37*
G36*
X7648834Y7717150D02*
X7616566D01*
X7585398Y7708798D01*
X7557453Y7692664D01*
X7534636Y7669847D01*
X7518502Y7641902D01*
X7510150Y7610734D01*
Y7578466D01*
X7518502Y7547298D01*
X7534636Y7519353D01*
X7557453Y7496536D01*
X7585398Y7480402D01*
X7616566Y7472050D01*
X7648834D01*
X7680002Y7480402D01*
X7707947Y7496536D01*
X7730764Y7519353D01*
X7746898Y7547298D01*
X7755250Y7578466D01*
Y7610734D01*
X7746898Y7641902D01*
X7730764Y7669847D01*
X7707947Y7692664D01*
X7680002Y7708798D01*
X7648834Y7717150D01*
D02*
G37*
G36*
X6124834D02*
X6092566D01*
X6061398Y7708798D01*
X6033453Y7692664D01*
X6010636Y7669847D01*
X5994502Y7641902D01*
X5986150Y7610734D01*
Y7578466D01*
X5994502Y7547298D01*
X6010636Y7519353D01*
X6033453Y7496536D01*
X6061398Y7480402D01*
X6092566Y7472050D01*
X6124834D01*
X6156002Y7480402D01*
X6183947Y7496536D01*
X6206764Y7519353D01*
X6222898Y7547298D01*
X6231250Y7578466D01*
Y7610734D01*
X6222898Y7641902D01*
X6206764Y7669847D01*
X6183947Y7692664D01*
X6156002Y7708798D01*
X6124834Y7717150D01*
D02*
G37*
G36*
X7647998Y7456800D02*
X7617402D01*
X7587848Y7448881D01*
X7561351Y7433583D01*
X7539717Y7411949D01*
X7524419Y7385452D01*
X7516500Y7355898D01*
Y7325302D01*
X7524419Y7295748D01*
X7539717Y7269251D01*
X7561351Y7247617D01*
X7587848Y7232319D01*
X7617402Y7224400D01*
X7647998D01*
X7677552Y7232319D01*
X7704049Y7247617D01*
X7725683Y7269251D01*
X7740981Y7295748D01*
X7748900Y7325302D01*
Y7355898D01*
X7740981Y7385452D01*
X7725683Y7411949D01*
X7704049Y7433583D01*
X7677552Y7448881D01*
X7647998Y7456800D01*
D02*
G37*
G36*
X6123998D02*
X6093402D01*
X6063848Y7448881D01*
X6037351Y7433583D01*
X6015717Y7411949D01*
X6000419Y7385452D01*
X5992500Y7355898D01*
Y7325302D01*
X6000419Y7295748D01*
X6015717Y7269251D01*
X6037351Y7247617D01*
X6063848Y7232319D01*
X6093402Y7224400D01*
X6123998D01*
X6153552Y7232319D01*
X6180049Y7247617D01*
X6201683Y7269251D01*
X6216981Y7295748D01*
X6224900Y7325302D01*
Y7355898D01*
X6216981Y7385452D01*
X6201683Y7411949D01*
X6180049Y7433583D01*
X6153552Y7448881D01*
X6123998Y7456800D01*
D02*
G37*
G36*
Y7202800D02*
X6093402D01*
X6063848Y7194881D01*
X6037351Y7179583D01*
X6015717Y7157949D01*
X6000419Y7131452D01*
X5992500Y7101898D01*
Y7071302D01*
X6000419Y7041748D01*
X6015717Y7015251D01*
X6037351Y6993617D01*
X6063848Y6978319D01*
X6093402Y6970400D01*
X6123998D01*
X6153552Y6978319D01*
X6180049Y6993617D01*
X6201683Y7015251D01*
X6216981Y7041748D01*
X6224900Y7071302D01*
Y7101898D01*
X6216981Y7131452D01*
X6201683Y7157949D01*
X6180049Y7179583D01*
X6153552Y7194881D01*
X6123998Y7202800D01*
D02*
G37*
G36*
X3836984Y7157000D02*
X3808416D01*
X3780820Y7149606D01*
X3756080Y7135322D01*
X3735878Y7115120D01*
X3721594Y7090380D01*
X3714200Y7062784D01*
Y7034216D01*
X3721594Y7006620D01*
X3735878Y6981880D01*
X3756080Y6961678D01*
X3780820Y6947394D01*
X3808416Y6940000D01*
X3836984D01*
X3864580Y6947394D01*
X3889320Y6961678D01*
X3909522Y6981880D01*
X3923806Y7006620D01*
X3931200Y7034216D01*
Y7062784D01*
X3923806Y7090380D01*
X3909522Y7115120D01*
X3889320Y7135322D01*
X3864580Y7149606D01*
X3836984Y7157000D01*
D02*
G37*
G36*
X3582984D02*
X3554416D01*
X3526820Y7149606D01*
X3502080Y7135322D01*
X3481878Y7115120D01*
X3467594Y7090380D01*
X3460200Y7062784D01*
Y7034216D01*
X3467594Y7006620D01*
X3481878Y6981880D01*
X3502080Y6961678D01*
X3526820Y6947394D01*
X3554416Y6940000D01*
X3582984D01*
X3610580Y6947394D01*
X3635320Y6961678D01*
X3655522Y6981880D01*
X3669806Y7006620D01*
X3677200Y7034216D01*
Y7062784D01*
X3669806Y7090380D01*
X3655522Y7115120D01*
X3635320Y7135322D01*
X3610580Y7149606D01*
X3582984Y7157000D01*
D02*
G37*
G36*
X7647998Y6948800D02*
X7617402D01*
X7587848Y6940881D01*
X7561351Y6925583D01*
X7539717Y6903949D01*
X7524419Y6877452D01*
X7516500Y6847898D01*
Y6817302D01*
X7524419Y6787748D01*
X7539717Y6761251D01*
X7561351Y6739617D01*
X7587848Y6724319D01*
X7617402Y6716400D01*
X7647998D01*
X7677552Y6724319D01*
X7704049Y6739617D01*
X7725683Y6761251D01*
X7740981Y6787748D01*
X7748900Y6817302D01*
Y6847898D01*
X7740981Y6877452D01*
X7725683Y6903949D01*
X7704049Y6925583D01*
X7677552Y6940881D01*
X7647998Y6948800D01*
D02*
G37*
G36*
X6123998D02*
X6093402D01*
X6063848Y6940881D01*
X6037351Y6925583D01*
X6015717Y6903949D01*
X6000419Y6877452D01*
X5992500Y6847898D01*
Y6817302D01*
X6000419Y6787748D01*
X6015717Y6761251D01*
X6037351Y6739617D01*
X6063848Y6724319D01*
X6093402Y6716400D01*
X6123998D01*
X6153552Y6724319D01*
X6180049Y6739617D01*
X6201683Y6761251D01*
X6216981Y6787748D01*
X6224900Y6817302D01*
Y6847898D01*
X6216981Y6877452D01*
X6201683Y6903949D01*
X6180049Y6925583D01*
X6153552Y6940881D01*
X6123998Y6948800D01*
D02*
G37*
G36*
X7647998Y6694800D02*
X7617402D01*
X7587848Y6686881D01*
X7561351Y6671583D01*
X7539717Y6649949D01*
X7524419Y6623452D01*
X7516500Y6593898D01*
Y6563302D01*
X7524419Y6533748D01*
X7539717Y6507251D01*
X7561351Y6485617D01*
X7587848Y6470319D01*
X7617402Y6462400D01*
X7647998D01*
X7677552Y6470319D01*
X7704049Y6485617D01*
X7725683Y6507251D01*
X7740981Y6533748D01*
X7748900Y6563302D01*
Y6593898D01*
X7740981Y6623452D01*
X7725683Y6649949D01*
X7704049Y6671583D01*
X7677552Y6686881D01*
X7647998Y6694800D01*
D02*
G37*
G36*
X9729784Y6636300D02*
X9701216D01*
X9673620Y6628906D01*
X9648880Y6614622D01*
X9628678Y6594420D01*
X9614394Y6569680D01*
X9607000Y6542084D01*
Y6513516D01*
X9614394Y6485920D01*
X9628678Y6461180D01*
X9648880Y6440978D01*
X9673620Y6426694D01*
X9701216Y6419300D01*
X9729784D01*
X9757380Y6426694D01*
X9782120Y6440978D01*
X9802322Y6461180D01*
X9816606Y6485920D01*
X9824000Y6513516D01*
Y6542084D01*
X9816606Y6569680D01*
X9802322Y6594420D01*
X9782120Y6614622D01*
X9757380Y6628906D01*
X9729784Y6636300D01*
D02*
G37*
G36*
X7647998Y6440800D02*
X7617402D01*
X7587848Y6432881D01*
X7561351Y6417583D01*
X7539717Y6395949D01*
X7524419Y6369452D01*
X7516500Y6339898D01*
Y6309302D01*
X7524419Y6279748D01*
X7539717Y6253251D01*
X7561351Y6231617D01*
X7587848Y6216319D01*
X7617402Y6208400D01*
X7647998D01*
X7677552Y6216319D01*
X7704049Y6231617D01*
X7725683Y6253251D01*
X7740981Y6279748D01*
X7748900Y6309302D01*
Y6339898D01*
X7740981Y6369452D01*
X7725683Y6395949D01*
X7704049Y6417583D01*
X7677552Y6432881D01*
X7647998Y6440800D01*
D02*
G37*
G36*
X6123998D02*
X6093402D01*
X6063848Y6432881D01*
X6037351Y6417583D01*
X6015717Y6395949D01*
X6000419Y6369452D01*
X5992500Y6339898D01*
Y6309302D01*
X6000419Y6279748D01*
X6015717Y6253251D01*
X6037351Y6231617D01*
X6063848Y6216319D01*
X6093402Y6208400D01*
X6123998D01*
X6153552Y6216319D01*
X6180049Y6231617D01*
X6201683Y6253251D01*
X6216981Y6279748D01*
X6224900Y6309302D01*
Y6339898D01*
X6216981Y6369452D01*
X6201683Y6395949D01*
X6180049Y6417583D01*
X6153552Y6432881D01*
X6123998Y6440800D01*
D02*
G37*
G36*
X9729784Y6382300D02*
X9701216D01*
X9673620Y6374906D01*
X9648880Y6360622D01*
X9628678Y6340420D01*
X9614394Y6315680D01*
X9607000Y6288084D01*
Y6259516D01*
X9614394Y6231920D01*
X9628678Y6207180D01*
X9648880Y6186978D01*
X9673620Y6172694D01*
X9701216Y6165300D01*
X9729784D01*
X9757380Y6172694D01*
X9782120Y6186978D01*
X9802322Y6207180D01*
X9816606Y6231920D01*
X9824000Y6259516D01*
Y6288084D01*
X9816606Y6315680D01*
X9802322Y6340420D01*
X9782120Y6360622D01*
X9757380Y6374906D01*
X9729784Y6382300D01*
D02*
G37*
G36*
X7647998Y6186800D02*
X7617402D01*
X7587848Y6178881D01*
X7561351Y6163583D01*
X7539717Y6141949D01*
X7524419Y6115452D01*
X7516500Y6085898D01*
Y6055302D01*
X7524419Y6025748D01*
X7539717Y5999251D01*
X7561351Y5977617D01*
X7587848Y5962319D01*
X7617402Y5954400D01*
X7647998D01*
X7677552Y5962319D01*
X7704049Y5977617D01*
X7725683Y5999251D01*
X7740981Y6025748D01*
X7748900Y6055302D01*
Y6085898D01*
X7740981Y6115452D01*
X7725683Y6141949D01*
X7704049Y6163583D01*
X7677552Y6178881D01*
X7647998Y6186800D01*
D02*
G37*
G36*
X6123998D02*
X6093402D01*
X6063848Y6178881D01*
X6037351Y6163583D01*
X6015717Y6141949D01*
X6000419Y6115452D01*
X5992500Y6085898D01*
Y6055302D01*
X6000419Y6025748D01*
X6015717Y5999251D01*
X6037351Y5977617D01*
X6063848Y5962319D01*
X6093402Y5954400D01*
X6123998D01*
X6153552Y5962319D01*
X6180049Y5977617D01*
X6201683Y5999251D01*
X6216981Y6025748D01*
X6224900Y6055302D01*
Y6085898D01*
X6216981Y6115452D01*
X6201683Y6141949D01*
X6180049Y6163583D01*
X6153552Y6178881D01*
X6123998Y6186800D01*
D02*
G37*
G36*
X4831731Y5969300D02*
X4794869D01*
X4759262Y5959759D01*
X4727338Y5941328D01*
X4701272Y5915262D01*
X4692650Y5900328D01*
X4679950D01*
X4671328Y5915262D01*
X4645262Y5941328D01*
X4613338Y5959759D01*
X4577731Y5969300D01*
X4540869D01*
X4505262Y5959759D01*
X4473338Y5941328D01*
X4447272Y5915262D01*
X4438650Y5900328D01*
X4425950D01*
X4417328Y5915262D01*
X4391262Y5941328D01*
X4359338Y5959759D01*
X4323731Y5969300D01*
X4286869D01*
X4251262Y5959759D01*
X4219338Y5941328D01*
X4193272Y5915262D01*
X4184650Y5900328D01*
X4171950D01*
X4163328Y5915262D01*
X4137262Y5941328D01*
X4105338Y5959759D01*
X4069731Y5969300D01*
X4032869D01*
X3997262Y5959759D01*
X3965338Y5941328D01*
X3939272Y5915262D01*
X3930650Y5900328D01*
X3917950D01*
X3909328Y5915262D01*
X3883262Y5941328D01*
X3851338Y5959759D01*
X3815731Y5969300D01*
X3778869D01*
X3743262Y5959759D01*
X3711338Y5941328D01*
X3685272Y5915262D01*
X3676650Y5900328D01*
X3663950D01*
X3655328Y5915262D01*
X3629262Y5941328D01*
X3597338Y5959759D01*
X3561731Y5969300D01*
X3524869D01*
X3489262Y5959759D01*
X3457338Y5941328D01*
X3431272Y5915262D01*
X3422650Y5900328D01*
X3409950D01*
X3401328Y5915262D01*
X3375262Y5941328D01*
X3343338Y5959759D01*
X3307731Y5969300D01*
X3270869D01*
X3235262Y5959759D01*
X3203338Y5941328D01*
X3177272Y5915262D01*
X3168650Y5900328D01*
X3155950D01*
X3147328Y5915262D01*
X3121262Y5941328D01*
X3089338Y5959759D01*
X3053731Y5969300D01*
X3016869D01*
X2981262Y5959759D01*
X2949338Y5941328D01*
X2923272Y5915262D01*
X2904841Y5883338D01*
X2895300Y5847731D01*
Y5810869D01*
X2904841Y5775262D01*
X2923272Y5743338D01*
X2949338Y5717272D01*
X2981262Y5698841D01*
X3016869Y5689300D01*
X3053731D01*
X3089338Y5698841D01*
X3121262Y5717272D01*
X3147328Y5743338D01*
X3155950Y5758272D01*
X3168650D01*
X3177272Y5743338D01*
X3203338Y5717272D01*
X3235262Y5698841D01*
X3270869Y5689300D01*
X3307731D01*
X3343338Y5698841D01*
X3375262Y5717272D01*
X3401328Y5743338D01*
X3409950Y5758272D01*
X3422650D01*
X3431272Y5743338D01*
X3457338Y5717272D01*
X3489262Y5698841D01*
X3524869Y5689300D01*
X3561731D01*
X3597338Y5698841D01*
X3629262Y5717272D01*
X3655328Y5743338D01*
X3663950Y5758272D01*
X3676650D01*
X3685272Y5743338D01*
X3711338Y5717272D01*
X3743262Y5698841D01*
X3778869Y5689300D01*
X3815731D01*
X3851338Y5698841D01*
X3883262Y5717272D01*
X3909328Y5743338D01*
X3917950Y5758272D01*
X3930650D01*
X3939272Y5743338D01*
X3965338Y5717272D01*
X3997262Y5698841D01*
X4032869Y5689300D01*
X4069731D01*
X4105338Y5698841D01*
X4137262Y5717272D01*
X4163328Y5743338D01*
X4171950Y5758272D01*
X4184650D01*
X4193272Y5743338D01*
X4219338Y5717272D01*
X4251262Y5698841D01*
X4286869Y5689300D01*
X4323731D01*
X4359338Y5698841D01*
X4391262Y5717272D01*
X4417328Y5743338D01*
X4425950Y5758272D01*
X4438650D01*
X4447272Y5743338D01*
X4473338Y5717272D01*
X4505262Y5698841D01*
X4540869Y5689300D01*
X4577731D01*
X4613338Y5698841D01*
X4645262Y5717272D01*
X4671328Y5743338D01*
X4679950Y5758272D01*
X4692650D01*
X4701272Y5743338D01*
X4727338Y5717272D01*
X4759262Y5698841D01*
X4794869Y5689300D01*
X4831731D01*
X4867338Y5698841D01*
X4899262Y5717272D01*
X4925328Y5743338D01*
X4943759Y5775262D01*
X4953300Y5810869D01*
Y5847731D01*
X4943759Y5883338D01*
X4925328Y5915262D01*
X4899262Y5941328D01*
X4867338Y5959759D01*
X4831731Y5969300D01*
D02*
G37*
G36*
X7647998Y5932800D02*
X7617402D01*
X7587848Y5924881D01*
X7561351Y5909583D01*
X7539717Y5887949D01*
X7524419Y5861452D01*
X7516500Y5831898D01*
Y5801302D01*
X7524419Y5771748D01*
X7539717Y5745251D01*
X7561351Y5723617D01*
X7587848Y5708319D01*
X7617402Y5700400D01*
X7647998D01*
X7677552Y5708319D01*
X7704049Y5723617D01*
X7725683Y5745251D01*
X7740981Y5771748D01*
X7748900Y5801302D01*
Y5831898D01*
X7740981Y5861452D01*
X7725683Y5887949D01*
X7704049Y5909583D01*
X7677552Y5924881D01*
X7647998Y5932800D01*
D02*
G37*
G36*
X6123998D02*
X6093402D01*
X6063848Y5924881D01*
X6037351Y5909583D01*
X6015717Y5887949D01*
X6000419Y5861452D01*
X5992500Y5831898D01*
Y5801302D01*
X6000419Y5771748D01*
X6015717Y5745251D01*
X6037351Y5723617D01*
X6063848Y5708319D01*
X6093402Y5700400D01*
X6123998D01*
X6153552Y5708319D01*
X6180049Y5723617D01*
X6201683Y5745251D01*
X6216981Y5771748D01*
X6224900Y5801302D01*
Y5831898D01*
X6216981Y5861452D01*
X6201683Y5887949D01*
X6180049Y5909583D01*
X6153552Y5924881D01*
X6123998Y5932800D01*
D02*
G37*
G36*
X7647998Y5678800D02*
X7617402D01*
X7587848Y5670881D01*
X7561351Y5655583D01*
X7539717Y5633949D01*
X7524419Y5607452D01*
X7516500Y5577898D01*
Y5547302D01*
X7524419Y5517748D01*
X7539717Y5491251D01*
X7561351Y5469617D01*
X7587848Y5454319D01*
X7617402Y5446400D01*
X7647998D01*
X7677552Y5454319D01*
X7704049Y5469617D01*
X7725683Y5491251D01*
X7740981Y5517748D01*
X7748900Y5547302D01*
Y5577898D01*
X7740981Y5607452D01*
X7725683Y5633949D01*
X7704049Y5655583D01*
X7677552Y5670881D01*
X7647998Y5678800D01*
D02*
G37*
G36*
X6123998D02*
X6093402D01*
X6063848Y5670881D01*
X6037351Y5655583D01*
X6015717Y5633949D01*
X6000419Y5607452D01*
X5992500Y5577898D01*
Y5547302D01*
X6000419Y5517748D01*
X6015717Y5491251D01*
X6037351Y5469617D01*
X6063848Y5454319D01*
X6093402Y5446400D01*
X6123998D01*
X6153552Y5454319D01*
X6180049Y5469617D01*
X6201683Y5491251D01*
X6216981Y5517748D01*
X6224900Y5547302D01*
Y5577898D01*
X6216981Y5607452D01*
X6201683Y5633949D01*
X6180049Y5655583D01*
X6153552Y5670881D01*
X6123998Y5678800D01*
D02*
G37*
G36*
X7647998Y5424800D02*
X7617402D01*
X7587848Y5416881D01*
X7561351Y5401583D01*
X7539717Y5379949D01*
X7524419Y5353452D01*
X7516500Y5323898D01*
Y5293302D01*
X7524419Y5263748D01*
X7539717Y5237251D01*
X7561351Y5215617D01*
X7587848Y5200319D01*
X7617402Y5192400D01*
X7647998D01*
X7677552Y5200319D01*
X7704049Y5215617D01*
X7725683Y5237251D01*
X7740981Y5263748D01*
X7748900Y5293302D01*
Y5323898D01*
X7740981Y5353452D01*
X7725683Y5379949D01*
X7704049Y5401583D01*
X7677552Y5416881D01*
X7647998Y5424800D01*
D02*
G37*
G36*
X6123998D02*
X6093402D01*
X6063848Y5416881D01*
X6037351Y5401583D01*
X6015717Y5379949D01*
X6000419Y5353452D01*
X5992500Y5323898D01*
Y5293302D01*
X6000419Y5263748D01*
X6015717Y5237251D01*
X6037351Y5215617D01*
X6063848Y5200319D01*
X6093402Y5192400D01*
X6123998D01*
X6153552Y5200319D01*
X6180049Y5215617D01*
X6201683Y5237251D01*
X6216981Y5263748D01*
X6224900Y5293302D01*
Y5323898D01*
X6216981Y5353452D01*
X6201683Y5379949D01*
X6180049Y5401583D01*
X6153552Y5416881D01*
X6123998Y5424800D01*
D02*
G37*
G36*
X9692738Y5183800D02*
X9662062D01*
X9632433Y5175861D01*
X9605867Y5160523D01*
X9584177Y5138833D01*
X9568839Y5112267D01*
X9560900Y5082638D01*
Y5051962D01*
X9568839Y5022333D01*
X9584177Y4995767D01*
X9605867Y4974077D01*
X9632433Y4958739D01*
X9662062Y4950800D01*
X9692738D01*
X9722367Y4958739D01*
X9748933Y4974077D01*
X9770623Y4995767D01*
X9785961Y5022333D01*
X9793900Y5051962D01*
Y5082638D01*
X9785961Y5112267D01*
X9770623Y5138833D01*
X9748933Y5160523D01*
X9722367Y5175861D01*
X9692738Y5183800D01*
D02*
G37*
G36*
X7647998Y5170800D02*
X7617402D01*
X7587848Y5162881D01*
X7561351Y5147583D01*
X7539717Y5125949D01*
X7524419Y5099452D01*
X7516500Y5069898D01*
Y5039302D01*
X7524419Y5009748D01*
X7539717Y4983251D01*
X7561351Y4961617D01*
X7587848Y4946319D01*
X7617402Y4938400D01*
X7647998D01*
X7677552Y4946319D01*
X7704049Y4961617D01*
X7725683Y4983251D01*
X7740981Y5009748D01*
X7748900Y5039302D01*
Y5069898D01*
X7740981Y5099452D01*
X7725683Y5125949D01*
X7704049Y5147583D01*
X7677552Y5162881D01*
X7647998Y5170800D01*
D02*
G37*
G36*
X6123998D02*
X6093402D01*
X6063848Y5162881D01*
X6037351Y5147583D01*
X6015717Y5125949D01*
X6000419Y5099452D01*
X5992500Y5069898D01*
Y5039302D01*
X6000419Y5009748D01*
X6015717Y4983251D01*
X6037351Y4961617D01*
X6063848Y4946319D01*
X6093402Y4938400D01*
X6123998D01*
X6153552Y4946319D01*
X6180049Y4961617D01*
X6201683Y4983251D01*
X6216981Y5009748D01*
X6224900Y5039302D01*
Y5069898D01*
X6216981Y5099452D01*
X6201683Y5125949D01*
X6180049Y5147583D01*
X6153552Y5162881D01*
X6123998Y5170800D01*
D02*
G37*
G36*
X7647998Y4916800D02*
X7617402D01*
X7587848Y4908881D01*
X7561351Y4893583D01*
X7539717Y4871949D01*
X7524419Y4845452D01*
X7516500Y4815898D01*
Y4785302D01*
X7524419Y4755748D01*
X7539717Y4729251D01*
X7561351Y4707617D01*
X7587848Y4692319D01*
X7617402Y4684400D01*
X7647998D01*
X7677552Y4692319D01*
X7704049Y4707617D01*
X7725683Y4729251D01*
X7740981Y4755748D01*
X7748900Y4785302D01*
Y4815898D01*
X7740981Y4845452D01*
X7725683Y4871949D01*
X7704049Y4893583D01*
X7677552Y4908881D01*
X7647998Y4916800D01*
D02*
G37*
G36*
X6123998D02*
X6093402D01*
X6063848Y4908881D01*
X6037351Y4893583D01*
X6015717Y4871949D01*
X6000419Y4845452D01*
X5992500Y4815898D01*
Y4785302D01*
X6000419Y4755748D01*
X6015717Y4729251D01*
X6037351Y4707617D01*
X6063848Y4692319D01*
X6093402Y4684400D01*
X6123998D01*
X6153552Y4692319D01*
X6180049Y4707617D01*
X6201683Y4729251D01*
X6216981Y4755748D01*
X6224900Y4785302D01*
Y4815898D01*
X6216981Y4845452D01*
X6201683Y4871949D01*
X6180049Y4893583D01*
X6153552Y4908881D01*
X6123998Y4916800D01*
D02*
G37*
G36*
X7647998Y4662800D02*
X7617402D01*
X7587848Y4654881D01*
X7561351Y4639583D01*
X7539717Y4617949D01*
X7524419Y4591452D01*
X7516500Y4561898D01*
Y4531302D01*
X7524419Y4501748D01*
X7539717Y4475251D01*
X7561351Y4453617D01*
X7587848Y4438319D01*
X7617402Y4430400D01*
X7647998D01*
X7677552Y4438319D01*
X7704049Y4453617D01*
X7725683Y4475251D01*
X7740981Y4501748D01*
X7748900Y4531302D01*
Y4561898D01*
X7740981Y4591452D01*
X7725683Y4617949D01*
X7704049Y4639583D01*
X7677552Y4654881D01*
X7647998Y4662800D01*
D02*
G37*
G36*
X6123998D02*
X6093402D01*
X6063848Y4654881D01*
X6037351Y4639583D01*
X6015717Y4617949D01*
X6000419Y4591452D01*
X5992500Y4561898D01*
Y4531302D01*
X6000419Y4501748D01*
X6015717Y4475251D01*
X6037351Y4453617D01*
X6063848Y4438319D01*
X6093402Y4430400D01*
X6123998D01*
X6153552Y4438319D01*
X6180049Y4453617D01*
X6201683Y4475251D01*
X6216981Y4501748D01*
X6224900Y4531302D01*
Y4561898D01*
X6216981Y4591452D01*
X6201683Y4617949D01*
X6180049Y4639583D01*
X6153552Y4654881D01*
X6123998Y4662800D01*
D02*
G37*
G36*
X7647998Y4408800D02*
X7617402D01*
X7587848Y4400881D01*
X7561351Y4385583D01*
X7539717Y4363949D01*
X7524419Y4337452D01*
X7516500Y4307898D01*
Y4277302D01*
X7524419Y4247748D01*
X7539717Y4221251D01*
X7561351Y4199617D01*
X7587848Y4184319D01*
X7617402Y4176400D01*
X7647998D01*
X7677552Y4184319D01*
X7704049Y4199617D01*
X7725683Y4221251D01*
X7740981Y4247748D01*
X7748900Y4277302D01*
Y4307898D01*
X7740981Y4337452D01*
X7725683Y4363949D01*
X7704049Y4385583D01*
X7677552Y4400881D01*
X7647998Y4408800D01*
D02*
G37*
G36*
X6123998D02*
X6093402D01*
X6063848Y4400881D01*
X6037351Y4385583D01*
X6015717Y4363949D01*
X6000419Y4337452D01*
X5992500Y4307898D01*
Y4277302D01*
X6000419Y4247748D01*
X6015717Y4221251D01*
X6037351Y4199617D01*
X6063848Y4184319D01*
X6093402Y4176400D01*
X6123998D01*
X6153552Y4184319D01*
X6180049Y4199617D01*
X6201683Y4221251D01*
X6216981Y4247748D01*
X6224900Y4277302D01*
Y4307898D01*
X6216981Y4337452D01*
X6201683Y4363949D01*
X6180049Y4385583D01*
X6153552Y4400881D01*
X6123998Y4408800D01*
D02*
G37*
G36*
X9691684Y4236000D02*
X9663116D01*
X9635520Y4228606D01*
X9610780Y4214322D01*
X9590578Y4194120D01*
X9576294Y4169380D01*
X9568900Y4141784D01*
Y4113216D01*
X9576294Y4085620D01*
X9590578Y4060880D01*
X9610780Y4040678D01*
X9635520Y4026394D01*
X9663116Y4019000D01*
X9691684D01*
X9719280Y4026394D01*
X9744020Y4040678D01*
X9764222Y4060880D01*
X9778506Y4085620D01*
X9785900Y4113216D01*
Y4141784D01*
X9778506Y4169380D01*
X9764222Y4194120D01*
X9744020Y4214322D01*
X9719280Y4228606D01*
X9691684Y4236000D01*
D02*
G37*
G36*
X7647998Y4154800D02*
X7617402D01*
X7587848Y4146881D01*
X7561351Y4131583D01*
X7539717Y4109949D01*
X7524419Y4083452D01*
X7516500Y4053898D01*
Y4023302D01*
X7524419Y3993748D01*
X7539717Y3967251D01*
X7561351Y3945617D01*
X7587848Y3930319D01*
X7617402Y3922400D01*
X7647998D01*
X7677552Y3930319D01*
X7704049Y3945617D01*
X7725683Y3967251D01*
X7740981Y3993748D01*
X7748900Y4023302D01*
Y4053898D01*
X7740981Y4083452D01*
X7725683Y4109949D01*
X7704049Y4131583D01*
X7677552Y4146881D01*
X7647998Y4154800D01*
D02*
G37*
G36*
X6123998D02*
X6093402D01*
X6063848Y4146881D01*
X6037351Y4131583D01*
X6015717Y4109949D01*
X6000419Y4083452D01*
X5992500Y4053898D01*
Y4023302D01*
X6000419Y3993748D01*
X6015717Y3967251D01*
X6037351Y3945617D01*
X6063848Y3930319D01*
X6093402Y3922400D01*
X6123998D01*
X6153552Y3930319D01*
X6180049Y3945617D01*
X6201683Y3967251D01*
X6216981Y3993748D01*
X6224900Y4023302D01*
Y4053898D01*
X6216981Y4083452D01*
X6201683Y4109949D01*
X6180049Y4131583D01*
X6153552Y4146881D01*
X6123998Y4154800D01*
D02*
G37*
G36*
X9691684Y3982000D02*
X9663116D01*
X9635520Y3974606D01*
X9610780Y3960322D01*
X9590578Y3940120D01*
X9576294Y3915380D01*
X9568900Y3887784D01*
Y3859216D01*
X9576294Y3831620D01*
X9590578Y3806880D01*
X9610780Y3786678D01*
X9635520Y3772394D01*
X9663116Y3765000D01*
X9691684D01*
X9719280Y3772394D01*
X9744020Y3786678D01*
X9764222Y3806880D01*
X9778506Y3831620D01*
X9785900Y3859216D01*
Y3887784D01*
X9778506Y3915380D01*
X9764222Y3940120D01*
X9744020Y3960322D01*
X9719280Y3974606D01*
X9691684Y3982000D01*
D02*
G37*
G36*
X7748900Y3900800D02*
X7516500D01*
Y3668400D01*
X7748900D01*
Y3900800D01*
D02*
G37*
G36*
X6123998D02*
X6093402D01*
X6063848Y3892881D01*
X6037351Y3877583D01*
X6015717Y3855949D01*
X6000419Y3829452D01*
X5992500Y3799898D01*
Y3769302D01*
X6000419Y3739748D01*
X6015717Y3713251D01*
X6037351Y3691617D01*
X6063848Y3676319D01*
X6093402Y3668400D01*
X6123998D01*
X6153552Y3676319D01*
X6180049Y3691617D01*
X6201683Y3713251D01*
X6216981Y3739748D01*
X6224900Y3769302D01*
Y3799898D01*
X6216981Y3829452D01*
X6201683Y3855949D01*
X6180049Y3877583D01*
X6153552Y3892881D01*
X6123998Y3900800D01*
D02*
G37*
G36*
X5564800Y3850300D02*
X5331800D01*
Y3617300D01*
X5564800D01*
Y3850300D01*
D02*
G37*
G36*
X9691684Y3728000D02*
X9663116D01*
X9635520Y3720606D01*
X9610780Y3706322D01*
X9590578Y3686120D01*
X9576294Y3661380D01*
X9568900Y3633784D01*
Y3605216D01*
X9576294Y3577620D01*
X9590578Y3552880D01*
X9610780Y3532678D01*
X9635520Y3518394D01*
X9663116Y3511000D01*
X9691684D01*
X9719280Y3518394D01*
X9744020Y3532678D01*
X9764222Y3552880D01*
X9778506Y3577620D01*
X9785900Y3605216D01*
Y3633784D01*
X9778506Y3661380D01*
X9764222Y3686120D01*
X9744020Y3706322D01*
X9719280Y3720606D01*
X9691684Y3728000D01*
D02*
G37*
G36*
X7648834Y3653150D02*
X7616566D01*
X7585398Y3644798D01*
X7557453Y3628664D01*
X7534636Y3605847D01*
X7518502Y3577902D01*
X7510150Y3546734D01*
Y3514466D01*
X7518502Y3483298D01*
X7534636Y3455353D01*
X7557453Y3432536D01*
X7585398Y3416402D01*
X7616566Y3408050D01*
X7648834D01*
X7680002Y3416402D01*
X7707947Y3432536D01*
X7730764Y3455353D01*
X7746898Y3483298D01*
X7755250Y3514466D01*
Y3546734D01*
X7746898Y3577902D01*
X7730764Y3605847D01*
X7707947Y3628664D01*
X7680002Y3644798D01*
X7648834Y3653150D01*
D02*
G37*
G36*
X6124834D02*
X6092566D01*
X6061398Y3644798D01*
X6033453Y3628664D01*
X6010636Y3605847D01*
X5994502Y3577902D01*
X5986150Y3546734D01*
Y3514466D01*
X5994502Y3483298D01*
X6010636Y3455353D01*
X6033453Y3432536D01*
X6061398Y3416402D01*
X6092566Y3408050D01*
X6124834D01*
X6156002Y3416402D01*
X6183947Y3432536D01*
X6206764Y3455353D01*
X6222898Y3483298D01*
X6231250Y3514466D01*
Y3546734D01*
X6222898Y3577902D01*
X6206764Y3605847D01*
X6183947Y3628664D01*
X6156002Y3644798D01*
X6124834Y3653150D01*
D02*
G37*
G36*
X4831731Y3429300D02*
X4794869D01*
X4759262Y3419759D01*
X4727338Y3401328D01*
X4701272Y3375262D01*
X4692650Y3360328D01*
X4679950D01*
X4671328Y3375262D01*
X4645262Y3401328D01*
X4613338Y3419759D01*
X4577731Y3429300D01*
X4540869D01*
X4505262Y3419759D01*
X4473338Y3401328D01*
X4447272Y3375262D01*
X4438650Y3360328D01*
X4425950D01*
X4417328Y3375262D01*
X4391262Y3401328D01*
X4359338Y3419759D01*
X4323731Y3429300D01*
X4286869D01*
X4251262Y3419759D01*
X4219338Y3401328D01*
X4193272Y3375262D01*
X4184650Y3360328D01*
X4171950D01*
X4163328Y3375262D01*
X4137262Y3401328D01*
X4105338Y3419759D01*
X4069731Y3429300D01*
X4032869D01*
X3997262Y3419759D01*
X3965338Y3401328D01*
X3939272Y3375262D01*
X3930650Y3360328D01*
X3917950D01*
X3909328Y3375262D01*
X3883262Y3401328D01*
X3851338Y3419759D01*
X3815731Y3429300D01*
X3778869D01*
X3743262Y3419759D01*
X3711338Y3401328D01*
X3685272Y3375262D01*
X3676650Y3360328D01*
X3663950D01*
X3655328Y3375262D01*
X3629262Y3401328D01*
X3597338Y3419759D01*
X3561731Y3429300D01*
X3524869D01*
X3489262Y3419759D01*
X3457338Y3401328D01*
X3431272Y3375262D01*
X3412841Y3343338D01*
X3403300Y3307731D01*
Y3270869D01*
X3412841Y3235262D01*
X3431272Y3203338D01*
X3457338Y3177272D01*
X3489262Y3158841D01*
X3524869Y3149300D01*
X3561731D01*
X3597338Y3158841D01*
X3629262Y3177272D01*
X3655328Y3203338D01*
X3663950Y3218272D01*
X3676650D01*
X3685272Y3203338D01*
X3711338Y3177272D01*
X3743262Y3158841D01*
X3778869Y3149300D01*
X3815731D01*
X3851338Y3158841D01*
X3883262Y3177272D01*
X3909328Y3203338D01*
X3917950Y3218272D01*
X3930650D01*
X3939272Y3203338D01*
X3965338Y3177272D01*
X3997262Y3158841D01*
X4032869Y3149300D01*
X4069731D01*
X4105338Y3158841D01*
X4137262Y3177272D01*
X4163328Y3203338D01*
X4171950Y3218272D01*
X4184650D01*
X4193272Y3203338D01*
X4219338Y3177272D01*
X4251262Y3158841D01*
X4286869Y3149300D01*
X4323731D01*
X4359338Y3158841D01*
X4391262Y3177272D01*
X4417328Y3203338D01*
X4425950Y3218272D01*
X4438650D01*
X4447272Y3203338D01*
X4473338Y3177272D01*
X4505262Y3158841D01*
X4540869Y3149300D01*
X4577731D01*
X4613338Y3158841D01*
X4645262Y3177272D01*
X4671328Y3203338D01*
X4679950Y3218272D01*
X4692650D01*
X4701272Y3203338D01*
X4727338Y3177272D01*
X4759262Y3158841D01*
X4794869Y3149300D01*
X4831731D01*
X4867338Y3158841D01*
X4899262Y3177272D01*
X4925328Y3203338D01*
X4943759Y3235262D01*
X4953300Y3270869D01*
Y3307731D01*
X4943759Y3343338D01*
X4925328Y3375262D01*
X4899262Y3401328D01*
X4867338Y3419759D01*
X4831731Y3429300D01*
D02*
G37*
G36*
X3053731D02*
X3016869D01*
X2981262Y3419759D01*
X2949338Y3401328D01*
X2923272Y3375262D01*
X2904841Y3343338D01*
X2895300Y3307731D01*
Y3270869D01*
X2904841Y3235262D01*
X2923272Y3203338D01*
X2949338Y3177272D01*
X2981262Y3158841D01*
X3016869Y3149300D01*
X3053731D01*
X3089338Y3158841D01*
X3121262Y3177272D01*
X3147328Y3203338D01*
X3165759Y3235262D01*
X3175300Y3270869D01*
Y3307731D01*
X3165759Y3343338D01*
X3147328Y3375262D01*
X3121262Y3401328D01*
X3089338Y3419759D01*
X3053731Y3429300D01*
D02*
G37*
%LPD*%
D10*
X2540000Y2552700D02*
X10388600D01*
X2540000Y8940800D02*
X10388600D01*
Y2552700D02*
Y8940800D01*
X2540000Y2552700D02*
Y8940800D01*
D11*
X4813300Y5829300D02*
D03*
X3035300D02*
D03*
X4813300Y3289300D02*
D03*
X3035300D02*
D03*
X4559300Y5829300D02*
D03*
X4305300D02*
D03*
X4051300D02*
D03*
X3797300D02*
D03*
X3543300D02*
D03*
X3289300D02*
D03*
X4559300Y3289300D02*
D03*
X4305300D02*
D03*
X4051300D02*
D03*
X3797300D02*
D03*
X3543300D02*
D03*
X3289300D02*
D03*
D12*
X8064500Y8305800D02*
D03*
X5448300Y3987800D02*
D03*
X9677400Y5067300D02*
D03*
D13*
X7810500Y8305800D02*
D03*
D14*
X4076700Y7048500D02*
D03*
D15*
X3822700D02*
D03*
X3568700D02*
D03*
X9677400Y4127500D02*
D03*
Y3873500D02*
D03*
Y3619500D02*
D03*
X9715500Y6273800D02*
D03*
Y6527800D02*
D03*
X9677400Y7950200D02*
D03*
Y8204200D02*
D03*
D16*
X5448300Y3733800D02*
D03*
X9677400Y5321300D02*
D03*
D17*
Y3365500D02*
D03*
X9715500Y6781800D02*
D03*
X9677400Y7696200D02*
D03*
D18*
X7632700Y3784600D02*
D03*
D19*
Y4038600D02*
D03*
Y4292600D02*
D03*
Y4546600D02*
D03*
Y4800600D02*
D03*
Y5054600D02*
D03*
Y5308600D02*
D03*
Y5562600D02*
D03*
Y5816600D02*
D03*
Y6070600D02*
D03*
Y6324600D02*
D03*
Y6578600D02*
D03*
Y6832600D02*
D03*
Y7086600D02*
D03*
Y7340600D02*
D03*
X6108700D02*
D03*
Y7086600D02*
D03*
Y6832600D02*
D03*
Y6578600D02*
D03*
Y6324600D02*
D03*
Y6070600D02*
D03*
Y5816600D02*
D03*
Y5562600D02*
D03*
Y5308600D02*
D03*
Y5054600D02*
D03*
Y4800600D02*
D03*
Y4546600D02*
D03*
Y4292600D02*
D03*
Y4038600D02*
D03*
Y3784600D02*
D03*
D20*
X7632700Y3530600D02*
D03*
X6108700D02*
D03*
Y7594600D02*
D03*
X7632700D02*
D03*
%TF.MD5,08a0238d1161bf2f324ee8a6e9181f90*%
M02*
